SplineFontDB: 3.0
FontName: Pacifico-Light
FullName: Pacifico Light
FamilyName: Pacifico
Weight: Light
Copyright: Copyright (c) 2011-13 by vernon adams. All rights reserved.
Version: 2
ItalicAngle: 0
UnderlinePosition: 0
UnderlineWidth: 0
Ascent: 1638
Descent: 410
UFOAscent: 2881
UFODescent: -940
LayerCount: 2
Layer: 0 0 "Back"  1
Layer: 1 0 "Fore"  0
FSType: 0
OS2Version: 0
OS2_WeightWidthSlopeOnly: 0
OS2_UseTypoMetrics: 1
CreationTime: 1393372288
ModificationTime: 1393372288
PfmFamily: 17
TTFWeight: 300
TTFWidth: 5
LineGap: 0
VLineGap: 0
OS2TypoAscent: 0
OS2TypoAOffset: 1
OS2TypoDescent: 0
OS2TypoDOffset: 1
OS2TypoLinegap: 0
OS2WinAscent: 0
OS2WinAOffset: 1
OS2WinDescent: 0
OS2WinDOffset: 1
HheadAscent: 0
HheadAOffset: 1
HheadDescent: 0
HheadDOffset: 1
OS2Vendor: 'NeWT'
Lookup: 4 0 0 "'frac' Diagonal Fractions in Latin lookup 0"  {"'frac' Diagonal Fractions in Latin lookup 0 subtable"  } ['frac' ('latn' <'dflt' > 'DFLT' <'dflt' > ) ]
Lookup: 6 0 0 "'ordn' Ordinals in Latin lookup 1"  {"'ordn' Ordinals in Latin lookup 1 contextual 0"  "'ordn' Ordinals in Latin lookup 1 contextual 1"  } ['ordn' ('latn' <'dflt' > 'DFLT' <'dflt' > ) ]
Lookup: 1 0 0 "Single Substitution lookup 2"  {"Single Substitution lookup 2 subtable"  } []
Lookup: 1 0 0 "Single Substitution lookup 3"  {"Single Substitution lookup 3 subtable"  } []
Lookup: 1 0 0 "'init' Initial Forms in Latin lookup 4"  {"'init' Initial Forms in Latin lookup 4 subtable"  } ['init' ('latn' <'dflt' > 'DFLT' <'dflt' > ) ]
Lookup: 1 0 0 "'fina' Terminal Forms in Latin lookup 5"  {"'fina' Terminal Forms in Latin lookup 5 subtable"  } ['fina' ('latn' <'dflt' > 'DFLT' <'dflt' > ) ]
Lookup: 4 0 0 "'dlig' Discretionary Ligatures in Latin lookup 6"  {"'dlig' Discretionary Ligatures in Latin lookup 6 subtable"  } ['dlig' ('latn' <'dflt' > 'DFLT' <'dflt' > ) ]
Lookup: 258 0 0 "'kern' Horizontal Kerning in Latin lookup 0"  {"'kern' Horizontal Kerning in Latin lookup 0 subtable"  } ['kern' ('latn' <'dflt' > ) ]

StartChar: A
Encoding: 33 65 1
Width: 1895
VWidth: 0
Flags: W
PickledData: "(dp1
S'com.typemytype.robofont.layerData'
p2
(dp3
s."
AnchorPoint: "ogonek" 1606 -133 basechar 0
LayerCount: 2
Fore
SplineSet
812 -135 m 256
 1065 -135 1259 -23 1381 215 c 257
 1381 215 1375 113 1375 90 c 256
 1375 -79 1487 -133 1606 -133 c 256
 1739 -133 1876 -17 1937 60 c 256
 1943 68 1946 77 1946 87 c 256
 1946 118 1916 161 1893 161 c 256
 1887 161 1881 159 1876 154 c 256
 1814 87 1741 2 1644 2 c 256
 1563 2 1536 38 1536 111 c 256
 1536 190 1569 313 1606 481 c 258
 1809 1406 l 258
 1810 1410 1810 1413 1810 1417 c 256
 1810 1459 1756 1488 1712 1488 c 256
 1684 1488 1660 1476 1654 1450 c 258
 1467 625 l 258
 1394 303 1175 9 849 9 c 256
 508 9 384 287 384 579 c 256
 384 1323 987 1791 1527 1791 c 256
 1839 1791 2056 1588 2072 1575 c 256
 2094 1557 2114 1550 2133 1550 c 256
 2166 1550 2190 1574 2190 1605 c 256
 2190 1624 2182 1643 2161 1666 c 256
 1972 1863 1699 1940 1517 1940 c 256
 825 1940 190 1352 190 577 c 256
 190 253 333 -135 812 -135 c 256
EndSplineSet
Substitution2: "Single Substitution lookup 2 subtable" ordfeminine
EndChar

StartChar: B
Encoding: 34 66 14
Width: 1628
VWidth: 0
Flags: W
PickledData: "(dp1
S'com.typemytype.robofont.layerData'
p2
(dp3
s."
LayerCount: 2
Fore
SplineSet
522 -176 m 256
 993 -176 1544 162 1544 510 c 256
 1544 693 1410 833 1132 907 c 257
 1608 1001 1740 1212 1740 1420 c 256
 1740 1705 1436 1979 908 1979 c 256
 482 1979 239 1822 68 1655 c 256
 12 1600 96 1478 203 1573 c 256
 374 1724 570 1835 918 1835 c 256
 1326 1835 1549 1642 1567 1440 c 256
 1587 1221 1380 991 900 997 c 258
 814 998 l 258
 756 999 732 971 732 938 c 256
 731 777 1356 890 1356 495 c 256
 1356 232 942 -56 515 -56 c 256
 400 -56 400 2 400 62 c 256
 400 460 474 1210 646 1475 c 257
 623 1504 599 1516 572 1516 c 256
 303 1516 236 349 236 -36 c 256
 236 -120 354 -176 522 -176 c 256
EndSplineSet
EndChar

StartChar: C
Encoding: 35 67 16
Width: 1648
VWidth: 0
Flags: W
PickledData: "(dp1
S'com.typemytype.robofont.layerData'
p2
(dp3
s."
LayerCount: 2
Fore
SplineSet
106 533 m 256
 104 95 308 -272 775 -272 c 256
 1188 -272 1539 -36 1690 268 c 256
 1698 284 1697 307 1676 323 c 256
 1669 328 1659 333 1649 333 c 256
 1641 333 1633 328 1630 325 c 256
 1428 79 1209 -128 838 -128 c 256
 464 -128 298 192 299 575 c 256
 300 1141 668 1844 1267 1844 c 256
 1434 1844 1521 1735 1521 1571 c 256
 1521 1340 1344 1093 1115 1093 c 256
 1039 1093 973 1090 973 1028 c 256
 973 971 1018 966 1119 966 c 256
 1402 966 1665 1296 1665 1590 c 256
 1665 1822 1517 1979 1292 1979 c 256
 565 1979 110 1179 106 533 c 256
EndSplineSet
EndChar

StartChar: D
Encoding: 36 68 23
Width: 1634
VWidth: 0
Flags: W
PickledData: "(dp1
S'com.typemytype.robofont.layerData'
p2
(dp3
s."
AnchorPoint: "mid" 381 853 basechar 0
LayerCount: 2
Fore
SplineSet
474 -118 m 256
 1220 -118 1625 480 1625 1031 c 256
 1625 1502 1329 1940 696 1940 c 256
 435 1940 218 1855 68 1688 c 256
 18 1633 -35 1549 -38 1468 c 256
 -41 1438 -21 1408 2 1408 c 256
 63 1408 56 1478 180 1602 c 256
 328 1751 522 1791 659 1791 c 256
 1203 1791 1456 1413 1454 1006 c 256
 1453 528 1101 8 457 8 c 256
 334 8 319 8 323 59 c 256
 342 416 487 1329 662 1571 c 257
 641 1600 618 1612 591 1612 c 256
 562 1612 528 1601 489 1575 c 257
 280 1285 175 451 149 -41 c 256
 147 -68 146 -68 162 -74 c 256
 222 -97 345 -118 474 -118 c 256
EndSplineSet
EndChar

StartChar: E
Encoding: 37 69 30
Width: 1419
VWidth: 0
Flags: W
PickledData: "(dp1
S'com.typemytype.robofont.layerData'
p2
(dp3
s."
AnchorPoint: "ogonek" 725 -255 basechar 0
LayerCount: 2
Fore
SplineSet
624 -280 m 256
 1001 -280 1446 -94 1654 226 c 256
 1666 245 1672 265 1672 282 c 256
 1672 322 1645 345 1615 345 c 256
 1598 345 1572 335 1552 304 c 256
 1380 50 982 -120 666 -120 c 256
 414 -120 211 -13 211 237 c 256
 211 478 525 756 888 756 c 256
 966 756 1004 803 1004 851 c 256
 1004 886 984 916 947 924 c 256
 621 998 459 1223 459 1430 c 256
 459 1706 745 1858 1028 1858 c 256
 1193 1858 1358 1807 1464 1702 c 257
 1424 1623 1374 1550 1374 1468 c 256
 1374 1423 1400 1399 1483 1399 c 256
 1546 1399 1645 1468 1636 1626 c 257
 1616 1865 1319 1996 1004 1996 c 256
 644 1996 266 1823 266 1431 c 256
 266 1221 388 1004 659 874 c 257
 362 836 7 512 7 213 c 256
 7 -130 286 -280 624 -280 c 256
EndSplineSet
EndChar

StartChar: El
Encoding: 65538 -1 38
Width: 2300
VWidth: 0
Flags: W
LayerCount: 2
Fore
SplineSet
740 -303 m 256
 1263 -312 1591 -14 1845 322 c 256
 1923 426 2067 826 1956 693 c 256
 1726 417 1374 -122 749 -62 c 256
 566 -44 433 29 418 239 c 256
 401 502 618 694 1047 694 c 256
 1239 694 1258 914 1117 945 c 256
 941 983.999 593 1077 616 1359 c 256
 648 1751 1313 1680 1533 1501 c 257
 1453 1313 l 258
 1372 1124 1780 1109 1761 1438 c 256
 1743 1743 1363 1867 1038 1867 c 256
 692 1867 362 1742 332 1385 c 256
 308 1105 503 905 874 855 c 257
 487 845 119 622 119 233 c 256
 119 -121 392 -297 740 -303 c 256
2061 -9 m 256
 2226 -9 2375 62 2537 243 c 256
 2636 352 2493 450 2434 383 c 256
 2333 269 2215 177 2110 177 c 256
 1962 177 1983 392 2006 560 c 257
 2313 801 2645 1275 2676 1696 c 256
 2686 1818 2608 1920 2479 1920 c 256
 2059 1920 1802 1032 1762 526 c 256
 1737 205 1811 -9 2061 -9 c 256
2020 772 m 257
 2064 1069 2226 1680 2411 1680 c 256
 2447 1680 2461 1662 2461 1620 c 256
 2461 1383 2215 995.999 2020 772 c 257
EndSplineSet
EndChar

StartChar: Euro
Encoding: 461 8364 43
Width: 1857
VWidth: 0
Flags: W
LayerCount: 2
Fore
SplineSet
700 -192 m 256
 1025 -192 1275 -25 1455 131 c 256
 1481 153 1504 181 1504 221 c 256
 1504 277 1460 321 1405 321 c 256
 1387 321 1368 318 1353 305 c 256
 1211 187 1004 62 752 62 c 257
 628 200 384 217 384 472 c 258
 384 492 l 258
 384 498 384 505 385 512 c 257
 768 512 l 258
 851 512 896 548 896 628 c 256
 896 682 853 704 801 704 c 258
 413 704 l 257
 423 749 434 790 448 832 c 257
 833 832 l 258
 916 832 961 868 961 948 c 256
 961 1002 918 1024 866 1024 c 258
 521 1024 l 257
 553 1096 590 1164 632 1230 c 256
 724 1376 866 1568 1088 1568 c 256
 1230 1568 1333 1527 1333 1390 c 256
 1333 1282 1269 1200 1269 1108 c 258
 1269 1102 l 258
 1269 1050 1359 1026 1412 1026 c 256
 1427 1026 1444 1036 1463 1058 c 256
 1526 1132 1572 1268 1572 1405 c 256
 1572 1669 1397 1792 1123 1792 c 256
 1056 1792 991.999 1782 929 1762 c 256
 582 1653 363 1343 223 1024 c 257
 96.9999 1024 l 258
 35 1024 0 999.999 0 941 c 256
 0 875 29 832 96.9999 832 c 258
 153 832 l 257
 140 790 129 749 121 704 c 257
 32 704 l 258
 -30 704 -65 680 -65 621 c 256
 -65 555 -36 512 32 512 c 258
 96.9999 512 l 257
 95.9999 507 95.9999 502 95.9999 497 c 258
 95.9999 482 l 258
 95.9999 73 297 -192 700 -192 c 256
EndSplineSet
EndChar

StartChar: F
Encoding: 38 70 44
Width: 1288
VWidth: 0
Flags: W
PickledData: "(dp1
S'com.typemytype.robofont.layerData'
p2
(dp3
s."
LayerCount: 2
Fore
SplineSet
414 -198 m 256
 773 -198 885 155 1012 790 c 257
 1155 790 1253 792 1319 812 c 256
 1339 818 1361 839 1361 864 c 256
 1361 883 1357 906 1307 916 c 256
 1259 926 1159 920 1032 920 c 257
 1043 982 1162 1597 1203 1799 c 257
 1349 1821 1666 1809 1910 1778 c 257
 1988 1772 2023 1798 2023 1858 c 257
 2019 1950 1473 1958 1311 1958 c 256
 615 1958 -298 1687 231 813 c 257
 278 757 435 726 360 843 c 256
 -79 1527 518 1719 1051 1799 c 257
 1002 1549 949 1246 886 916 c 257
 698 911 632 887 632 844 c 256
 632 810.225 656.223 796.167 735.956 789.986 c 256
 762.456 787.932 827 787 867 786 c 257
 830 611 772 -74 434 -74 c 256
 254 -74 309 17 210 17 c 256
 173 17 140 -20 140 -69 c 256
 140 -168 301 -198 414 -198 c 256
EndSplineSet
EndChar

StartChar: G
Encoding: 39 71 46
Width: 2127
VWidth: 0
Flags: W
PickledData: "(dp1
S'com.typemytype.robofont.layerData'
p2
(dp3
s."
LayerCount: 2
Fore
SplineSet
884 -909 m 256
 1471 -1129 1795 -709 2012 356 c 256
 2058 582 2041 602 1679 602 c 256
 1601 602 1542 577 1542 522 c 256
 1542 470 1575 456 1672 456 c 256
 1872 456 1886 437 1873 380 c 258
 1855 300 l 257
 1460 -72 414 -300 433 588 c 256
 459 1782 1828 2127 1828 1511 c 256
 1828 1405 1866 1386 1923 1386 c 256
 1987 1386 2023 1412 2023 1502 c 256
 2023 2402 244 1985 244 558 c 256
 244 -540 1571 -141 1815 115 c 257
 1573 -910 1258 -904 917 -751 c 257
 831 -720 725 -850 884 -909 c 256
EndSplineSet
EndChar

StartChar: H
Encoding: 40 72 53
Width: 1983
VWidth: 0
Flags: W
PickledData: "(dp1
S'com.typemytype.robofont.layerData'
p2
(dp3
s."
LayerCount: 2
Fore
SplineSet
2052 -175 m 256
 2088 -143 1986 -79 1962 -102 c 256
 1825 -234 1124 -467 1327 353 c 258
 1565 1314 l 258
 1701 1861 2209 1860 2226 1594 c 256
 2255 1142 1135 678 204 826 c 256
 129 838 84 694 168 684 c 256
 1236 561 2408 1031 2376 1599 c 256
 2351 2044 1579 2064 1403 1314 c 258
 1172 330 l 258
 990 -446 1700 -483 2052 -175 c 256
85 -303 m 256
 171 -318 196 -265 234 -148 c 258
 682 1134 l 257
 815 1556 742 1794 465 1880 c 256
 110 1990 -367 1758 -367 1277 c 256
 -367 1199 -258 1209 -256 1242 c 256
 -242 1516 23 1851 395 1755 c 256
 620 1697 667 1540 484 1046 c 257
 75 -97 l 258
 12 -268 38 -295 85 -303 c 256
EndSplineSet
EndChar

StartChar: I
Encoding: 41 73 56
Width: 982
VWidth: 0
Flags: W
PickledData: "(dp1
S'com.typemytype.robofont.layerData'
p2
(dp3
s."
AnchorPoint: "ogonek" 0 0 basechar 0
LayerCount: 2
Fore
SplineSet
74 -68 m 256
 107 -79 635 -24 931 -12 c 256
 1032 -8 1037 96 1005 108 c 256
 945 131 778 106 570 107 c 257
 650 491 925 1384 1018 1713 c 257
 1120 1725 1415 1738 1508 1754 c 256
 1557 1762 1544 1872 1502 1871 c 257
 792 1889 515 1842 442 1805 c 256
 401 1784 422 1664 456 1670 c 256
 601 1696 814 1697 864 1704 c 257
 680 1219 518 624 403 102 c 257
 351 99 54 93 39 38 c 256
 23 -18 45 -58 74 -68 c 256
EndSplineSet
EndChar

StartChar: J
Encoding: 42 74 67
Width: 1407
VWidth: 0
Flags: W
PickledData: "(dp1
S'com.typemytype.robofont.layerData'
p2
(dp3
s."
LayerCount: 2
Fore
SplineSet
534 -432 m 256
 959 -382 1365 931 1465 1816 c 256
 1466 1820 1466 1824 1466 1831 c 256
 1466 1871 1453 1883 1420 1883 c 256
 1362 1883 1352 1876 1334 1781 c 256
 1262 1379 882 -291 473 -291 c 256
 323 -291 321 -61 301 89 c 256
 291 165 176 171 183 75 c 256
 203 -210 275 -462 534 -432 c 256
1971 1754 m 256
 1972 1801 1937 1839 1901 1834 c 257
 1497 1834 1054 1882 699 1882 c 256
 89 1882 -166 1595 -166 1274 c 256
 -166 1215 -70 1195 -56 1246 c 256
 20 1531 114 1734 691 1734 c 256
 897 1734 1256 1684 1757 1684 c 256
 1957 1684 1971 1712 1971 1754 c 256
EndSplineSet
EndChar

StartChar: K
Encoding: 43 75 69
Width: 1642
VWidth: 0
Flags: W
PickledData: "(dp1
S'com.typemytype.robofont.layerData'
p2
(dp3
s."
LayerCount: 2
Fore
SplineSet
1790 -401 m 256
 1882 -401 2063 -365 2091 -305 c 257
 2110 -258 2080 -229 2062 -229 c 256
 2013 -229 1942 -265 1873 -265 c 257
 1485 -283 1433 -61 1012 916 c 257
 1536 1182 1889 1553 1969 1730 c 256
 2003 1809 2004 1870 1941 1870 c 256
 1894 1870 1869 1806 1794 1705 c 256
 1620 1472 1332 1226 923 998 c 257
 971 1302 972 1579 972 1840 c 256
 972 1881 946 1896 886 1896 c 256
 455 1896 -105 1699 -105 1088 c 256
 -105 1034 -67 1005 -19 1012 c 256
 41 1021 60 1042 60 1075 c 256
 60 1635 501 1795 833 1774 c 257
 763 270 509 -170 185 -170 c 256
 114 -170 34 -137 -3 -137 c 256
 -38 -137 -80 -183 -80 -226 c 256
 -80 -283 106 -303 190 -303 c 256
 630 -303 791 271 905 885 c 257
 1315 -58 1358 -401 1790 -401 c 256
EndSplineSet
EndChar

StartChar: K.alt
Encoding: 65539 -1 70
Width: 1821
VWidth: 0
Flags: W
LayerCount: 2
Fore
SplineSet
1824 -410 m 256
 2038 -410 2202 -366 2335 -326 c 256
 2352 -321 2369 -264 2369 -212 c 256
 2369 -159 2350 -108 2294 -108 c 256
 2274 -108 2251 -119 2219 -130 c 256
 2132 -160 2000 -186 1850 -186 c 256
 1438 -186 1275 386 1114 800 c 257
 1651 800 1790 1108 1860 1521 c 256
 1863 1540 1865 1558 1865 1575 c 256
 1865 1648 1830 1696 1732 1696 c 256
 1611 1696 1627 1665 1604 1536 c 256
 1544 1202 1403 991.999 964 991.999 c 257
 976.999 1205 1011 1409 1011 1632 c 256
 1011 1702 958 1728 885 1728 c 256
 448 1728 -28 1563 -28 1120 c 258
 -28 1111 l 258
 -28 1040 56 1024 136 1024 c 256
 197 1024 260 1043 260 1097 c 256
 260 1380 472 1568 761 1568 c 257
 749 1485 l 257
 727 1274 696 1056 653 864 c 256
 594 599 491 160 179 160 c 256
 122 160 78 196 31 196 c 256
 -31 196 -96 97.9999 -96 36 c 256
 -96 -49 121 -64 214 -64 c 256
 289 -64 360 -49 428 -20 c 256
 693 93.9999 818 388 900 704 c 257
 1068 256 1219 -410 1824 -410 c 256
EndSplineSet
EndChar

StartChar: L
Encoding: 44 76 72
Width: 1820
VWidth: 0
Flags: W
PickledData: "(dp1
S'com.typemytype.robofont.layerData'
p2
(dp3
s."
LayerCount: 2
Fore
SplineSet
589 -219 m 256
 1307 -219 1377 464 1377 1145 c 256
 1377 1725 1598 1986 1926 1984 c 256
 2618 1981 2443 847 827 1375 c 256
 762 1396 725 1274 772 1259 c 256
 2665 648 2872 2119 1937 2122 c 256
 1424 2124 1208 1680 1219 1206 c 256
 1233 601 1239 -98 599 -98 c 256
 286 -98 241 237 484 238 c 256
 1215 238 2180 -1074 2631 -221 c 256
 2672 -143 2599 -76 2539 -168 c 256
 2155 -758 1197 387 481 387 c 256
 60 387 72 -219 589 -219 c 256
EndSplineSet
EndChar

StartChar: Lslash
Encoding: 256 321 78
Width: 991
VWidth: 0
Flags: W
LayerCount: 2
Fore
SplineSet
377 -50 m 256
 609 -50 798 21 969.999 89 c 257
 1026 97.9999 1066 144 1066 208 c 256
 1066 272 1034 323 968.999 323 c 256
 958 323 947 321 938 319 c 258
 603 223 l 258
 552 208 512 201 482 201 c 258
 474 201 l 258
 433 201 388 202 388 239 c 258
 388 250 l 258
 388 311 392 354 394 426 c 257
 615 562 807 750 953 960 c 256
 962 973.999 971.999 987.999 981.999 1002 c 257
 1047 1016 1110 1030 1174 1044 c 256
 1286 1069 1514 1074 1514 1199 c 256
 1514 1258 1489 1295 1433 1295 c 256
 1421 1295 1410 1294 1401 1291 c 256
 1305 1269 1207 1248 1108 1226 c 257
 1153 1328 1184 1441 1184 1568 c 256
 1184 1736 1119 1872 956 1872 c 256
 829 1872 728 1802 646 1730 c 256
 456 1563 320 1323 237 1036 c 257
 235 1036 234 1035 232 1035 c 256
 137 1014 -75 1008 -75 908 c 256
 -75 851 -41 795 19 795 c 256
 27 795 36 796 46 798 c 256
 92.9999 808 140 818 188 828 c 257
 174 755 163 679 155 602 c 258
 147 534 l 257
 89 492 20 444 -39 405 c 256
 -95 368 -181 343 -181 260 c 256
 -181 204 -146 129 -92 129 c 256
 -81 129 -55 141 -15 166 c 256
 25 191 74 224 131 266 c 257
 131 81 191 -50 377 -50 c 256
493 1091 m 257
 546 1259 620 1407 710 1525 c 256
 750 1577 808 1654 875 1654 c 256
 922 1654 933 1602 933 1545 c 256
 933 1463 920 1413 892 1345 c 256
 865 1280 833 1217 797 1157 c 257
 695 1135 594 1113 493 1091 c 257
412 678 m 257
 418 748 427 816 440 882 c 257
 504 896 569 911 633 925 c 257
 562 837 486 755 412 678 c 257
EndSplineSet
EndChar

StartChar: M
Encoding: 45 77 79
Width: 2282
VWidth: 0
Flags: W
PickledData: "(dp1
S'com.typemytype.robofont.layerData'
p2
(dp3
s."
LayerCount: 2
Fore
SplineSet
363 11 m 256
 679 889 983 1656 1215 1670 c 256
 1420 1682 1364 1253 1238 816 c 258
 988 -53 l 257
 988 -53 1044 -92 1087 -92 c 256
 1119 -92 1155 -70 1164 -18 c 257
 1424 857 1662 1560 1933 1598 c 256
 2054 1615 2084 1519 2070 1430 c 256
 2010 1063 1794 695 1764 229 c 256
 1754 75 1839 -77 2038 -97 c 256
 2273 -121 2453 12 2521 131 c 256
 2549 180 2481 285 2427 220 c 256
 2354 133 2221 26 2064 47 c 256
 1951 62 1919 156 1931 259 c 256
 1993 775 2215 1077 2245 1462 c 256
 2262 1675 2115 1772 2000 1774 c 256
 1802 1778 1634 1590 1476 1188 c 257
 1563 1561 1504 1840 1269 1840 c 257
 933 1833 763 1382 635 1030 c 257
 713 1304 782 1813 498 1813 c 256
 268 1813 49 1589 49 1329 c 256
 49 1260 189 1265 189 1267 c 256
 189 1490 329 1702 445 1702 c 256
 622 1702 618 1197 484 808 c 258
 180 -71 l 257
 180 -71 191 -118 252 -118 c 256
 317 -118 328 -85 363 11 c 256
EndSplineSet
EndChar

StartChar: N
Encoding: 46 78 81
Width: 1575
VWidth: 0
Flags: W
PickledData: "(dp1
S'com.typemytype.robofont.layerData'
p2
(dp3
s."
LayerCount: 2
Fore
SplineSet
199 -46 m 256
 259 -46 293 -21 309 26 c 256
 513 624 903 1579 1208 1579 c 256
 1316 1579 1360 1493 1360 1412 c 256
 1360 1198 1046 555 1046 208 c 256
 1046 27 1121 -92 1361 -92 c 256
 1473 -92 1631 -17 1726 75 c 256
 1839 185 1755 253 1683 175 c 256
 1502 -22 1173 -44 1200 261 c 256
 1232 612 1512 1198 1512 1486 c 256
 1512 1617 1430 1711 1275 1728 c 256
 935 1765 573 1161 451 807 c 257
 486.5 1018 517.5 1241 504.875 1411.25 c 256
 492.25 1581.5 436 1699 297 1699 c 256
 133 1695 48 1606 -26 1484 c 256
 -82 1390 5 1334 59 1408 c 256
 147 1531 195 1592 264 1581 c 256
 323 1573 346 1530 350 1482 c 256
 369 1113 276 495 123 67 c 256
 107 25 127 -46 199 -46 c 256
EndSplineSet
EndChar

StartChar: NameMe.276
Encoding: 65541 -1 84
Width: 1436
VWidth: 0
Flags: W
LayerCount: 2
Fore
SplineSet
274 0 m 256
 361 0 443 53 509 114 c 257
 536 45 579 0 644 0 c 256
 754 0 849 164 908 235 c 257
 964 138 1045 0 1146 0 c 256
 1324 0 1474 107 1566 194 c 257
 1577 201 1588 245 1588 287 c 256
 1588 328 1578 366 1548 366 c 256
 1536 366 1519 361 1501 344 c 256
 1438 289 1343 223 1255 223 c 256
 1173 223 1103 356 1070 406 c 257
 1159 504 1258 598 1370 672 c 256
 1402 693 1423 732 1423 780 c 256
 1423 842 1391 895 1329 895 c 256
 1294 895 1266 883 1242 864 c 256
 1143 786 1058 692 981.999 593 c 257
 942 687 896 916 786 916 c 256
 732 916 649 875 649 831 c 256
 649 828 650 825 651 821 c 256
 699 680 750 552 811 430 c 257
 778 373 680 236 635 236 c 256
 603 236 578 286 531 286 c 256
 471 286 436 192 378 192 c 256
 332 192 327 240 327 290 c 256
 327 514 463 695 463 903 c 256
 463 945 439 960 391 960 c 256
 328 960 261 927 244 863 c 256
 190 660 88 438 88 201 c 256
 88 71 143 0 274 0 c 256
448 1089 m 256
 558 1089 632 1155 632 1268 c 256
 632 1366 564 1408 472 1408 c 256
 362 1408 276 1345 276 1241 c 256
 276 1140 341 1089 448 1089 c 256
EndSplineSet
EndChar

StartChar: No
Encoding: 65542 -1 88
Width: 2632
VWidth: 0
Flags: W
LayerCount: 2
Fore
SplineSet
1339 -15 m 256
 1455 -15 1574 45 1630 112 c 256
 1636 119 1639 128 1639 136 c 256
 1639 166 1604 199 1577 199 c 256
 1570 199 1562 198 1554 194 c 256
 1509 167 1462 151 1415 151 c 256
 1322 151 1282 267 1282 387 c 256
 1282 673 1473 1045 1473 1427 c 256
 1473 1578 1398 1728 1223 1728 c 256
 783 1728 648 1103 537 731 c 257
 531 734 614 1174 614 1402 c 256
 614 1585 543 1696 360 1696 c 256
 183 1696 -2 1456 -2 1275 c 256
 -2 1241 44 1196 79 1196 c 256
 145 1196 181 1292 212 1339 c 256
 237 1377 291 1471 354 1471 c 256
 383 1471 390 1442 390 1414 c 258
 390 1391 l 257
 358 930 275 584 192 154 c 256
 190 145 189 137 189 128 c 256
 189 53 250 -14 327 -14 c 256
 403 -14 451 23 473 85 c 256
 571 360 852 1474 1122 1474 c 256
 1200 1474 1212 1394 1212 1327 c 256
 1212 1289 1208 1249 1200 1208 c 256
 1149 956 1041 726 1041 413 c 256
 1041 88 1188 -15 1339 -15 c 256
2388 112 m 257
 2372 160 2364 271 2307 271 c 258
 2040 269 l 258
 1951 269 1866 270 1784 270 c 257
 1722 113 l 257
 2388 112 l 257
2098 542 m 256
 1989 542 1953 637 1953 746 c 256
 1953 888 2021 1118 2156 1118 c 256
 2252 1118 2273 999.999 2273 901 c 256
 2273 775 2216 542 2098 542 c 256
2059 350 m 256
 2327 350 2467 624 2467 910 c 256
 2467 1165 2333 1311 2159 1311 c 256
 1932 1311 1729 1077 1729 787 c 256
 1729 556 1828 350 2059 350 c 256
EndSplineSet
EndChar

StartChar: O
Encoding: 47 79 90
Width: 1853
VWidth: 0
Flags: W
PickledData: "(dp1
S'com.typemytype.robofont.layerData'
p2
(dp3
s."
AnchorPoint: "ogonek" 0 1 basechar 0
LayerCount: 2
Fore
SplineSet
889 -129 m 256
 501.047 -129 353.95 141.199 362.003 604.243 c 256
 373.067 1321.45 829.339 1848 1212 1848 c 256
 1572.37 1848 1709.05 1572.56 1701 1099.76 c 256
 1687.92 391.662 1252.85 -129 889 -129 c 256
901 -258 m 256
 1451.09 -258 1854 472.927 1854 1100 c 256
 1854 1731.12 1615.01 1973 1189 1973 c 256
 622.823 1973 208 1235.02 208 605 c 256
 208 -20 456.703 -258 901 -258 c 256
EndSplineSet
Substitution2: "Single Substitution lookup 3 subtable" ordmasculine
EndChar

StartChar: OE
Encoding: 273 338 91
Width: 2306
VWidth: 0
Flags: W
LayerCount: 2
Fore
SplineSet
742 -192 m 256
 985.999 -192 1187 -60 1280 95.9999 c 257
 1372 -26 1538 -96 1750 -96 c 256
 2114 -96 2408 56 2590 250 c 257
 2521 477 l 257
 2504 448 2479 420 2447 392 c 256
 2290 253 2032 128 1744 128 c 256
 1565 128 1465 209 1465 390 c 256
 1465 512 1508 624 1536 736 c 257
 2034 736 l 258
 2104 736 2158 768 2158 836 c 256
 2158 884 2128 928 2080 928 c 258
 1568 928 l 257
 1632 1280 l 258
 1664 1453 1796 1557 1998 1557 c 256
 2189 1557 2333 1475 2432 1376 c 257
 2528 1568 l 257
 2383 1673 2205 1770 1985 1770 c 256
 1774 1770 1634 1673 1536 1536 c 257
 1448 1713 1255 1856 994.999 1856 c 256
 896 1856 805 1838 722 1802 c 256
 338 1636 95.9999 1178 95.9999 633 c 256
 95.9999 187 299 -192 742 -192 c 256
766 32 m 256
 480 32 352 292 352 583 c 256
 352 864 447 1106 555 1293 c 256
 648 1454 797 1664 1034 1664 c 256
 1259 1664 1352 1486 1376 1280 c 257
 1184 352 l 257
 1105 206 984.999 32 766 32 c 256
EndSplineSet
EndChar

StartChar: Oslash
Encoding: 151 216 100
Width: 1853
VWidth: 0
Flags: W
PickledData: "(dp1
S'com.typemytype.robofont.layerData'
p2
(dp3
s."
LayerCount: 2
Fore
SplineSet
220 -477 m 257
 1981 2102 l 257
 2048 2192 1912 2244 1877 2168 c 257
 123 -416 l 257
 43 -555 153 -579 220 -477 c 257
EndSplineSet
Refer: 90 79 N 1 0 0 1 0 0 2
EndChar

StartChar: P
Encoding: 48 80 103
Width: 1374
VWidth: 0
Flags: W
PickledData: "(dp1
S'com.typemytype.robofont.layerData'
p2
(dp3
s."
LayerCount: 2
Fore
SplineSet
352 -196 m 256
 133 -196 67 291 67 647 c 256
 67 1148 313 1829 836 1859 c 256
 1272 1884 1532 1706 1532 1418 c 256
 1532 1123 1227 927 786 913 c 257
 799 1011 849 1227 950 1399 c 256
 963 1421 929 1452 865 1452 c 256
 700 1452 672 1224 616 920 c 257
 535 920 402 991 372 1005 c 256
 354 1013 355 973 355 954 c 256
 355 836 527 796 602 788 c 257
 549 382 564 -196 352 -196 c 256
318 -349 m 256
 594 -349 672 -101 712 290 c 257
 747 591 770 779 775 779 c 256
 1342 796 1694 1050 1694 1437 c 256
 1694 1801 1386 2055 846 2036 c 256
 257 2015 -95 1419 -95 679 c 256
 -95 134 34 -349 318 -349 c 256
EndSplineSet
EndChar

StartChar: Ph
Encoding: 65543 -1 105
Width: 2585
VWidth: 0
Flags: W
LayerCount: 2
Fore
SplineSet
1714 0 m 256
 1802 -17 1835 39 1868 112 c 256
 1958 313 2071 455 2156 561 c 256
 2278 713 2119 429 2103 185 c 256
 2093 34 2187 -20 2322 0 c 256
 2490 25 2637 123 2738 196 c 256
 2780 228 2796 271 2796 311 c 256
 2796 367 2766 415 2730 415 c 256
 2722 415 2714 412 2706 407 c 257
 2680 383 2446 194 2369 194 c 256
 2354 194 2345 200 2345 213 c 256
 2345 347 2482 606 2550 807 c 256
 2580 897 2515 966 2421 966 c 256
 2332 966 2194 857 1888 480 c 257
 1934 651 l 257
 2439 1134 2554 1434 2584 1664 c 257
 2596 1812 2523 1920 2388 1920 c 256
 1929 1920 1691 900 1645 333 c 256
 1636 236 1620 18 1714 0 c 256
570 -60 m 256
 395 -60 375 358 375 647 c 256
 375 1140 510 1736 998.999 1765 c 256
 1422 1790 1605 1586 1605 1416 c 256
 1605 1249 1484 1007 1043 957 c 257
 1054 1092 1175 1280 1208 1393 c 257
 1208 1400 1209 1400 1209 1409 c 256
 1209 1469 1142 1492 1083 1492 c 256
 885 1492 874 1224 804 966 c 257
 745 978.999 638 1051 576 1051 c 256
 533 1051 533 996.999 533 954 c 256
 533 813 660 785 772 740 c 257
 710 309 731 -60 570 -60 c 256
536 -293 m 256
 844 -293 929 -15 969.999 345 c 256
 981.999 447 1022 747 1020 747 c 257
 1683 821 1882 1164 1882 1437 c 256
 1882 1724 1588 2020 1022 2000 c 256
 405 1978 118 1400 118 647 c 256
 118 154 216 -293 536 -293 c 256
1940 838 m 257
 1975 1051 2141 1719 2337 1678 c 256
 2364 1672 2372 1652 2370 1608 c 257
 2355 1434 2176 1081 1940 838 c 257
EndSplineSet
EndChar

StartChar: Q
Encoding: 49 81 106
Width: 1853
VWidth: 0
Flags: W
LayerCount: 2
Fore
SplineSet
2756 -551 m 256
 2880 -453 2917 -368 2932 -334 c 257
 2943 -304 2945 -291 2935 -279 c 257
 2925 -264 2891 -254 2877 -262 c 256
 2868 -267 2863 -274 2855 -285 c 257
 2815 -332 2782 -362 2735 -401 c 256
 2536 -555 2254 -490 1350 103 c 257
 1334 122 1259 35 1284 12 c 257
 2100 -507 2424 -809 2756 -551 c 256
EndSplineSet
Refer: 90 79 N 1 0 0 1 0 0 2
EndChar

StartChar: R
Encoding: 50 82 107
Width: 2002
VWidth: 0
Flags: W
PickledData: "(dp1
S'com.typemytype.robofont.layerData'
p2
(dp3
s."
LayerCount: 2
Fore
SplineSet
604 -348 m 256
 904 -346 961 -55 1068 1003 c 256
 1093 1255 1216 1358 1216 1409 c 256
 1216 1431 1176 1453 1128 1452 c 256
 993 1448 948 1291 902 1039 c 256
 794 445 835 -194 611 -194 c 256
 447 -194 333 31 333 658 c 256
 333 1303 638 1870 1179 1870 c 256
 1622 1870 1772 1686 1765 1453 c 257
 1765 1271 1617 1105 1044 1121 c 256
 922 1121 832 1137 775 1139 c 256
 730 1142 705 1136 698 1110 c 256
 676 1028 793 946 1228 968 c 257
 1410 -26 1729 -330 2023 -364 c 256
 2130 -379 2253 -367 2391 -211 c 256
 2427 -171 2419 -145 2390 -118 c 256
 2357 -88 2327 -109 2304 -132 c 256
 2246 -192 2160 -222 2087 -212 c 256
 1973 -196 1613 -125 1370 990 c 257
 1576 987 1929 1142 1934 1475 c 257
 1946 1809 1634 2035 1176 2038 c 256
 652 2040 168 1562 168 658 c 256
 168 -7 323 -349 604 -348 c 256
EndSplineSet
EndChar

StartChar: S
Encoding: 51 83 111
Width: 1641
VWidth: 0
Flags: W
PickledData: "(dp1
S'com.typemytype.robofont.layerData'
p2
(dp3
s."
LayerCount: 2
Fore
SplineSet
787 -333 m 256
 1227 -333 1543 -105 1543 235 c 256
 1543 547 1305 657 981 849 c 257
 599 1099 476 1139 476 1368 c 256
 476 1568 790 1706 1025 1706 c 256
 1246 1706 1454 1611 1454 1426 c 256
 1454 1318 1406 1240 1358 1180 c 256
 1293 1103 1392 1008 1502 1133 c 256
 1558 1195 1609 1297 1607 1424 c 256
 1603 1697 1345 1860 999 1850 c 256
 659 1841 303 1647 303 1344 c 256
 303 1060 575 914 835 751 c 256
 1087 594 1388 497 1388 213 c 256
 1388 -10 1187 -195 805 -195 c 256
 477 -195 206 -41 262 251 c 256
 295 423 116 468 83 263 c 256
 19 -131 424 -333 787 -333 c 256
EndSplineSet
EndChar

StartChar: T
Encoding: 52 84 120
Width: 1392
VWidth: 0
Flags: W
PickledData: "(dp1
S'com.typemytype.robofont.layerData'
p2
(dp3
s."
LayerCount: 2
Fore
SplineSet
800 -264 m 256
 859 -264 883 -228 896 -149 c 256
 923 30 1009 830 1285 1739 c 257
 1166 1739 l 257
 801 864 720 -69 723 -169 c 256
 724 -225 741 -264 800 -264 c 256
2223 1754 m 256
 2224 1801 2189 1839 2153 1834 c 257
 1749 1834 1194 1882 839 1882 c 256
 229 1882 -26 1595 -26 1274 c 256
 -26 1215 70 1195 84 1246 c 256
 160 1531 254 1734 831 1734 c 256
 1037 1734 1508 1684 2009 1684 c 256
 2209 1684 2223 1712 2223 1754 c 256
EndSplineSet
EndChar

StartChar: Th
Encoding: 65545 -1 125
Width: 2410
VWidth: 0
Flags: W
LayerCount: 2
Fore
SplineSet
1537 -1 m 257
 1606 -14 1632 27 1663 97 c 256
 1755 301 1870 446 1962 577 c 257
 2319 1023 2103 605 1946 158 c 256
 1909 54 2014 -19 2137 0 c 256
 2299 24 2441 118 2542 191 c 257
 2541 191 l 257
 2576 217 2589 253 2589 286 c 256
 2589 366 2561 382 2507 335 c 257
 2507 336 l 257
 2481 311 2273 144 2187 144 c 256
 2161 144 2138 157 2138 188 c 256
 2138 328 2283.96 615.914 2351.28 814.906 c 256
 2375.29 886.94 2325 999 2246 999 c 257
 2080 969 1864 783 1669 421 c 257
 1761 914 1885 1517 2039 1702 c 257
 1888 1702 l 257
 1671 1365 1520 692 1488 306 c 256
 1480 213 1469 13 1537 -1 c 257
809 -74 m 256
 888 -74 912 -33 926 54 c 256
 946 179 1061 815 1393 1694 c 257
 1988 1663 2134 1654 2343 1698 c 256
 2396 1709 2484 1876 2302 1851 c 256
 1421 1729 250 2246 86 1469 c 256
 64 1363 220 1358 267 1448 c 257
 391 1659 450 1797 1214 1700 c 257
 785 669 706 137 709 36 c 256
 711 -28 735 -74 809 -74 c 256
EndSplineSet
EndChar

StartChar: Thorn
Encoding: 157 222 126
Width: 1216
VWidth: 0
Flags: W
LayerCount: 2
Fore
SplineSet
452 -151 m 256
 331.382 -151 332 177.675 332 336 c 258
 332 483 l 258
 332 827.964 448.837 1133.13 756.496 1180.09 c 257
 740.383 985.897 696 772 700 583 c 257
 633 583 589 615 563 615 c 256
 552 615 540 598 540 557 c 256
 540 487 600 454 689 442 c 257
 692 291 654.91 -151 452 -151 c 256
430 -325 m 256
 810.412 -325 841 32 872 424 c 257
 1148 405 1496 557.698 1496 847 c 256
 1496 1155.36 1251.41 1323.54 963.853 1356.23 c 257
 943.727 1377.36 1027 1703 1029 1771 c 257
 1029 1812 1013 1824 971 1824 c 256
 747 1824 794.102 1445.96 771.808 1355.95 c 257
 344.861 1309.18 124 948.167 124 457 c 256
 124 171.302 168.545 -325 430 -325 c 256
879.93 575.377 m 257
 941.298 1177.92 l 257
 1139.21 1155.4 1321 1051.33 1321 824 c 256
 1321 641.343 1026.82 562.362 879.93 575.377 c 257
EndSplineSet
EndChar

StartChar: U
Encoding: 53 85 127
Width: 1571
VWidth: 0
Flags: W
PickledData: "(dp1
S'com.typemytype.robofont.layerData'
p2
(dp3
s."
AnchorPoint: "ogonek" 0 0 basechar 0
LayerCount: 2
Fore
SplineSet
548 30 m 256
 -34 30 146.765 1052.67 485.082 1604.29 c 256
 537.603 1691.4 381.511 1721.39 315.995 1612.47 c 256
 -69 973.203 -213 -126 539 -126 c 256
 1493.86 -126 2001.54 2015.66 1321.73 1992.02 c 256
 621.166 1967.67 989.76 730.976 2031.92 1437.99 c 256
 2098.65 1483.25 2034.78 1584.48 1956.79 1532.49 c 256
 1116.09 971.373 905.35 1845.09 1283.17 1859.97 c 256
 1774.6 1879.59 1281.23 30 548 30 c 256
-18 1300 m 258
 420 1572 l 258
 458 1596 421 1696 382 1673 c 258
 -51 1415 l 258
 -112 1378 -79 1262 -18 1300 c 258
EndSplineSet
EndChar

StartChar: V
Encoding: 54 86 138
Width: 1536
VWidth: 0
Flags: W
LayerCount: 2
Fore
SplineSet
1321 831 m 256
 1175 548 931 134 663 103 c 256
 524 87 433 191 433 478 c 256
 433 1014 731 1406 759 1444 c 256
 779 1471 679 1575 573 1422 c 256
 518 1343 274 983 274 498 c 256
 274 129 388 -57 621 -57 c 257
 940 -41 1187 317 1435 761 c 256
 1827 1463 1699 1932 1438 1942 c 257
 739 1942 1104 577 2113 1360 c 256
 2171 1405 2125 1491 2072 1453 c 256
 1223 842 1016 1778 1392 1778 c 256
 1506 1778 1670 1508 1321 831 c 256
-20 956 m 258
 650 1372 l 258
 689 1396 652 1497 612 1473 c 258
 -53 1071 l 258
 -114 1034 -81 918 -20 956 c 258
EndSplineSet
EndChar

StartChar: W
Encoding: 55 87 139
Width: 2526
VWidth: 0
Flags: W
PickledData: "(dp1
S'com.typemytype.robofont.layerData'
p2
(dp3
s."
LayerCount: 2
Fore
SplineSet
2311 831 m 256
 2165 548 1921 134 1653 103 c 256
 1514 87 1403 211 1403 538 c 256
 1403 604 1410 775 1424 803 c 256
 1439 833 1809 1424 1563 1422 c 256
 1447 1421 1285 983 1285 498 c 256
 1285 129 1378 -57 1611 -57 c 257
 1930 -41 2177 317 2425 761 c 256
 2817 1463 2689 1932 2428 1942 c 257
 1729 1942 2094 577 3103 1360 c 256
 3161 1405 3115 1491 3062 1453 c 256
 2213 842 2006 1778 2382 1778 c 256
 2496 1778 2660 1508 2311 831 c 256
1359 1028 m 257
 1289 831 l 257
 1143 548 899 134 631 103 c 256
 492 87 401 191 401 478 c 256
 401 1014 699 1406 727 1444 c 256
 747 1471 647 1575 541 1422 c 256
 486 1343 242 983 242 498 c 256
 242 129 356 -57 589 -57 c 257
 908 -41 1155 317 1403 761 c 257
 1359 1028 l 257
-52 956 m 258
 618 1372 l 258
 657 1396 620 1497 580 1473 c 258
 -85 1071 l 258
 -146 1034 -113 918 -52 956 c 258
EndSplineSet
EndChar

StartChar: W_i
Encoding: 65546 -1 140
Width: 3128
VWidth: 0
Flags: W
AnchorPoint: "ogonek" 2527 0 basechar 0
LayerCount: 2
Fore
SplineSet
2853 1 m 256
 2997 -19 3161 60 3312 243 c 257
 3331 268 3336 281 3337 295 c 256
 3339 327 3309 351 3273 350 c 256
 3261 349 3251 341 3244 332 c 256
 3004 58 2784 62 2792 287 c 256
 2797 434 2912 727 2987 868 c 256
 3004 898 3006 939 2946 952 c 256
 2888 965 2863 946 2829 882 c 256
 2749 733 2637 430 2637 259 c 256
 2637 116 2724 19 2853 1 c 256
2321 791 m 256
 2175 508 1921 134 1653 103 c 256
 1514 87 1403 211 1403 538 c 256
 1403 604 1410 775 1424 803 c 256
 1439 833 1809 1424 1563 1422 c 256
 1447 1421 1285 983 1285 498 c 256
 1285 129 1378 -57 1611 -57 c 257
 1930 -41 2187 277 2435 721 c 256
 2827 1423 2725 1870 2408 1906 c 256
 1719 1984 1810 837 3130 1560 c 256
 3195 1596 3163 1681 3103 1652 c 256
 1943 1101 2020 1865 2382 1778 c 256
 2556 1736 2670 1468 2321 791 c 256
1359 1028 m 257
 1289 831 l 257
 1143 548 899 134 631 103 c 256
 492 87 401 191 401 478 c 256
 401 1014 699 1406 727 1444 c 256
 747 1471 647 1575 541 1422 c 256
 486 1343 242 983 242 498 c 256
 242 129 356 -57 589 -57 c 257
 908 -41 1155 317 1403 761 c 257
 1359 1028 l 257
-52 956 m 258
 618 1372 l 258
 657 1396 620 1497 580 1473 c 258
 -85 1071 l 258
 -146 1034 -113 918 -52 956 c 258
3036 1167 m 256
 3114 1167 3163 1220 3163 1290 c 256
 3163 1342 3121 1380 3056 1380 c 256
 2977 1380 2919 1337 2919 1267 c 256
 2919 1200 2960 1167 3036 1167 c 256
EndSplineSet
Ligature2: "'dlig' Discretionary Ligatures in Latin lookup 6 subtable" W i
EndChar

StartChar: X
Encoding: 56 88 145
Width: 1786
VWidth: 0
Flags: W
LayerCount: 2
Fore
SplineSet
-102 -279 m 256
 105.896 -279 270.988 -205 608.255 178.697 c 256
 935.068 550.621 1459.97 1263.49 1789.99 1598.49 c 256
 1922.27 1731.83 1735.94 1815.96 1676.04 1718.62 c 257
 1344.86 1238.29 857.014 668.471 527.617 272.196 c 256
 284.82 -20 121.904 -102 -124 -102 c 256
 -214 -102 -220 -279 -102 -279 c 256
-17 1318.26 m 256
 383.29 1674.5 455.557 1592.04 538.549 1395.06 c 258
 1121.54 3.06846 l 258
 1246.58 -296 1446 -320 1668.89 -103 c 258
 1988.89 210.426 l 257
 2002.53 221.863 1912.53 292.012 1904.05 283.536 c 258
 1582.19 -20 l 258
 1427.17 -167 1328.21 -99 1246.51 106.841 c 258
 713.511 1456.84 l 258
 604.156 1743.41 324.043 1835.68 -98 1400.48 c 256
 -137 1360.22 -50 1288.99 -17 1318.26 c 256
EndSplineSet
EndChar

StartChar: Y
Encoding: 57 89 146
Width: 1461
VWidth: 0
Flags: W
PickledData: "(dp1
S'com.typemytype.robofont.layerData'
p2
(dp3
s."
LayerCount: 2
Fore
SplineSet
496 -705 m 256
 496 -468 1119.74 204.381 1703.98 614.548 c 256
 1734.31 635.863 1695.19 731.478 1663.92 710.369 c 256
 1279.88 451.346 355 -350 355 -802 c 256
 355 -898 412.177 -972 515 -972 c 256
 866.461 -972 1029.41 -553 1256.22 321.009 c 257
 1533 1501 l 258
 1560 1616 1558 1670 1454 1670 c 256
 1419 1670 1384 1636 1365 1551 c 258
 1153.41 606.245 l 257
 712.951 31.1618 -174 -123 524 1655 c 256
 538 1691 502 1702 464 1702 c 256
 405 1702 381 1666 361 1626 c 256
 -273 390 297.464 -529 1133.42 469.231 c 257
 948.458 -347 697.219 -808 583 -808 c 256
 536.018 -808 496 -779 496 -705 c 256
EndSplineSet
EndChar

StartChar: Z
Encoding: 58 90 151
Width: 1265
VWidth: 0
Flags: W
PickledData: "(dp1
S'com.typemytype.robofont.layerData'
p2
(dp3
s."
LayerCount: 2
Fore
SplineSet
1575 1728 m 257
 575 834 -161 185 -146 68 c 256
 -138 5 -52 -9 52 116 c 257
 486 -125 932 -306 1543 64 c 257
 1594 80 1532 195 1490 173 c 256
 1125 -20 827 -139 138 233 c 257
 507 622 1232 1239 1748 1726 c 257
 1575 1728 l 257
1941 1754 m 256
 1942 1801 1907 1839 1871 1834 c 257
 1467 1834 1024 1882 669 1882 c 256
 59 1882 -196 1595 -196 1274 c 256
 -196 1215 -100 1195 -86 1246 c 256
 -10 1531 84 1734 661 1734 c 256
 867 1734 1226 1684 1727 1684 c 256
 1927 1684 1941 1712 1941 1754 c 256
EndSplineSet
EndChar

StartChar: a
Encoding: 65 97 155
Width: 974
VWidth: 0
Flags: W
PickledData: "(dp1
S'com.typemytype.robofont.layerData'
p2
(dp3
s."
AnchorPoint: "ogonek" 826 -4 basechar 0
LayerCount: 2
Fore
SplineSet
51 252 m 256
 51 107 117 -5 274.895 -17 c 256
 439 -29 625.585 82.1397 656.957 266.328 c 257
 651.038 267.638 l 257
 624.746 104.827 701.747 -4 826 -4 c 256
 974.883 -4 1126.93 135.967 1196.44 232.665 c 256
 1196.47 232.777 1202 241 1198.99 269.362 c 256
 1195.9 293.088 1174.96 358 1158 358 c 257
 1158.27 357.982 1148.89 359.154 1136.58 342.365 c 256
 1086.83 276.701 1000.57 146.829 850.606 126.965 c 256
 770.229 116.313 751.101 210.999 766.94 289.206 c 258
 872.943 824.223 l 258
 881.296 865.985 864.329 892 821 892 c 258
 759.864 892 l 257
 766.182 926.415 765.957 970 648 970 c 256
 318 970 50 545 51 252 c 256
338 104 m 256
 237 98 193 165 193 261 c 256
 192 486 433 871 730.836 840.44 c 257
 620.108 438.061 l 258
 594.247 343.57 497 113 338 104 c 256
EndSplineSet
Substitution2: "'fina' Terminal Forms in Latin lookup 5 subtable" a.fina
Substitution2: "'init' Initial Forms in Latin lookup 4 subtable" a.init
Substitution2: "Single Substitution lookup 2 subtable" ordfeminine
EndChar

StartChar: a.fina
Encoding: 65547 -1 156
Width: 953
VWidth: 0
Flags: W
LayerCount: 2
Fore
SplineSet
315 0 m 256
 450 0 563 86 627 161 c 257
 661 74 707 0 813 0 c 256
 1011 0 1105 54 1253 146 c 257
 1257 154 1259 168 1259 183 c 256
 1259 213 1223 306 1194 306 c 256
 1192 306 1191 306 1189 305 c 256
 1118 275 978.999 191 863 191 c 256
 825 191 800 230 800 324 c 256
 800 490 864 627 864 790 c 256
 864 849 849 883 792 883 c 256
 777 883 762 882 747 882 c 256
 663 882 676 958 603 958 c 256
 557 958 512 948 468 928 c 256
 257 834 64 583 64 281 c 256
 64 123 160 0 315 0 c 256
398 192 m 256
 334 192 320 260 320 324 c 256
 320 508 444 768 631 768 c 257
 570 474 l 258
 551 380 506 192 398 192 c 256
EndSplineSet
EndChar

StartChar: a.init
Encoding: 65548 -1 157
Width: 1025
VWidth: 0
Flags: W
LayerCount: 2
Fore
SplineSet
341 -16 m 256
 481 -16 599 60 656 191 c 257
 671 74 749 0 860 0 c 256
 1023 0 1183 150 1254 250 c 257
 1258 258 1260 272 1260 287 c 256
 1260 342 1235 424 1192 424 c 256
 1180 424 1165 416 1150 399 c 257
 1101 335 981.999 203 885 203 c 256
 840 203 830 254 838 303 c 258
 919 795 l 258
 929 853 897 888 838 888 c 258
 760 888 l 257
 760 915 768 966 641 966 c 256
 364 966 79 648 79 281 c 256
 79 115 179 -16 341 -16 c 256
53 400 m 256
 127 427 223 478 213 484 c 257
 190 660 l 257
 190 660 85 610 6 583 c 256
 -74 555 -20 372 53 400 c 256
407 190 m 256
 326 190 308 260 308 324 c 256
 308 508 467 773 706 773 c 257
 628 474 l 258
 604 380 546 190 407 190 c 256
EndSplineSet
EndChar

StartChar: acute
Encoding: 115 180 161
Width: 609
VWidth: 0
Flags: W
PickledData: "(dp1
S'com.typemytype.robofont.layerData'
p2
(dp3
s."
LayerCount: 2
Fore
SplineSet
237 1235 m 258
 636 1511 l 258
 761 1597 621 1745 534 1636 c 257
 197 1285 l 258
 162 1249 195 1205 237 1235 c 258
EndSplineSet
EndChar

StartChar: ampersand
Encoding: 6 38 168
Width: 1523
VWidth: 0
Flags: W
LayerCount: 2
Fore
SplineSet
1370 -238 m 256
 1496 -238 1575 -176 1575 -157 c 256
 1575 -121 1419 -76 1348 -21 c 257
 1301 17 1255 60 1152 159 c 257
 1327 251 1456 377 1456 538 c 256
 1456 588 1321 664 1294 611 c 257
 1294 453 1203 373 1049 309 c 257
 953 443 808.615 695.914 725.697 873.774 c 257
 889.844 971.102 1090 1147 1090 1385 c 256
 1090 1555 958 1657 782 1657 c 256
 564 1657 378 1488 378 1272 c 256
 378 1120 420 1013 476 912 c 257
 300 820 89 619 89 367 c 256
 89 138 308 0 558 0 c 256
 750 0 896 44 964 74 c 257
 1001 21 1094 -83 1198 -186 c 257
 1244 -233 1309 -238 1370 -238 c 256
566 152 m 256
 426 152 297 256 297 403 c 256
 297 591 446.229 699.893 543.7 771.97 c 257
 650 536 743 386 880 216 c 257
 806 186 696 152 566 152 c 256
684 1001 m 257
 620 1097 605 1194 605 1286 c 256
 605 1403 662 1495 794 1495 c 256
 888 1495 941 1463 941 1362 c 256
 941 1175 771 1049 684 1001 c 257
EndSplineSet
EndChar

StartChar: and
Encoding: 65549 -1 169
Width: 2573
VWidth: 0
Flags: W
LayerCount: 2
Fore
SplineSet
269 284 m 256
 364 284 444 361 489 428 c 257
 517 371 553 322 640 322 c 256
 719 322 788 377 841 441 c 257
 850 392 875 354 942 354 c 256
 980.999 354 996.999 377 1013 415 c 258
 1188 823 l 257
 1200 825 l 257
 1201 745 1203 665 1203 579 c 256
 1203 490 1238 392 1322 392 c 256
 1405 392 1472 459 1520 531 c 257
 1551 476 1609 438 1695 438 c 256
 1802 438 1882 527 1939 598 c 257
 1968 541 2027 483 2119 483 c 256
 2227 483 2319 591 2387 658 c 256
 2400 670 2410 725 2410 772 c 256
 2410 813 2402 849 2381 849 c 256
 2372 849 2361 843 2347 828 c 256
 2296 772 2220 669 2134 669 c 256
 2078 669 2070 728 2070 772 c 256
 2070 819 2070 870 2079 903 c 256
 2143 1119 2251 1329 2251 1623 c 256
 2251 1722 2221 1828 2099 1828 c 256
 2068 1828 2038 1815 2010 1788 c 257
 1878 1680 1820 1398 1815 1133 c 257
 1631 1112 1483 920 1479 672 c 257
 1471 629 1434 553 1398 553 c 256
 1366 553 1349 579 1349 632 c 256
 1349 715 1353 867 1353 1001 c 256
 1353 1059 1325 1109 1259 1109 c 256
 1201 1109 1168 1080 1144 1027 c 257
 1101 947 1061 854 1020 773 c 257
 1005 771 l 257
 1007 821 1012 918 1012 993.999 c 256
 1012 1043 992.999 1077 931 1077 c 256
 827 1077 824 883 824 735 c 258
 824 701 l 258
 824 679 824 658 823 640 c 257
 784 585 721 492 646 492 c 256
 607 492 606 528 606 563 c 256
 606 688 617 792 617 915 c 256
 617 955 605 978.999 556 978.999 c 257
 522 975.999 l 257
 456 975.999 467 1020 409 1020 c 256
 376 1020 344 1008 311 987.999 c 256
 181 912 60 714 60 474 c 256
 60 368 140 284 269 284 c 256
305 -152 m 257
 306 -151 l 257
 754 -78 994.999 26 1443 99.9999 c 257
 1795 180 2000 164 2351 245 c 256
 2358 246 2361 252 2361 259 c 256
 2361 277 2345 304 2327 305 c 256
 2210 310 2115 316 2023 316 c 256
 1910 316 1802 307 1661 275 c 257
 1120 188 821 97.9999 297 -67 c 256
 287 -70 284 -79 284 -91 c 256
 284 -116 300 -152 305 -152 c 257
316 433 m 256
 260 433 248 481 248 526 c 256
 248 673 326 881 444 881 c 257
 422 658 l 258
 415 583 383 433 316 433 c 256
1730 585 m 256
 1679 585 1661 619 1661 666 c 256
 1661 827 1743 967 1830 1022 c 257
 1830 1022 1864 725 1875 705 c 257
 1844 658 1795 585 1730 585 c 256
2012 1009 m 257
 2008 1047 l 257
 2008 1161 2012 1652 2085 1652 c 256
 2118 1652 2119 1617 2119 1583 c 256
 2119 1363 2060 1168 2012 1009 c 257
EndSplineSet
EndChar

StartChar: asciicircum
Encoding: 62 94 174
Width: 1089
VWidth: 0
Flags: W
LayerCount: 2
Fore
SplineSet
933 538 m 256
 988.665 538 1004.53 620.405 985.146 668.858 c 258
 984.955 669.346 l 257
 917.341 847.332 838.009 1017.89 758.296 1175.33 c 256
 717.501 1255.02 670.254 1314 567 1314 c 256
 466.428 1314 421.965 1214.81 370.432 1117.81 c 256
 319.507 1022.95 263.596 916.12 212.664 818.251 c 256
 177.854 750.742 123 690.402 123 621 c 256
 123 571.373 172.968 541 194 541 c 256
 237.98 541 273 582 291.435 616.953 c 256
 310 652 496 1098 567 1176 c 257
 622 1098 790 703 811 654 c 256
 833.751 602.998 876.583 538 933 538 c 256
EndSplineSet
EndChar

StartChar: asciitilde
Encoding: 94 126 175
Width: 864
VWidth: 0
Flags: W
LayerCount: 2
Fore
SplineSet
728 1315 m 256
 834.859 1315 953.999 1451.52 953.999 1557 c 256
 953.999 1590.73 928.382 1610 891 1610 c 256
 799.129 1610 771.793 1491.9 709.895 1438.96 c 257
 593.979 1553.74 l 258
 533.025 1613.66 487.427 1693 392 1693 c 256
 285.141 1693 166 1556.48 166 1451 c 256
 166 1417.27 191.618 1398 229 1398 c 256
 318.832 1398 355.985 1517.72 409.116 1570.02 c 257
 526.021 1454.26 l 258
 586.975 1394.34 632.573 1315 728 1315 c 256
EndSplineSet
EndChar

StartChar: asterisk
Encoding: 10 42 176
Width: 1024
VWidth: 0
Flags: W
LayerCount: 2
Fore
SplineSet
424 884 m 256
 478.01 884 528 911.181 528.003 957.344 c 257
 542 1278 l 257
 779.142 1059.14 l 257
 820.532 1017.75 931 1055.34 931 1133 c 256
 931 1198 775 1250 610 1336 c 257
 714 1349 972.999 1374.5 972.999 1452 c 256
 973 1529.19 891.49 1574.24 844.805 1548.57 c 256
 747.989 1494.11 657 1452 563 1404 c 257
 606 1501 632.77 1603.76 670.026 1714.32 c 256
 685.987 1762.21 662.215 1804 601 1804 c 256
 545.858 1804 498 1778.65 498 1731 c 256
 498 1618.63 483 1514 485 1408 c 257
 391 1490 258.074 1643 203 1643 c 256
 149.71 1643 94 1600.9 94 1551 c 256
 94 1480.18 313 1411 423 1353 c 257
 405 1346 52 1326 52 1235 c 256
 52 1155.85 141.139 1110.72 180.821 1137.24 c 257
 278.081 1188.86 373 1234 463 1287 c 257
 440 1195 351 1065.67 351 943 c 256
 351 903.09 379.89 884 424 884 c 256
EndSplineSet
EndChar

StartChar: at
Encoding: 32 64 177
Width: 2241
VWidth: 0
Flags: W
LayerCount: 2
Fore
SplineSet
890 -360 m 256
 1159 -360 1399 -327 1602 -252 c 257
 1692 -217 1831 -187 1831 -94 c 256
 1831 -35 1806 -19 1765 -38 c 256
 1559 -133 1231 -180 921 -180 c 256
 580 -180 318 -95 318 252 c 256
 318 684 701 1432 1351 1432 c 256
 1730 1432 1942 1227 1942 840 c 256
 1942 621 1832 250 1594 250 c 256
 1543 250 1531 299 1531 334 c 256
 1531 457 1693 768 1693 1031 c 256
 1693 1227 1596 1148 1534 1173 c 257
 1541 1262 l 257
 1540 1234 1540 1221 1540 1213 c 257
 1540 1222 1318 1231 1216 1193 c 256
 922 1086 636 766 636 373 c 256
 636 174 753 47 945 47 c 256
 1145 47 1270 203 1343 352 c 257
 1401 333 l 257
 1380 223 1371 69 1486 69 c 256
 1770 69 2138 401 2138 880 c 256
 2138 1337 1811 1567 1351 1567 c 256
 748 1567 112 956 112 205 c 256
 112 -207 452 -360 890 -360 c 256
1024 186 m 256
 829 186 849 395 880 518 c 256
 984 919 1236 1161 1536 1064 c 257
 1392 570 l 258
 1348 419 1228 186 1024 186 c 256
EndSplineSet
EndChar

StartChar: b
Encoding: 66 98 179
Width: 1086
VWidth: 0
Flags: W
PickledData: "(dp1
S'com.typemytype.robofont.layerData'
p2
(dp3
s."
LayerCount: 2
Fore
SplineSet
502 -16 m 256
 810.952 -16 953.632 283.144 956.115 551.14 c 256
 958.153 771.003 865.831 969.901 693.547 965.454 c 256
 648.969 964.304 599.036 949.539 544 918 c 257
 716 1045 1021 1393 1021 1706 c 256
 1021 1843 951 1920 849 1920 c 256
 449 1920 159 1070 130 375 c 256
 121 167 226 -16 502 -16 c 256
893 373 m 256
 1034 373 1200 460 1295 548 c 256
 1316 568 1319 576 1319 606 c 256
 1319 640 1302 656 1285 656 c 256
 1267 656 1118 503 957 503 c 256
 812 505 891 627 796 620 c 256
 713 614 692 559 692 507 c 256
 692 426 759 373 893 373 c 256
500 115 m 256
 343 115 271 223 271 395 c 256
 271 594 425 837 630 837 c 256
 808 837 817 656 817 527 c 256
 817 345 679 115 500 115 c 256
313 792 m 257
 429 1325 626 1756 806 1756 c 256
 856 1756 876 1720 876 1678 c 256
 876 1339 349 833 313 792 c 257
EndSplineSet
Substitution2: "'fina' Terminal Forms in Latin lookup 5 subtable" b.fina
Substitution2: "'init' Initial Forms in Latin lookup 4 subtable" b.init
EndChar

StartChar: b.fina
Encoding: 65551 -1 180
Width: 1344
VWidth: 0
Flags: W
LayerCount: 2
Fore
SplineSet
483 2 m 256
 746 2 937 336 937 597 c 256
 937 836 825 914 709 914 c 256
 615 914 519 863 478 805 c 257
 462 816 l 257
 625 1014 882 1280 882 1631 c 256
 882 1779 809 1920 624 1920 c 256
 442 1920 352 1662 300 1512 c 256
 165 1123 76 638 58 152 c 257
 59 150 64 145 76 137 c 256
 176 69 318 2 483 2 c 256
452 192 m 256
 401 192 355 208 314 225 c 257
 328 404 360 727 573 727 c 256
 652 727 698 647 698 537 c 256
 698 406 642 192 452 192 c 256
326 865 m 257
 350 993.999 515 1728 615 1728 c 256
 651 1728 666 1683 666 1648 c 256
 666 1318 451 1101 326 865 c 257
EndSplineSet
EndChar

StartChar: b.init
Encoding: 65552 -1 181
Width: 1086
VWidth: 0
Flags: W
LayerCount: 2
Fore
SplineSet
893 353 m 256
 1042 353 1213 427 1299 506 c 256
 1328 533 1333 548 1333 585 c 256
 1333 629 1309 682 1269 682 c 256
 1229 682 1115 563 957 563 c 256
 835 563 866 655 779 742 c 258
 773 748 l 257
 685 706 633 603 633 537 c 256
 633 414 747 353 893 353 c 256
502 -16 m 256
 817 -16 989.999 277 989.999 674 c 256
 989.999 831 924 966 756 966 c 256
 693 966 623 943 557 905 c 257
 701 1036 902 1335 902 1591 c 256
 902 1784 862 1920 668 1920 c 256
 282 1920 99.9999 688 99.9999 408 c 256
 99.9999 206 226 -16 502 -16 c 256
528 176 m 256
 390 176 337 296 337 428 c 256
 337 591 424 774 606 774 c 256
 718 774 763 675 763 557 c 256
 763 386 667 176 528 176 c 256
360 845 m 257
 383 968.999 501 1728 659 1728 c 256
 695 1728 710 1683 710 1648 c 256
 710 1330 478 1072 360 845 c 257
EndSplineSet
EndChar

StartChar: backslash
Encoding: 60 92 182
Width: 1248
VWidth: 0
Flags: W
LayerCount: 2
Fore
SplineSet
1081 -48 m 256
 1129 -48 1157 -27 1157 16 c 256
 1157 122 673 1113 448 1612 c 256
 398 1725 370 1860 253 1860 c 256
 156 1860 154 1757 199 1660 c 257
 428 1148 666 542 922 39 c 256
 946 -10 1005 -48 1081 -48 c 256
EndSplineSet
EndChar

StartChar: bar
Encoding: 92 124 183
Width: 1248
VWidth: 0
Flags: W
LayerCount: 2
Fore
SplineSet
535 -29 m 257
 632 -60 713 15 725 103 c 256
 771 416 818.272 768.678 866.279 1083.73 c 256
 899.52 1304.33 972 1555 972 1772 c 256
 972 1819 944 1864 902 1864 c 256
 815 1864 762 1804 750 1724 c 257
 707 1461 649.679 1144.01 606.695 873.106 c 257
 537 402 443 12 535 -29 c 257
EndSplineSet
EndChar

StartChar: braceleft
Encoding: 91 123 185
Width: 1153
VWidth: 0
Flags: W
LayerCount: 2
Fore
SplineSet
570 -313 m 256
 727 -313 994 -258 994 -113 c 256
 994 -64 970 -33 926 -33 c 256
 839 -33 793 -107 675 -107 c 256
 577 -107 555 -25 555 60 c 256
 555 212 602 381.977 602 534 c 256
 602 688 554 745 402 762 c 257
 530 772 596.578 872.503 636.63 976.879 c 256
 692.516 1123.95 670 1621 900 1621 c 256
 1004 1621 1092 1589 1183 1589 c 256
 1235 1589 1280 1642 1280 1697 c 256
 1280 1714 1273 1728 1262 1736 c 257
 1263 1736 l 257
 1175 1802 1035 1827 877 1827 c 256
 609 1827 491 1656 512 1176 c 257
 512 1011.03 446.345 899.415 254.641 895.008 c 256
 196.49 893.517 157 808.746 157 735 c 256
 157 687.534 172.14 657 209 657 c 256
 338.916 657 390 559.375 390 439 c 256
 390 267 337 139 337 -3 c 256
 337 -178 406 -313 570 -313 c 256
EndSplineSet
EndChar

StartChar: braceright
Encoding: 93 125 186
Width: 1248
VWidth: 0
Flags: W
LayerCount: 2
Fore
SplineSet
450 -317 m 256
 494.724 -317 533.985 -307 574.408 -286 c 256
 776.829 -180 808.26 69.6329 855.354 350.195 c 256
 872.944 453.533 950.114 537 1073 537 c 256
 1135.25 537 1168 613.031 1168 688 c 256
 1168 737.315 1152.56 774.356 1117.53 775.004 c 256
 1000.69 777.209 930 818.981 930 943 c 256
 930 1116.31 991 1279 991 1440 c 256
 991 1613 918 1744 757 1744 c 256
 591 1744 299 1718 299 1577 c 256
 299 1535 322 1506 359 1506 c 256
 453 1506 545 1538 652 1538 c 256
 751 1538 773 1461 773 1375 c 256
 773 1227 727 1062.97 727 916 c 256
 727 757.696 786 679 930 668 c 257
 796 653 733 588 693.1 491.441 c 256
 635.18 351.468 651.921 -111 427 -111 c 256
 313 -111 207 -34 186.673 -37 c 256
 131.438 -45 89 -100 89 -163 c 256
 89 -265 326.56 -317 450 -317 c 256
EndSplineSet
EndChar

StartChar: bracketleft
Encoding: 59 91 187
Width: 927
VWidth: 0
Flags: W
LayerCount: 2
Fore
SplineSet
353 -162 m 258
 671 -162 l 258
 728.906 -162 798 -102 798 -51 c 256
 798 -21 774.587 2 745 2 c 258
 423.828 2 l 257
 461.655 238.151 499.536 488.441 536.331 734.444 c 256
 572.163 973.673 648.593 1245.74 641.544 1473 c 257
 958 1473 l 258
 1005.24 1473 1058 1517.15 1058 1561 c 256
 1058 1603.53 1030.54 1637 989.999 1637 c 258
 672 1637 l 258
 506.843 1637 443.904 1547.66 421.616 1410.22 c 256
 358.772 1021.18 321.762 632.07 257.57 252.938 c 256
 238.09 139.132 206 53.56 206 -53 c 256
 206 -134 257.261 -162 353 -162 c 258
EndSplineSet
EndChar

StartChar: bracketright
Encoding: 61 93 188
Width: 927
VWidth: 0
Flags: W
LayerCount: 2
Fore
SplineSet
108 -162 m 258
 416 -162 l 258
 581.157 -162 644.096 -73 666.384 64.7841 c 256
 729.215 453.737 764.232 843.928 830.43 1223.06 c 256
 849.92 1336.92 882 1421.5 882 1528 c 256
 882 1608.7 830.739 1637 735 1637 c 258
 389 1637 l 258
 339.569 1637 294 1590.73 294 1544 c 256
 294 1507.14 330.707 1473 369 1473 c 258
 663.949 1473 l 257
 551.669 740.556 l 258
 515.837 501.327 439.407 229.256 446.456 2 c 257
 119 2 l 258
 76.3638 2 30 -40 30 -80 c 256
 30 -124 64.4862 -162 108 -162 c 258
EndSplineSet
EndChar

StartChar: breve
Encoding: 401 728 189
Width: 600
VWidth: 0
Flags: W
LayerCount: 2
Fore
SplineSet
502 1542 m 256
 486 1311 147 1294 164 1510 c 256
 169 1582 61 1576 57 1521 c 256
 47 1375 142 1263 283 1263 c 256
 464 1263 593 1362 606 1548 c 256
 609 1600 505 1585 502 1542 c 256
EndSplineSet
EndChar

StartChar: brokenbar
Encoding: 101 166 191
Width: 1025
VWidth: 0
Flags: W
LayerCount: 2
Fore
SplineSet
459 -132 m 256
 509.333 -132 528.242 -110 536.416 -59 c 256
 553.398 41.87 562.3 97.2643 593.255 341.901 c 256
 601.441 404.325 624 502.406 624 585 c 256
 624 660.084 593.248 719 533 719 c 256
 472.728 719 438.318 666.678 429.681 603.639 c 256
 398.282 389.922 338 213.029 338 0.999999 c 256
 338 -109 375.965 -132 459 -132 c 256
615 973 m 256
 673.3 973 696.998 1024.02 705.217 1091.6 c 256
 727.457 1275.58 778 1470.82 778 1668 c 256
 778 1748.18 750.311 1824 691 1824 c 256
 646.021 1824 616.774 1777.69 604.232 1721.25 c 256
 556.595 1514.83 511 1134.21 511 1097 c 256
 511 1029 553.996 973 615 973 c 256
EndSplineSet
EndChar

StartChar: bullet
Encoding: 454 8226 192
Width: 1120
VWidth: 0
Flags: W
LayerCount: 2
Fore
SplineSet
512 281 m 256
 710.17 281 834 460.275 834 672 c 256
 834 805.224 770.922 866 640 866 c 256
 445.523 866 286 737.582 286 544 c 256
 286 381.839 361.181 281 512 281 c 256
EndSplineSet
EndChar

StartChar: c
Encoding: 67 99 193
Width: 848
VWidth: 0
Flags: W
PickledData: "(dp1
S'com.typemytype.robofont.layerData'
p2
(dp3
s."
LayerCount: 2
Fore
SplineSet
415 -16 m 256
 727 -32 934 142 1041 328 c 256
 1062 365 1028 423 1002 395 c 256
 846 228 674 93 450 109 c 256
 315 119 242 236 244 395 c 256
 248 696 464 833 569 831 c 256
 638 829 674 784 675 725 c 256
 675 682 656 631 617 584 c 256
 590 551 646 477 709 532 c 256
 751 568 797 624 802 742 c 256
 809 876 708 966 564 966 c 256
 318 966 101 688 76 410 c 256
 55 184 194 -5 415 -16 c 256
EndSplineSet
Substitution2: "'fina' Terminal Forms in Latin lookup 5 subtable" c.fina
Substitution2: "'init' Initial Forms in Latin lookup 4 subtable" c.init
EndChar

StartChar: c.fina
Encoding: 65553 -1 194
Width: 756
VWidth: 0
Flags: W
LayerCount: 2
Fore
SplineSet
483 -2 m 256
 806 -2 1033 209 1134 317 c 256
 1148 333 1152 360 1152 386 c 256
 1152 423 1104 477 1051 477 c 256
 1038 477 1025 466 1005 447 c 256
 900 348 720 188 527 188 c 256
 376 188 320 279 320 414 c 256
 320 566 351 768 502 768 c 256
 527 768 529 739 529 712 c 256
 529 690 526 660 526 638 c 256
 526 578 540 544 602 544 c 256
 691 544 736 638 736 729 c 256
 736 874 621 960 474 960 c 256
 209 960 64 682 64 413 c 256
 64 162 215 -2 483 -2 c 256
EndSplineSet
EndChar

StartChar: c.init
Encoding: 65554 -1 195
Width: 827
VWidth: 0
Flags: W
LayerCount: 2
Fore
SplineSet
438 -16 m 256
 705 -33 884 147 964 267 c 256
 1002 324 942 427 880 374 c 256
 753 266 637 139 478 154 c 256
 358 165 281 251 283 395 c 256
 287 675 471 790 563 788 c 256
 651 786 669 669 589 573 c 256
 540 515 629 397 723 479 c 256
 768 518 821 580 827 711 c 256
 834 863 718 966 559 966 c 256
 294 966 92 703 66 413 c 256
 44 169 201 -1 438 -16 c 256
-6 373 m 256
 68 400 164 451 154 457 c 257
 131 633 l 257
 131 633 26 583 -53 556 c 256
 -133 528 -79 345 -6 373 c 256
EndSplineSet
EndChar

StartChar: c_t
Encoding: 65555 -1 196
Width: 1720
VWidth: 0
Flags: W
LayerCount: 2
Fore
SplineSet
438 -16 m 256
 884 -40 1106 409 1240 707 c 257
 1176 820 l 257
 1025 477 763 124 478 154 c 256
 358 167 281 251 283 395 c 256
 287 675 471 790 563 788 c 256
 651 786 669 669 589 573 c 256
 540 515 629 397 723 479 c 256
 768 518 821 580 827 711 c 256
 834 863 718 966 559 966 c 256
 294 966 92 703 66 413 c 256
 44 169 201 -3 438 -16 c 256
1307 -9 m 256
 1472 -9 1621 62 1783 243 c 256
 1882 352 1739 450 1680 383 c 256
 1579 269 1461 177 1356 177 c 256
 1203 177 1230 476 1257 672 c 257
 1539 882 1810 1258 1838 1626 c 256
 1847 1732 1803 1822 1686 1824 c 256
 1310 1828 1078 1073 1031 635 c 256
 996.999 311 1057 -9 1307 -9 c 256
1146 636 m 257
 1229 672 1552 773 1735 792 c 256
 1825 801 1783 978.999 1682 965 c 256
 1532 947 1328 888 1097 796 c 257
 1146 636 l 257
1277 827 m 257
 1317 1086 1441 1583 1649 1582 c 256
 1668 1581 1676 1563 1672 1540 c 257
 1642 1276 1456 1022 1277 827 c 257
EndSplineSet
Ligature2: "'dlig' Discretionary Ligatures in Latin lookup 6 subtable" c t
EndChar

StartChar: caron
Encoding: 399 711 198
Width: 864
VWidth: 0
Flags: W
LayerCount: 2
Fore
SplineSet
623 2231 m 258
 553 2132 519 2046 421 2054 c 256
 349 2060 352 2128 333 2283 c 258
 298 2562 l 258
 287 2653 325 2670 358 2670 c 256
 424 2670 398 2518 452 2168 c 257
 728 2576 l 258
 776 2647 803 2674 853 2666 c 256
 911 2657 888 2605 870 2580 c 258
 623 2231 l 258
EndSplineSet
EndChar

StartChar: cedilla
Encoding: 119 184 204
Width: 1184
VWidth: 0
Flags: W
LayerCount: 2
Fore
SplineSet
531 -357 m 258
 661 22 l 258
 671 51 639 67 618 34 c 258
 397 -312 l 258
 320 -432 481 -502 531 -357 c 258
EndSplineSet
EndChar

StartChar: cent
Encoding: 97 162 205
Width: 896
VWidth: 0
Flags: W
LayerCount: 2
Fore
SplineSet
480 -168 m 256
 541 -168 539 -165 547 -125 c 257
 567 40 l 257
 640 40 776 115 860 184 c 256
 873 195 879 204 879 218 c 256
 879 261 851 301 829 283 c 256
 768 236 652 173 577 164 c 257
 598 381 607 594 621 799 c 257
 833 784 700 574 797 574 c 256
 852 574 881 655 881 729 c 256
 881 854 754 918 630 928 c 257
 634 1000 648 1105 612 1105 c 256
 587 1105 554 1101 545.885 1031.54 c 257
 536.628 928.174 l 257
 285.685 914.566 94 691.323 94 413 c 256
 94 182.704 226.748 17.888 460.075 30.6609 c 257
 458.569 -40 453 -52 453 -89 c 256
 453 -129 456.966 -168 480 -168 c 256
471.331 161.362 m 257
 335.176 168.445 245 285 245 414 c 256
 245 595 366.727 759.125 524.791 791.337 c 257
 506.586 587.509 488.277 367.224 471.331 161.362 c 257
EndSplineSet
EndChar

StartChar: ch
Encoding: 65557 -1 206
Width: 1835
VWidth: 0
Flags: W
LayerCount: 2
Fore
SplineSet
388 -19 m 256
 537 -19 704 71 794 194 c 257
 802 203 806 215 806 228 c 256
 806 269 770 322 729 322 c 256
 718 322 706 318 695 308 c 257
 640 249 532 182 444 182 c 256
 350 182 274 240 274 414 c 256
 274 560 363 733 460 788 c 257
 460 788 562 650 649 650 c 256
 690 650 766 703 766 782 c 256
 766 877 645 946 528 958 c 257
 420 1034 392 1080 392 1126 c 256
 392 1248 560 1285 611 1285 c 256
 729 1285 845 1236 972.999 1217 c 257
 913 915 899 562 899 223 c 256
 899 126 901 0 995.999 0 c 256
 1034 0 1050 19 1066 44 c 256
 1127 141 1167 258 1228 354 c 256
 1297 462 1385 614 1483 677 c 257
 1504 674 l 257
 1502 672 1498 663 1491 648 c 256
 1440 534 1381 384 1381 226 c 256
 1381 99.9999 1465 0 1595 0 c 256
 1780 0 1936 134 2047 212 c 257
 2054 222 2064 319 2064 384 c 256
 2064 427 2056 458 2035 458 c 256
 2026 458 2014 453 2000 438 c 257
 1925 367 1808 236 1665 236 c 256
 1636 236 1631 269 1631 301 c 256
 1631 503 1752 673 1752 868 c 256
 1752 931 1724 977.999 1665 977.999 c 256
 1633 977.999 1598 966 1562 942 c 256
 1443 865 1340 774 1255 662 c 257
 1114 436 l 257
 1118 739 1127 973.999 1188 1219 c 257
 1465 1268 1633 1508 1633 1696 c 256
 1633 1809 1561 1928 1415 1928 c 256
 1290 1928 1204 1803 1146 1706 c 256
 1096 1623 1055 1526 1023 1420 c 257
 886 1465 735 1485 621 1485 c 256
 513 1485 206 1378 206 1173 c 256
 206 1100 280 1015 355 932 c 257
 178 827 53 587 53 376 c 256
 53 89 208 -19 388 -19 c 256
1249 1430 m 257
 1284 1546 1335 1729 1406 1729 c 256
 1417 1729 1422 1721 1422 1707 c 256
 1422 1651 1341 1505 1249 1430 c 257
EndSplineSet
EndChar

StartChar: circumflex
Encoding: 398 710 207
Width: 864
VWidth: 0
Flags: W
LayerCount: 2
Fore
SplineSet
697 2212 m 256
 758 2193 811 2224 804 2295 c 258
 772 2642 l 258
 761 2757 768 2818 674 2828 c 256
 583 2838 544 2777 472 2679 c 256
 311 2459 187 2301 182 2275 c 256
 174 2240 189 2216 234 2216 c 256
 294 2216 321 2253 365 2327 c 257
 634 2716 l 257
 673 2302 627 2234 697 2212 c 256
EndSplineSet
EndChar

StartChar: ck
Encoding: 65558 -1 208
Width: 1793
VWidth: 0
Flags: W
LayerCount: 2
Fore
SplineSet
920 -9 m 256
 1083 -9 1289 624 1435 694 c 256
 1442 697 1463 701 1487 701 c 256
 1526 701 1573 691 1573 651 c 256
 1573 528 1209 483 1209 266 c 256
 1209 118 1324 -4 1467 -4 c 256
 1648 -4 1868 151 1966 261 c 257
 1977 262 1983 296 1983 338 c 256
 1983 387 1922 441 1886 462 c 257
 1832 410 1611 182 1487 182 c 256
 1445 182 1410 212 1410 246 c 256
 1410 380 1794 426 1794 704 c 258
 1794 716 l 258
 1794 851 1695 941 1555 941 c 256
 1274 941 1182 615 1053 419 c 257
 1069 710 l 258
 1079 885 1099 1059 1139 1219 c 257
 1416 1268 1584 1508 1584 1696 c 256
 1584 1809 1512 1928 1366 1928 c 256
 1241 1928 1155 1803 1097 1706 c 256
 1047 1623 1006 1526 973.999 1420 c 257
 812 1467 725 1485 584 1485 c 256
 425 1485 188 1370 188 1173 c 256
 188 1100 261 1015 336 932 c 257
 159 855 64 631 64 413 c 256
 64 177 199 0 437 0 c 256
 655 0 744 108 784 221 c 256
 786 226 786 231 786 236 c 256
 786 266 760 298 728 298 c 256
 714 298 700 292 685 277 c 256
 636 227 559 190 488 190 c 256
 399 190 320 249 320 414 c 256
 320 566 344 768 462 768 c 257
 462 768 544 650 631 650 c 256
 672 650 748 703 748 782 c 256
 748 877 626 946 509 958 c 257
 439 1025 381 1082 381 1177 c 256
 381 1238 432 1288 501 1288 c 256
 620 1288 793 1234 924 1217 c 257
 864 915 850 569 850 230 c 256
 850 140 859 -9 920 -9 c 256
1200 1430 m 257
 1235 1546 1286 1729 1357 1729 c 256
 1368 1729 1373 1721 1373 1707 c 256
 1373 1651 1292 1505 1200 1430 c 257
EndSplineSet
EndChar

StartChar: colon
Encoding: 26 58 209
Width: 704
VWidth: 0
Flags: W
LayerCount: 2
Fore
SplineSet
484 0 m 256
 586 0 642 62 642 161 c 256
 642 250 595 293 503 293 c 256
 404 293 350 232 350 132 c 256
 350 42 394 0 484 0 c 256
544 668 m 256
 646 668 702 730 702 829 c 256
 702 918 655 961 563 961 c 256
 464 961 410 900 410 800 c 256
 410 710 454 668 544 668 c 256
EndSplineSet
EndChar

StartChar: comma
Encoding: 12 44 210
Width: 849
VWidth: 0
Flags: W
LayerCount: 2
Fore
SplineSet
278 -178 m 256
 388 -147 549 45 549 207 c 256
 549 265 526 315 460 306 c 256
 403 299 383 273 378 234 c 256
 361 98 308 -35 243 -144 c 256
 228 -171 249 -186 278 -178 c 256
EndSplineSet
EndChar

StartChar: copyright
Encoding: 104 169 213
Width: 1792
VWidth: 0
Flags: W
LayerCount: 2
Fore
SplineSet
843 337 m 256
 976 337 1080 397 1161 456 c 256
 1171 464 1178 475 1178 493 c 256
 1178 542 1156 568 1135 561 c 257
 1077 525 987 467 892 467 c 256
 766 467 721 573 721 685 c 256
 721 831 769 1037 934 1037 c 256
 1009 1037 978 916 978 876 c 256
 978 835 986 824 1020 824 c 256
 1088 824 1129 903 1129 983 c 256
 1129 1097 1036 1166 915 1166 c 256
 699 1166 540 934 540 667 c 256
 540 490 625 337 843 337 c 256
851 146 m 256
 510 146 249 312 249 652 c 256
 249 1063 556 1346 973 1346 c 256
 1303 1346 1515 1176 1515 850 c 256
 1515 454 1255 146 851 146 c 256
847 30 m 256
 1215 30 1657 300 1657 855 c 256
 1657 1246 1409 1464 1011 1464 c 256
 506 1464 106 1163 106 664 c 256
 106 253 420 30 847 30 c 256
EndSplineSet
EndChar

StartChar: currency
Encoding: 99 164 214
Width: 1472
VWidth: 0
Flags: W
LayerCount: 2
Fore
SplineSet
1117 347 m 256
 1148 347 1187 387 1187 420 c 257
 1186 435 1172 458 1139 489 c 257
 1017 598 l 257
 1206 788 1277 1172 1180 1357 c 257
 1317 1450 l 258
 1355 1476 1382 1494 1382 1527 c 256
 1382 1558 1356 1590 1329 1590 c 256
 1252 1590 1164 1492 1102 1457 c 257
 966 1574 720 1565 564 1468 c 257
 428 1588 l 258
 399 1613 375 1625 359 1625 c 256
 327 1625 288 1584 288 1553 c 256
 288 1526 308 1509 337 1483 c 258
 453 1377 l 257
 284 1191 232 818 333 641 c 257
 159 522 l 257
 121 494 94 476 94 444 c 256
 94 413 120 381 146 381 c 256
 193 381 326 482 411 543 c 257
 542 426 752 428 901 511 c 257
 953 475 1038 347 1117 347 c 256
696 585 m 256
 528 585 442 706 442 901 c 256
 442 1156.68 576 1410 839 1410 c 256
 983 1410 1061 1295 1046 1125 c 257
 1046 890.523 945 585 696 585 c 256
EndSplineSet
EndChar

StartChar: d
Encoding: 68 100 215
Width: 1156
VWidth: 0
Flags: W
PickledData: "(dp1
S'com.typemytype.robofont.layerData'
p2
(dp3
s."
LayerCount: 2
Fore
SplineSet
336 -16 m 256
 502 -22 629 124 677 273 c 257
 696 84 819 -8 949 -8 c 256
 1155 -8 1279 123 1372 239 c 256
 1380 250 1392 271 1390 290 c 256
 1388 324 1360 346 1332 345 c 256
 1314 345 1308 337 1293 321 c 257
 1220 217 1101 121 960 121 c 256
 855 121 788 210 799 426 c 257
 1026 761 1450 1312 1419 1757 c 256
 1413 1843 1342 1921 1244 1921 c 256
 972 1921 788 1509 704 930 c 257
 408 1063 55 628 80 267 c 256
 91 102 194 -11 336 -16 c 256
386 118 m 256
 302 108 239 155 229 297 c 256
 212 542 437 894 700 820 c 257
 662 533 l 257
 631 334 514 133 386 118 c 256
812 619 m 257
 871 1027 978 1740 1193 1740 c 256
 1231 1740 1270 1717 1274 1649 c 256
 1294 1364 1080 1013 812 619 c 257
EndSplineSet
Substitution2: "'fina' Terminal Forms in Latin lookup 5 subtable" d.fina
Substitution2: "'init' Initial Forms in Latin lookup 4 subtable" d.init
EndChar

StartChar: d.fina
Encoding: 65559 -1 216
Width: 1036
VWidth: 0
Flags: W
LayerCount: 2
Fore
SplineSet
382 -21 m 256
 713 -21 933 465 933 1113 c 256
 933 1564 751 1818 383 1818 c 256
 239 1818 92 1767 -31 1658 c 256
 -77 1617 -90 1585 -90 1566 c 256
 -90 1516 -58 1497 -21 1497 c 256
 -2 1497 19 1500 31 1505 c 257
 134 1588 248 1627 352 1627 c 256
 596 1627 689 1438 689 1207 c 256
 689 1112 679 1009 663 910 c 257
 359 904 39 664 39 275 c 256
 39 91 174 -21 382 -21 c 256
366 191 m 256
 307 191 286 240 286 308 c 256
 286 510 455 687 637 756 c 257
 637 756 585 191 366 191 c 256
EndSplineSet
EndChar

StartChar: d.init
Encoding: 65560 -1 217
Width: 1128
VWidth: 0
Flags: W
LayerCount: 2
Fore
SplineSet
298 -16 m 256
 450 -16 559 57 625 193 c 257
 673 61 774 -8 896 -8 c 256
 1112 -8 1266 130 1371 248 c 256
 1381 260 1401 290 1401 318 c 256
 1401 371 1358 404 1315 403 c 256
 1296 403 1283 402 1271 389 c 256
 1214 326 1067 175 936 175 c 256
 852 175 801 260 824 454 c 257
 1080 788 1517 1273 1517 1727 c 256
 1517 1828 1440 1921 1320 1921 c 256
 1025 1921 820 1520 690 951 c 257
 379 1052 36 648 36 283 c 256
 36 102 146 -16 298 -16 c 256
9 378 m 256
 83 405 179 456 169 462 c 257
 146 638 l 257
 146 638 41 588 -38 561 c 256
 -118 533 -64 350 9 378 c 256
364 190 m 256
 323 190 265 207 265 325 c 256
 265 527 437 773 663 773 c 257
 612 551 l 258
 545 261 465 190 364 190 c 256
855 739 m 257
 943 1141 1065 1680 1255 1680 c 256
 1281 1680 1301 1667 1301 1619 c 256
 1301 1344 1068 1038 855 739 c 257
EndSplineSet
EndChar

StartChar: dagger
Encoding: 452 8224 218
Width: 1152
VWidth: 0
Flags: W
LayerCount: 2
Fore
SplineSet
352 255 m 256
 442 255 488 291 506 368 c 256
 558 586 612 826 660 1055 c 257
 920 1055 l 258
 983.999 1055 1024 1071 1024 1137 c 256
 1024 1189 989.999 1216 939 1216 c 258
 694 1216 l 257
 717 1323 750 1415 750 1525 c 256
 750 1572 734 1606 687 1606 c 256
 500 1606 507 1370 470 1216 c 257
 234 1216 l 258
 175 1216 128 1188 128 1129 c 256
 128 1070 162 1055 224 1055 c 258
 433 1055 l 257
 385 854 l 258
 348 698 280 529 280 369 c 256
 280 312 295 255 352 255 c 256
EndSplineSet
EndChar

StartChar: daggerdbl
Encoding: 453 8225 219
Width: 1152
VWidth: 0
Flags: W
LayerCount: 2
Fore
SplineSet
352 255 m 256
 532 255 527 457 562 608 c 257
 824 608 l 258
 888 608 928 624 928 690 c 256
 928 742 894 769 843 769 c 258
 598 769 l 257
 619 862 640 961 660 1055 c 257
 920 1055 l 258
 983.999 1055 1024 1071 1024 1137 c 256
 1024 1189 989.999 1216 939 1216 c 258
 694 1216 l 257
 717 1323 750 1415 750 1525 c 256
 750 1572 734 1606 687 1606 c 256
 500 1606 507 1370 470 1216 c 257
 234 1216 l 258
 175 1216 128 1188 128 1129 c 256
 128 1070 162 1055 224 1055 c 258
 433 1055 l 257
 364 769 l 257
 138 769 l 258
 79 769 32 741 32 682 c 256
 32 623 66 608 128 608 c 258
 326 608 l 257
 307 524 280 453 280 369 c 256
 280 312 295 255 352 255 c 256
EndSplineSet
EndChar

StartChar: degree
Encoding: 111 176 224
Width: 737
VWidth: 0
Flags: W
LayerCount: 2
Fore
SplineSet
324 1183 m 256
 247.035 1183 195 1241.38 195 1316 c 256
 195 1433 296.333 1509 413 1509 c 256
 483.367 1509 529 1454.24 529 1388 c 256
 529 1276.86 437.429 1183 324 1183 c 256
324 1075 m 256
 514.897 1075 652 1207.51 652 1403 c 256
 652 1531.31 566.06 1612 440 1612 c 256
 256.981 1612 84 1498.16 84 1317 c 256
 84 1165.54 178.082 1075 324 1075 c 256
EndSplineSet
EndChar

StartChar: dieresis
Encoding: 103 168 225
Width: 1025
VWidth: 0
Flags: W
LayerCount: 2
Fore
SplineSet
312 1331 m 256
 385 1331 425 1382 425 1453 c 256
 425 1520 390 1557 324 1557 c 256
 251 1557 213 1507 213 1435 c 256
 213 1366 246 1331 312 1331 c 256
740 1331 m 256
 813 1331 853 1382 853 1453 c 256
 853 1520 818 1557 752 1557 c 256
 679 1557 641 1507 641 1435 c 256
 641 1367 676 1331 740 1331 c 256
EndSplineSet
EndChar

StartChar: divide
Encoding: 182 247 226
Width: 1025
VWidth: 0
Flags: W
LayerCount: 2
Fore
SplineSet
218 545 m 258
 820 545 l 258
 891 545 927 587 927 660 c 256
 927 710 888 737 832 737 c 258
 234 737 l 258
 162 737 94.9999 703 94.9999 635 c 256
 94.9999 573 153 545 218 545 c 258
478 121 m 256
 597 121 666 197 666 312 c 256
 666 418 605 474 497 474 c 256
 380 474 314 398 314 283 c 256
 314 176 372 121 478 121 c 256
538 793 m 256
 657 793 726 869 726 983.999 c 256
 726 1090 665 1146 557 1146 c 256
 440 1146 374 1070 374 955 c 256
 374 848 432 793 538 793 c 256
EndSplineSet
EndChar

StartChar: dollar
Encoding: 4 36 227
Width: 1735
VWidth: 0
Flags: W
LayerCount: 2
Fore
SplineSet
820 -222 m 257
 888 -223 919 -213 931 -175 c 257
 964 4 l 257
 1265 26 1505 168 1505 484 c 256
 1505 723 1298.84 858.188 1135.41 953.087 c 257
 1239 1575 l 257
 1331 1562 1482 1513 1482 1397 c 256
 1482 1328 1522 1275 1584 1275 c 256
 1642 1275 1672 1328 1672 1397 c 256
 1672 1604 1451 1699 1264 1731 c 257
 1283 1847 l 258
 1294 1920 1302 1982 1250 1982 c 256
 1185 1982 1139 1944 1131 1891 c 257
 1105 1742 l 257
 814 1736 521 1599 521 1317 c 256
 521 1082 782.932 957.127 950.838 866.492 c 257
 821 160 l 257
 656 169 464 220 464 397 c 256
 464 517 519 600 640 600 c 256
 678 600 701 623 701 657 c 256
 701 703 663 730 610 730 c 256
 402 730 275 598 275 394 c 256
 275 119 523 20 793 4 c 257
 775 -81 750 -222 820 -222 c 257
982.812 1039.76 m 257
 910.562 1091.16 742 1187 742 1347 c 256
 742 1517 933 1574 1076 1582 c 257
 1048 1416 1014 1235 982.812 1039.76 c 257
995 168 m 257
 1106.11 783.584 l 257
 1169 709 1315 638 1315 484 c 256
 1315 288 1146 196 995 168 c 257
EndSplineSet
EndChar

StartChar: dotaccent
Encoding: 402 729 229
Width: 704
VWidth: 0
Flags: W
LayerCount: 2
Fore
SplineSet
349 2273 m 256
 426 2273 481 2329 481 2408 c 256
 481 2473 433 2518 365 2518 c 256
 289 2518 236 2462 236 2384 c 256
 236 2319 283 2273 349 2273 c 256
EndSplineSet
EndChar

StartChar: dotlessi
Encoding: 240 305 231
Width: 537
VWidth: 0
Flags: W
PickledData: "(dp1
S'com.typemytype.robofont.layerData'
p2
(dp3
s."
LayerCount: 2
Fore
SplineSet
356 1 m 256
 500 -19 677 60 828 243 c 257
 847 268 852 281 853 295 c 256
 855 327 825 351 789 350 c 256
 777 349 767 341 760 332 c 256
 520 58 308 64 308 292 c 256
 308 439 429 759 504 900 c 256
 521 930 483 953 444 953 c 256
 386 953 355 946 321 882 c 256
 241 733 140 430 140 259 c 256
 140 116 227 19 356 1 c 256
EndSplineSet
EndChar

StartChar: dotlessj
Encoding: -1 567 232
Width: 666
VWidth: 0
Flags: W
LayerCount: 2
Fore
SplineSet
235 -607 m 256
 459 -640 578 -338 581 -54 c 256
 583 119 553 309 483 394 c 257
 704 411 920 438 920 599 c 256
 920 624 915 631 896 621 c 257
 785 570 640 506 337 506 c 257
 443 743 l 258
 466 795 500 866 504 924 c 256
 506 945 496 956 474 956 c 256
 407 956 372 927 333 835 c 256
 236 608 86 272 62.8815 -3 c 256
 40 -270 64 -582 235 -607 c 256
277 -485 m 256
 209 -485 184 -367 194 -139 c 256
 204 95 287 363 319 455 c 257
 439 332 452 175 452 -22 c 256
 452 -270 380 -485 277 -485 c 256
EndSplineSet
EndChar

StartChar: e
Encoding: 69 101 235
Width: 771
VWidth: 0
Flags: W
PickledData: "(dp1
S'com.typemytype.robofont.layerData'
p2
(dp3
s."
AnchorPoint: "ogonek" 610 0 basechar 0
LayerCount: 2
Fore
SplineSet
443 -17 m 256
 702 -26 946 145 1034 265 c 256
 1075 320 1010 374 990 354 c 256
 679 46 278 15 227 318 c 257
 574 367 788 537 788 746 c 256
 788 883 670 967 531 967 c 256
 270 967 74 699 74 385 c 256
 73 148 235 -10 443 -17 c 256
224 434 m 257
 226 607 366 846 543 846 c 256
 602 846 667 802 657 709 c 256
 643 563 381 445 224 434 c 257
EndSplineSet
Substitution2: "'fina' Terminal Forms in Latin lookup 5 subtable" e.fina
Substitution2: "'init' Initial Forms in Latin lookup 4 subtable" e.init
EndChar

StartChar: e.fina
Encoding: 65563 -1 236
Width: 1054
VWidth: 0
Flags: W
LayerCount: 2
Fore
SplineSet
567 -11 m 256
 806 -11 1044.1 121.522 1172.29 238.48 c 257
 1186.74 248.954 1194 265.069 1194 280 c 256
 1194 314.705 1164.47 350 1131 350 c 256
 1120.25 350 1111.62 347.126 1100.45 338.346 c 256
 1015.94 271.143 790 120 594 120 c 256
 486 120 351.167 180.404 324.553 303.761 c 257
 519.472 346.798 795 503.292 795 720 c 256
 795 862.207 697.097 939 552 939 c 256
 271.674 939 124 679.716 124 417 c 256
 124 106.775 344 -11 567 -11 c 256
315.095 409.447 m 257
 303.745 546.099 380.196 791 564 791 c 256
 623.085 791 657 736.736 657 678 c 256
 657 530.113 382.804 431.39 315.095 409.447 c 257
EndSplineSet
EndChar

StartChar: e.init
Encoding: 65564 -1 237
Width: 832
VWidth: 0
Flags: W
LayerCount: 2
Fore
SplineSet
461 -17 m 256
 710 -24 945 131 1037 257 c 256
 1102 345 995.999 419 952 376 c 256
 716 149 364 97.9999 299 300 c 257
 633 388 827 494 827 717 c 256
 827 873 706 966 552 966 c 256
 271 966 64 648 64 377 c 256
 64 105 261 -11 461 -17 c 256
-3 372 m 256
 71 399 167 450 157 456 c 257
 134 632 l 257
 134 632 29 582 -50 555 c 256
 -130 527 -76 344 -3 372 c 256
289 422 m 257
 289 587 420 775 564 775 c 256
 612 775 656 751 649 681 c 256
 638 571 409 464 289 422 c 257
EndSplineSet
EndChar

StartChar: eight
Encoding: 24 56 245
Width: 967
VWidth: 0
Flags: W
LayerCount: 2
Fore
SplineSet
447 -16 m 256
 669 -16 844 112 844 318 c 256
 844 526 686.092 643.34 570.084 741.528 c 257
 753.975 829.443 936 948 936 1208 c 256
 936 1374 788 1448 637 1448 c 256
 424 1448 222 1327 222 1099 c 256
 222 951 293.665 834.003 404.296 776.761 c 257
 250.077 672.864 81 552 81 291 c 256
 81 83 231 -16 447 -16 c 256
400 131 m 256
 312 131 260 229 260 314 c 256
 260 501 393.323 590.773 496.729 643.849 c 257
 543.521 586.909 609 498 609 376 c 256
 609 247 532 131 400 131 c 256
506.509 836.027 m 257
 448.35 882.674 403 994 403 1097 c 256
 403 1229 482 1330 590 1330 c 256
 675 1330 748 1257 748 1141 c 256
 748 1015 589.135 874.321 506.509 836.027 c 257
EndSplineSet
EndChar

StartChar: ellipsis
Encoding: 455 8230 246
Width: 1567
VWidth: 0
Flags: W
LayerCount: 2
Fore
SplineSet
484 0 m 256
 603 0 672 76 672 191 c 256
 672 297 611 353 503 353 c 256
 386 353 320 277 320 162 c 256
 320 55 378 0 484 0 c 256
900 0 m 256
 1019 0 1088 76 1088 191 c 256
 1088 297 1027 353 919 353 c 256
 802 353 736 277 736 162 c 256
 736 55 794 0 900 0 c 256
1316 0 m 256
 1435 0 1504 76 1504 191 c 256
 1504 297 1443 353 1335 353 c 256
 1218 353 1152 277 1152 162 c 256
 1152 55 1210 0 1316 0 c 256
EndSplineSet
EndChar

StartChar: emdash
Encoding: 445 8212 248
Width: 1120
VWidth: 0
Flags: W
LayerCount: 2
Fore
SplineSet
157 414 m 258
 931 414 l 258
 997.584 414 1026 448.521 1026 518 c 256
 1026 563.068 995.959 578 935 578 c 258
 185 578 l 258
 115.412 578 93 559.465 93 492 c 256
 93 443.878 116.124 414 157 414 c 258
EndSplineSet
EndChar

StartChar: endash
Encoding: 444 8211 250
Width: 990
VWidth: 0
Flags: W
LayerCount: 2
Fore
SplineSet
159 384 m 258
 803 384 l 258
 888 384 928 434 928 518 c 256
 928 587 878 608 807 608 c 258
 187 608 l 258
 103 608 65 578 65 492 c 256
 65 430 98.9999 384 159 384 c 258
EndSplineSet
EndChar

StartChar: equal
Encoding: 29 61 253
Width: 1707
VWidth: 0
Flags: W
LayerCount: 2
Fore
SplineSet
518 317 m 258
 1312 317 l 258
 1502.6 317 1591 346.32 1591 450 c 256
 1591 473.703 1577.51 482 1539 482 c 258
 1208 482 l 258
 1092.84 482 859.165 468.963 589.662 481.03 c 256
 481.632 485.853 379 475.369 379 415 c 256
 379 342.621 421.794 317 518 317 c 258
535 744 m 258
 1427 758 l 258
 1555 760 1644 788 1644 861 c 256
 1644 918 1628 931 1602 937 c 256
 1436 975 1257 914 904 922 c 257
 643 929 l 258
 535 932 432 917 432 836 c 256
 432 780 477 743 535 744 c 258
EndSplineSet
EndChar

StartChar: eth
Encoding: 175 240 255
Width: 1089
VWidth: 0
Flags: W
LayerCount: 2
Fore
SplineSet
510 0 m 256
 571 0 628 11 682 34 c 256
 979.999 161 1126 532 1126 958 c 256
 1126 1093 1102 1213 1062 1314 c 257
 1182 1366 l 258
 1229 1386 1267 1414 1267 1466 c 256
 1267 1520 1239 1567 1187 1567 c 256
 1167 1567 1150 1561 1136 1555 c 258
 970.999 1483 l 257
 871 1619 723 1729 491 1729 c 256
 410 1729 346 1696 346 1618 c 256
 346 1567 376 1506 426 1506 c 256
 569 1506 671 1461 743 1384 c 257
 577 1313 l 258
 541 1297 511 1277 511 1236 c 256
 511 1183 554 1126 609 1126 c 256
 623 1126 638 1129 653 1136 c 256
 715 1163 775 1190 837 1216 c 257
 860 1144 872 1063 872 967.999 c 258
 872 961 l 257
 807 980.999 733 990.999 645 990.999 c 256
 599 990.999 552 982.999 506 967 c 256
 297 895 64 693 64 416 c 256
 64 153 252 0 510 0 c 256
542 192 m 256
 388 192 290 266 290 416 c 256
 290 607 470 767 661 767 c 256
 740 767 797 753 847 729 c 257
 815 559 734 192 542 192 c 256
EndSplineSet
EndChar

StartChar: exclam
Encoding: 1 33 256
Width: 1132
VWidth: 0
Flags: W
LayerCount: 2
Fore
SplineSet
688 572.41 m 258
 1077 1550 l 257
 1143 1722 1206 1851 1056 1867 c 256
 982 1875 933 1826 915 1751 c 258
 626.183 580.279 l 258
 616.094 537.677 667.051 517.944 688 572.41 c 258
578 57 m 256
 641 57 699 113 699 191 c 256
 699 261 670 294 597 294 c 256
 533 294 474 239 474 162 c 256
 474 91 503 57 578 57 c 256
EndSplineSet
EndChar

StartChar: exclamdown
Encoding: 96 161 257
Width: 1184
VWidth: 0
Flags: W
LayerCount: 2
Fore
SplineSet
325 -12 m 256
 396 -22 473 22 515 172 c 256
 620 550 733 845 833 1342 c 257
 835 1373 820 1392 789 1392 c 256
 752 1392 711 1374 705 1342 c 257
 569 1021 457 743 347 424 c 256
 311 320 271 217 271 93 c 256
 271 45 286 -6 325 -12 c 256
820 1531 m 256
 919.321 1531 973 1592.21 973 1692 c 256
 973 1782.42 928.728 1826 839 1826 c 256
 741.609 1826 688 1758.65 688 1663 c 256
 688 1575.42 732.425 1531 820 1531 c 256
EndSplineSet
EndChar

StartChar: f
Encoding: 70 102 258
Width: 706
VWidth: 0
Flags: W
PickledData: "(dp1
S'com.typemytype.robofont.layerData'
p2
(dp3
s."
LayerCount: 2
Fore
SplineSet
289 -607 m 256
 523 -637 622 -339 622 -29 c 256
 622 168 518 385 437 486 c 257
 657 423 960 524 979 692 c 256
 981 713 980 731 966 731 c 256
 955 731 918 729 877 688 c 256
 810 622 724 557 578 557 c 256
 530 557 412 582 377 615 c 257
 728 989 1044 1369 1028 1710 c 256
 1022 1834 956 1924 850 1924 c 256
 324 1924 83 515 83 -38 c 256
 83 -273 112 -584 289 -607 c 256
310 -479 m 256
 229 -470 227 -230 227 -76 c 256
 227 159 240 307 266 543 c 257
 360 403 487 201 487 -50 c 256
 487 -254 433 -492 310 -479 c 256
272 650 m 257
 319 883 545 1795 805 1795 c 256
 872 1795 885 1722 885 1663 c 256
 885 1384 510 939 272 650 c 257
EndSplineSet
Substitution2: "'fina' Terminal Forms in Latin lookup 5 subtable" f.fina
Substitution2: "'init' Initial Forms in Latin lookup 4 subtable" f.init
EndChar

StartChar: f.fina
Encoding: 65565 -1 259
Width: 887
VWidth: 0
Flags: W
LayerCount: 2
Fore
SplineSet
270 -604 m 256
 530 -604 633 -267 633 -29 c 256
 633 182 570 356 514 497 c 257
 629 499 763 501 874 514 c 256
 979.999 529 1060 557 1060 612 c 256
 1060 651 1047 681 1024 681 c 256
 835 681 702 658 491 657 c 257
 691 894 981.999 1271 981.999 1624 c 256
 981.999 1762 907 1856 782 1856 c 256
 226 1856 34 521 34 -38 c 256
 34 -276 62 -604 270 -604 c 256
302 -379 m 256
 263 -379 259 -187 259 -47 c 256
 259 144 277 330 286 522 c 257
 358 384 422 187 422 -57 c 258
 422 -62 l 258
 422 -173 421 -379 302 -379 c 256
330 686 m 257
 356 775 516 1631 745 1631 c 256
 786 1631 795 1583 795 1529 c 256
 795 1266 486 879 330 686 c 257
EndSplineSet
EndChar

StartChar: f.init
Encoding: 65566 -1 260
Width: 867
VWidth: 0
Flags: W
LayerCount: 2
Fore
SplineSet
450 -604 m 256
 710 -604 813 -267 813 -29 c 256
 813 154 750 305 694 427 c 257
 896 434 1170 453 1170 652 c 256
 1170 691 1157 721 1134 721 c 256
 1128 721 1123 719 1116 715 c 256
 977.999 638 906 587 739 587 c 256
 700 587 654 593 625 603 c 257
 822 833 1162 1243 1162 1624 c 256
 1162 1762 1087 1856 962 1856 c 256
 562 1856 350 1166 263 570 c 257
 133 442 20 364 -193 219 c 256
 -203 212 -207 203 -207 191 c 256
 -207 146 -144 77 -99 77 c 256
 -90 77 -83 81 -76 85 c 256
 37 154 138 225 231 302 c 257
 219 173 214 56 214 -38 c 256
 214 -276 242 -604 450 -604 c 256
482 -379 m 256
 443 -379 439 -187 439 -47 c 256
 439 144 457 330 466 522 c 257
 538 384 602 187 602 -57 c 258
 602 -62 l 258
 602 -173 601 -379 482 -379 c 256
510 686 m 257
 536 775 696 1631 925 1631 c 256
 966 1631 974.999 1583 974.999 1529 c 256
 974.999 1266 666 879 510 686 c 257
EndSplineSet
EndChar

StartChar: five
Encoding: 21 53 266
Width: 1157
VWidth: 0
Flags: W
LayerCount: 2
Fore
SplineSet
489 0 m 256
 757 0 999 171 999 460 c 256
 999 859 683 865 394 837 c 257
 363 961 361 1119 373 1222 c 257
 561 1230 702 1179 764 1174 c 257
 929 1168 1063 1181 1063 1290 c 256
 1063 1392 1025 1415 1014 1403 c 256
 967 1356 876 1342 801 1342 c 256
 618 1342 532 1390 338 1390 c 256
 260 1390 251 1174 246 840 c 257
 246 736 254 728 346.687 719.773 c 257
 566.779 692.514 806 715 806 437 c 256
 806 206 588 104 482 104 c 256
 363 104 270 146 270 268 c 256
 270 429 339 388 339 429 c 256
 339 465 271 479 239 479 c 256
 138 479 100 438 100 331 c 256
 100 111 303 0 489 0 c 256
EndSplineSet
EndChar

StartChar: florin
Encoding: 318 402 269
Width: 1314
VWidth: 0
Flags: W
LayerCount: 2
Fore
SplineSet
214 -128 m 256
 665 -128 689 486 771 864 c 257
 1068 864 l 258
 1124 864 1164 901 1164 960 c 256
 1164 1022 1129 1056 1068 1056 c 258
 801 1056 l 257
 836 1256 878 1613 1089 1613 c 256
 1162 1613 1199 1542 1267 1542 c 256
 1333 1542 1377 1621 1377 1686 c 256
 1377 1795 1231 1837 1123 1837 c 256
 705 1837 618 1425 566 1056 c 257
 513 1056 458 1062 410 1062 c 256
 329 1062 268 1046 268 960 c 256
 268 894 297 864 364 864 c 258
 536 864 l 257
 523 760 509 668 495 590 c 256
 463 411 428 95.9999 228 95.9999 c 256
 180 95.9999 163 167 120 167 c 256
 54 167 9.99999 88 9.99999 23 c 256
 9.99999 -78 116 -128 214 -128 c 256
EndSplineSet
EndChar

StartChar: for
Encoding: 65571 -1 270
Width: 3177
VWidth: 0
Flags: W
LayerCount: 2
Fore
SplineSet
1055 54 m 256
 1233 54 1303 280 1303 439 c 256
 1303 617 1228 764 1162 882 c 257
 1241 886 1335 898 1400 959 c 257
 1402 946 1403 933 1403 919 c 256
 1403 752 1491 604 1697 604 c 256
 1851 604 1924 808 1951 957 c 257
 1955 955 1962 955 1970 955 c 256
 2038 955 2097 995.999 2139 1049 c 257
 2144 969.999 2147 890 2147 811 c 256
 2147 731 2164 657 2264 657 c 256
 2313 657 2340 723 2341 773 c 258
 2346 1021 l 257
 2453 1178 l 257
 2476 1035 2555 942 2650 942 c 256
 2706 942 2767 973.999 2824 1048 c 257
 2824 1048 2828 1104 2828 1147 c 256
 2828 1173 2820 1195 2798 1195 c 256
 2751 1195 2731 1094 2692 1094 c 256
 2627 1094 2613 1164 2613 1239 c 256
 2613 1291 2620 1345 2620 1380 c 256
 2620 1420 2583 1446 2535 1446 c 256
 2426 1446 2379 1293 2342 1201 c 257
 2334 1200 l 257
 2330 1227 2324 1254 2324 1281 c 257
 2317 1350 l 258
 2312 1400 2314 1415 2252 1415 c 256
 2170 1415 2168 1302 2154 1228 c 257
 2153 1228 l 257
 2149 1227 l 257
 2096 1227 2069 1112 1995 1112 c 256
 1987 1112 1983 1115 1983 1123 c 256
 1983 1260 1896 1369 1734 1369 c 256
 1588 1369 1483 1281 1427 1142 c 257
 1338 1063 1292 1011 1184 1011 c 256
 1154 1011 1116 1012 1093 1014 c 257
 1228 1195 1461 1517 1461 1816 c 256
 1461 1940 1382 2024 1253 2024 c 256
 963 2024 819 1141 819 622 c 258
 819 616 l 258
 819 391 820 54 1055 54 c 256
1386 302 m 257
 1569 345 1757 376 1993 422 c 256
 2324 486 2513 482 2841 557 c 256
 2848 558 2851 564 2851 571 c 256
 2851 589 2835 616 2817 617 c 256
 2712 622 2627 628 2545 628 c 256
 2444 628 2349 609 2221 587 c 256
 1894 530 1651 489 1397 425 c 257
 1386 302 l 257
1712 758 m 256
 1593 758 1554 845 1554 942 c 256
 1554 1062 1618 1213 1711 1213 c 256
 1719 1213 1722 1213 1722 1211 c 256
 1722 1181 1686 1155 1686 1110 c 256
 1686 1045 1769 1009 1827 982.999 c 257
 1827 892 1783 758 1712 758 c 256
1061 234 m 256
 1006 234 1001 381 1001 489 c 256
 1001 597 997.999 702 995.999 811 c 257
 1066 736 1129 629 1129 495 c 258
 1129 491 l 258
 1129 401 1128 234 1061 234 c 256
431 129 m 257
 571 163 704 179 792 190 c 257
 749 309 l 257
 718 300 416 268 416 138 c 256
 416 133 421 130 431 129 c 257
995.999 1069 m 257
 1012 1143 1107 1843 1243 1843 c 256
 1283 1843 1291 1808 1291 1768 c 256
 1291 1551 1095 1229 995.999 1069 c 257
EndSplineSet
EndChar

StartChar: four
Encoding: 20 52 272
Width: 927
VWidth: 0
Flags: W
LayerCount: 2
Fore
SplineSet
597 -4 m 256
 650 -4 676 -4 686 3 c 257
 703 18 663 54 663 141 c 257
 668 231 673 243 678 266 c 257
 743 269 806 267 861 257 c 257
 902 248 911 310 911 359 c 256
 911 382 813 396 718 387 c 257
 738 482 806 575.43 806 674 c 256
 806 693.974 797.046 700 756 700 c 256
 699.144 700 652.902 668.457 640.873 624.856 c 256
 616.617 538.854 583 471 557 384 c 257
 505 384 445 381 366.322 366.112 c 257
 464 559 539 763 558 953 c 257
 558 993 551 1022 499 1022 c 256
 435.138 1022 348.376 1011.88 342.277 985.45 c 257
 257 486 116 278.723 116 237 c 257
 120 192 296 261 528 261 c 257
 511 188 496 159 496 82 c 256
 496 13 521 -4 597 -4 c 256
EndSplineSet
EndChar

StartChar: fraction
Encoding: 459 8260 274
Width: 1248
VWidth: 0
Flags: W
LayerCount: 2
Fore
SplineSet
341 -33 m 256
 432 -33 482 2 514 64 c 256
 766 563 966 1119 1196 1622 c 256
 1212 1659 1248 1714 1248 1760 c 256
 1248 1814 1240 1856 1184 1856 c 256
 1059 1856 967.999 1782 928 1696 c 256
 720 1239 507 755 304 295 c 256
 266 210 222 152 222 55 c 256
 222 -18 269 -33 341 -33 c 256
EndSplineSet
EndChar

StartChar: g
Encoding: 71 103 275
Width: 1001
VWidth: 0
Flags: W
PickledData: "(dp1
S'com.typemytype.robofont.layerData'
p2
(dp3
s."
LayerCount: 2
Fore
SplineSet
125 -940 m 256
 301 -940 426 -847 520 -691 c 256
 614 -534 676 -313 725 -57 c 257
 936 88 1033 166 1172 236 c 257
 1261 299 1206 374 1139 360 c 257
 993 289 890 192 733 74 c 257
 903 826 l 258
 913 875 839 903 787 880 c 257
 787 880 819 948 664 951 c 256
 362 959 87 628 87 277 c 256
 87 134 200 35 322 26 c 256
 441 17 564 82 629 212 c 257
 575 -7 l 257
 457 -97 297 -218 167 -346 c 256
 37 -475 -63 -612 -63 -735 c 256
 -63 -855 -10 -940 125 -940 c 256
376 158 m 256
 269 158 243 252 243 320 c 256
 243 576 441 855 731 826 c 257
 631 462 l 258
 605 368 540 158 376 158 c 256
136 -812 m 256
 83 -812 64 -762 64 -727 c 256
 64 -563 347 -321 552 -151 c 257
 493 -402 399 -812 136 -812 c 256
EndSplineSet
Substitution2: "'fina' Terminal Forms in Latin lookup 5 subtable" g.fina
Substitution2: "'init' Initial Forms in Latin lookup 4 subtable" g.init
EndChar

StartChar: g.fina
Encoding: 65572 -1 276
Width: 952
VWidth: 0
Flags: W
LayerCount: 2
Fore
SplineSet
114 -838 m 256
 472 -838 579 -497 637 -208 c 257
 751 -190 862 -181 1008 -175 c 256
 1078 -172 1104 -142 1104 -105 c 256
 1104 -39 1023 51 974.999 51 c 256
 836 51 754 26 669 14 c 257
 731 272 818 515 818 790 c 256
 818 849 803 883 746 883 c 256
 731 883 716 882 701 882 c 256
 617 882 630 958 557 958 c 256
 511 958 466 948 422 928 c 256
 211 834 18 583 18 281 c 256
 18 123 115 -2 269 -2 c 256
 361 -2 439 55 495 105 c 257
 448 -38 l 257
 236 -155 -110 -331 -110 -639 c 256
 -110 -780 -22 -838 114 -838 c 256
352 192 m 256
 288 192 274 260 274 324 c 256
 274 508 398 768 585 768 c 257
 524 474 l 258
 505 380 460 192 352 192 c 256
126 -646 m 256
 98.9999 -646 86 -634 86 -609 c 256
 86 -459 303 -308 414 -246 c 257
 384 -380 309 -646 126 -646 c 256
EndSplineSet
EndChar

StartChar: g.init
Encoding: 65573 -1 277
Width: 1052
VWidth: 0
Flags: W
LayerCount: 2
Fore
SplineSet
209 -928 m 256
 269 -928 327 -918 377 -898 c 256
 665 -780 759 -453 825 -108 c 257
 1030 31 1227 118 1366 214 c 256
 1487 299 1403 412 1310 392 c 256
 1214 371 993.999 229 854 114 c 257
 994.999 795 l 258
 1010 868 928 925 830 885 c 256
 829 885 839 953 728 956 c 256
 409 965 105 648 105 281 c 256
 105 123 210 0 375 0 c 256
 474 0 558 55 619 105 c 257
 589 12 l 257
 437 -104 286 -237 162 -378 c 256
 84 -466 -33 -588 -33 -729 c 256
 -33 -870 62 -928 209 -928 c 256
79 410 m 256
 153 437 266 497 256 503 c 257
 233 679 l 257
 233 679 111 620 32 593 c 256
 -48 565 6 382 79 410 c 256
449 192 m 256
 365 192 346 260 346 324 c 256
 346 508 508 773 755 773 c 257
 675 474 l 258
 649 380 591 192 449 192 c 256
220 -754 m 256
 191 -754 178 -724 178 -699 c 256
 178 -550 368 -397 573 -226 c 257
 538 -387 431 -754 220 -754 c 256
EndSplineSet
EndChar

StartChar: germandbls
Encoding: 158 223 284
Width: 1281
VWidth: 0
Flags: W
LayerCount: 2
Fore
SplineSet
191 -128 m 256
 255.218 -128 302 -97 302 -39 c 256
 302 24.5163 300 86.5163 300 159 c 256
 300 652.139 305.277 1434 836 1434 c 256
 970.464 1434 1099 1378.43 1099 1232 c 256
 1099 1020 829 909 625 909 c 256
 560 909 552 884 552 844 c 256
 552 805 570 788 602 773 c 256
 744 710 1067 750.313 1067 489 c 256
 1067 295 850.285 181 633 181 c 256
 584.022 181 475 224 475 150 c 258
 475 119 l 258
 475 54 608.368 33 685 33 c 256
 975.944 33 1231 230 1231 454 c 256
 1231 686 1103 811 823 835 c 257
 1073 841 1263 1002.58 1263 1240 c 256
 1263 1451.66 1063.98 1568 834 1568 c 256
 753.65 1568 686.403 1556.02 623.308 1530.21 c 256
 153.315 1338.95 94 605.816 94 -68 c 256
 94 -106 137.569 -128 191 -128 c 256
EndSplineSet
EndChar

StartChar: grave
Encoding: 64 96 285
Width: 609
VWidth: 0
Flags: W
PickledData: "(dp1
S'com.typemytype.robofont.layerData'
p2
(dp3
s."
LayerCount: 2
Fore
SplineSet
405 1202 m 256
 433 1202 441 1245 426 1274 c 257
 356 1426 282 1582 215 1737 c 256
 203 1765 182 1782 148 1782 c 256
 85 1782 33 1737 33 1676 c 256
 33 1652 41 1629 64 1597 c 256
 125 1513 215 1405 282 1323 c 256
 319 1277 356 1202 405 1202 c 256
EndSplineSet
EndChar

StartChar: greater
Encoding: 30 62 286
Width: 1184
VWidth: 0
Flags: W
LayerCount: 2
Fore
SplineSet
266 136 m 256
 377.844 136 481.525 196.877 578.358 237.649 c 256
 788.255 326.184 1104 441.158 1104 626 c 256
 1104 759 884 811 598.613 929.245 c 256
 494.305 972.194 360.47 1055 248 1055 c 256
 193.221 1055 168 990.863 168 922 c 256
 168 884.772 176.68 877.323 225.796 860.356 c 256
 284.119 840.208 923.803 683.135 977.942 616.508 c 257
 980.535 493.057 359.769 352.882 248.549 323.965 c 256
 193.684 309.715 193 259.795 193 185 c 256
 193 153.676 221.738 136 266 136 c 256
EndSplineSet
EndChar

StartChar: guillemotleft
Encoding: 106 171 288
Width: 1440
VWidth: 0
Flags: W
LayerCount: 2
Fore
SplineSet
650.403 108.706 m 256
 694 84 789 104 789 158 c 256
 789 225 720 251 672.713 294.034 c 257
 379.323 545.978 l 257
 731.296 793.218 l 258
 776.19 825.869 820 852.155 820 896 c 256
 820 942.176 782.066 973.999 733 973.999 c 256
 659.227 973.999 608.571 908.871 546.531 863.657 c 256
 439.268 787.04 217 693.404 217 533 c 256
 217 475.888 245.384 441.017 285.215 403.129 c 256
 404.495 289.863 500.303 193.077 650.403 108.706 c 256
1226.4 108.706 m 256
 1270 84 1365 104 1365 158 c 256
 1365 225 1296 251 1248.71 294.033 c 257
 955.322 545.978 l 257
 1307.3 793.218 l 258
 1352.19 825.869 1396 852.155 1396 896 c 256
 1396 942.176 1358.07 973.999 1309 973.999 c 256
 1235.23 973.999 1184.57 908.871 1122.53 863.657 c 256
 1015.27 787.04 793 693.404 793 533 c 256
 793 476 821 441 861 403 c 256
 980 290 1076 193 1226.4 108.706 c 256
EndSplineSet
EndChar

StartChar: guillemotright
Encoding: 122 187 289
Width: 1440
VWidth: 0
Flags: W
LayerCount: 2
Fore
SplineSet
335 98 m 256
 414 98 572 224 682.164 335.518 c 256
 739.186 393.576 820 444.759 820 533 c 256
 820 640.947 721.441 709.971 642.403 756.406 c 256
 592.742 785.374 538.845 829.103 490.296 863.782 c 256
 432.982 905.464 373.584 973.999 304 973.999 c 256
 254.934 973.999 217 942.176 217 896 c 256
 217 852.155 260.81 825.869 305.37 793.457 c 258
 657.677 545.978 l 257
 364.373 294.108 l 258
 316.087 252.26 248 225.876 248 158 c 256
 248 125.312 291.78 98 335 98 c 256
911 98 m 256
 990 98 1148 224 1258.16 335.518 c 256
 1315.19 393.576 1396 444.759 1396 533 c 256
 1396 640.947 1297.44 709.971 1218.4 756.406 c 256
 1168.74 785.374 1114.84 829.103 1066.3 863.782 c 256
 1008.98 905.464 949.584 973.999 880 973.999 c 256
 830.934 973.999 793 942.176 793 896 c 256
 793 852.155 836.81 825.869 881.37 793.457 c 258
 1233.68 545.978 l 257
 940.373 294.108 l 258
 892.087 252.26 824 225.876 824 158 c 256
 824 125.312 867.78 98 911 98 c 256
EndSplineSet
EndChar

StartChar: guilsinglleft
Encoding: 457 8249 290
Width: 1089
VWidth: 0
Flags: W
LayerCount: 2
Fore
SplineSet
802 73 m 256
 856 73 914 107 914 158 c 256
 914 235 845 291 789 313 c 257
 320 544 l 257
 846 773 l 258
 898 796 945 835 945 896 c 256
 945 958 895 998.999 833 998.999 c 256
 813 998.999 796 994.999 780 987.999 c 258
 282 778 l 258
 189 739 81 667 81 540 c 256
 81 469 121 415 168 385 c 256
 347 268 517 170 738 87 c 256
 761 78 782 73 802 73 c 256
EndSplineSet
EndChar

StartChar: guilsinglright
Encoding: 458 8250 291
Width: 1089
VWidth: 0
Flags: W
LayerCount: 2
Fore
SplineSet
318 73 m 256
 338 73 359 78 382 87 c 256
 563 165 737 262 896 352 c 256
 974.999 398 1039 452 1039 570 c 256
 1039 678 937 740 838 778 c 258
 340 987.999 l 258
 324 994.999 307 998.999 287 998.999 c 256
 225 998.999 175 958 175 896 c 256
 175 835 222 797 274 773 c 258
 800 544 l 257
 331 313 l 258
 277 287 206 236 206 158 c 256
 206 107 264 73 318 73 c 256
EndSplineSet
EndChar

StartChar: h
Encoding: 72 104 292
Width: 1117
VWidth: 0
Flags: W
LayerCount: 2
Fore
SplineSet
174 2 m 256
 260 -35 309 26 341 95 c 256
 449 330 592 514 697 613 c 256
 1074 968 736 575 714 203 c 256
 707 87 759 2 881 0 c 256
 1065 -3 1225 122 1332 206 c 256
 1369 235 1381 264 1377 296 c 256
 1373 338 1344 370 1327 370 c 256
 1311 370 1299 358 1277 336 c 256
 1235 293 1081 134 946 134 c 256
 913 134 881 150 877 183 c 256
 862 325 996 661 1051 780 c 257
 1083 866 1036 955 946 955 c 256
 857 955 527 736 267 210 c 257
 286 622 l 257
 837 1102 1009 1472 1021 1697 c 257
 1020 1830 943 1920 806 1920 c 256
 321 1920 118 872 122 311 c 256
 122 218 109 30 174 2 c 256
296 774 m 257
 338 1254 606 1792 783 1761 c 256
 839 1751 859 1715 861 1660 c 257
 861 1480 556 1020 296 774 c 257
EndSplineSet
Substitution2: "'fina' Terminal Forms in Latin lookup 5 subtable" h.fina
EndChar

StartChar: h.fina
Encoding: 65574 -1 293
Width: 1193
VWidth: 0
Flags: W
LayerCount: 2
Fore
SplineSet
163 0 m 256
 251 -17 284 39 317 112 c 256
 407 313 520 455 605 561 c 256
 727 713 568 429 552 185 c 256
 542 34 636 -20 771 0 c 257
 818 194 l 257
 803 194 794 200 794 213 c 256
 794 347 931 606 998.999 807 c 256
 1029 897 964 966 870 966 c 256
 781 966 643 857 337 480 c 257
 383 651 l 257
 888 1134 1003 1434 1033 1664 c 257
 1045 1812 971.999 1920 837 1920 c 256
 378 1920 140 900 93.9999 333 c 256
 85 236 69 18 163 0 c 256
771 0 m 257
 1023 0 1243 132 1384 232 c 256
 1442 273 1454 316 1454 350 c 256
 1454 387 1430 414 1389 414 c 256
 1358 414 1324 394 1274 363 c 256
 1172 300 933 194 818 194 c 257
 771 0 l 257
389 838 m 257
 424 1051 590 1719 786 1678 c 256
 813 1672 821 1652 819 1608 c 257
 804 1434 625 1081 389 838 c 257
EndSplineSet
EndChar

StartChar: hungarumlaut
Encoding: 406 733 296
Width: 1024
VWidth: 0
Flags: W
LayerCount: 2
Fore
SplineSet
170 2175 m 256
 159 2175 152 2184 152 2202 c 256
 152 2288 227 2396 266 2483 c 256
 291 2543 322 2607 351 2678 c 256
 361 2702 380 2717 409 2717 c 256
 468 2717 514 2677 514 2621 c 256
 514 2555 436 2484 390 2425 c 256
 332 2349 266 2271 207 2197 c 256
 192 2179 186 2175 170 2175 c 256
502 2175 m 256
 514 2175 522 2179 540 2198 c 257
 645 2318 768 2431 868 2550 c 256
 890 2575 896 2597 896 2621 c 256
 896 2676 860 2717 811 2717 c 256
 773 2717 745 2700 731 2674 c 256
 677 2572 632 2494 581 2402 c 256
 545 2336 484 2267 484 2202 c 256
 484 2184 491 2175 502 2175 c 256
EndSplineSet
EndChar

StartChar: hyphen
Encoding: 13 45 297
Width: 974
VWidth: 0
Flags: W
AnchorPoint: "mid" 577 614 mark 0
LayerCount: 2
Fore
SplineSet
323 546 m 258
 834 596 l 257
 892 600 898 620 898 648 c 256
 898 681 876 689 843 689 c 257
 322 667 l 258
 285 665 258 648 258 607 c 256
 258 561 287 546 323 546 c 258
EndSplineSet
EndChar

StartChar: i
Encoding: 73 105 298
Width: 601
VWidth: 0
Flags: W
PickledData: "(dp1
S'com.typemytype.robofont.layerData'
p2
(dp3
s."
AnchorPoint: "ogonek" 0 0 basechar 0
LayerCount: 2
Fore
SplineSet
326 1 m 256
 470 -19 634 60 785 243 c 257
 804 268 809 281 810 295 c 256
 812 327 782 351 746 350 c 256
 734 349 724 341 717 332 c 256
 477 58 257 62 265 287 c 256
 270 434 385 727 460 868 c 256
 477 898 479 939 419 952 c 256
 361 965 336 946 302 882 c 256
 222 733 110 430 110 259 c 256
 110 116 197 19 326 1 c 256
560 1205 m 256
 638 1205 687 1258 687 1328 c 256
 687 1380 645 1418 580 1418 c 256
 501 1418 443 1375 443 1305 c 256
 443 1238 484 1205 560 1205 c 256
EndSplineSet
EndChar

StartChar: i_t
Encoding: 65575 -1 299
Width: 1487
VWidth: 0
Flags: W
LayerCount: 2
Fore
SplineSet
1180 -10 m 256
 1363 -10 1506 135 1622 301 c 256
 1639 325 1645 349 1645 369 c 256
 1645 420 1605 454 1572 454 c 256
 1560 454 1550 449 1542 440 c 256
 1465 361 1345 204 1199 204 c 256
 1064 204 1025 312 1025 440 c 256
 1025 569 1063 719 1083 802 c 257
 1488 802 l 258
 1540 802 1560 837 1560 872 c 256
 1560 913 1538 954 1508 954 c 258
 1289 954 l 257
 1509 1098 1688 1341 1688 1526 c 256
 1688 1637 1599 1754 1413 1754 c 256
 1202 1754 1041 1503 873 954 c 257
 812 953 751 953 707 952 c 257
 674 924 660 893 660 868 c 256
 660 839 679 817 709 817 c 256
 750 817 824 813 843 813 c 257
 816 677 803 557 803 453 c 256
 803 149 922 -10 1180 -10 c 256
357 -3 m 256
 641 -3 822 339 892 523 c 256
 905 557 923 589 923 621 c 256
 923 662 906 697 877 697 c 256
 862 697 845 697 825 696 c 257
 787 636 591 216 453 216 c 256
 393 216 360 273 360 345 c 256
 360 487 423 724 497 863 c 256
 503 874 505 884 505 894 c 256
 505 933 463 960 425 960 c 256
 362 960 320 951 278 873 c 256
 197 722 114 458 114 282 c 256
 114 124 215 -3 357 -3 c 256
589 1152 m 256
 699 1152 773 1218 773 1331 c 256
 773 1429 705 1471 613 1471 c 256
 503 1471 417 1408 417 1304 c 256
 417 1203 482 1152 589 1152 c 256
1112 963 m 257
 1112 963 1284 1583 1420 1583 c 256
 1468 1583 1487 1562 1487 1527 c 256
 1487 1370 1112 963 1112 963 c 257
EndSplineSet
Ligature2: "'dlig' Discretionary Ligatures in Latin lookup 6 subtable" i t
EndChar

StartChar: i_t_t
Encoding: 65576 -1 300
Width: 2106
VWidth: 0
Flags: W
LayerCount: 2
Fore
SplineSet
282 0 m 256
 489 0 681 129 799 231 c 257
 841 97.9999 916 0 1048 0 c 256
 1070 0 1098 8 1133 26 c 256
 1290 106 1406 272 1491 440 c 257
 1516 242 1576 0 1788 0 c 256
 1813 0 1843 5 1879 14 c 256
 2032 54 2162 136 2279 224 c 257
 2279 480 l 257
 2194 386 2020 224 1852 224 c 256
 1740 224 1705 304 1705 420 c 256
 1705 533 1711 640 1718 748 c 257
 1754 793 1796 847 1831 896 c 257
 2125 896 l 258
 2162 896 2189 935 2189 974.999 c 256
 2189 993.999 2186 1010 2180 1022 c 256
 2160 1062 1996 1050 1942 1055 c 257
 2017 1174 2119 1318 2119 1499 c 256
 2119 1637 2062 1792 1928 1792 c 256
 1901 1792 1873 1783 1846 1764 c 256
 1658 1634 1570 1311 1518 1046 c 257
 1419 1048 1296 1045 1202 1055 c 257
 1286 1182 1399 1336 1399 1529 c 256
 1399 1653 1336 1792 1188 1792 c 256
 1147 1792 1107 1772 1070 1732 c 257
 926 1589 844 1323 796 1078 c 257
 757 1078 724 1083 690 1083 c 256
 632 1083 593 1080 593 1027 c 256
 593 917 649 911 705 911 c 258
 725 911 l 258
 740 911 755 911 768 908 c 257
 757 833 749 746 749 665 c 256
 749 583 752 493 763 407 c 257
 678 317 540 192 403 192 c 256
 357 192 352 240 352 290 c 256
 352 514 480 695 480 903 c 256
 480 945 456 960 408 960 c 256
 329 960 242 928 226 863 c 256
 178 661 95.9999 438 95.9999 201 c 256
 95.9999 71 151 0 282 0 c 256
1048 1073 m 257
 1044 1074 1040 1074 1036 1074 c 258
 995.999 1074 l 258
 992.999 1074 989.999 1074 986.999 1075 c 257
 1006 1167 1061 1568 1166 1568 c 256
 1209 1568 1219 1532 1219 1490 c 256
 1219 1469 1213 1441 1202 1408 c 256
 1165 1291 1103 1173 1048 1073 c 257
1095 223 m 258
 983.999 223 966 356 966 470 c 256
 966 686 1024 776 1111 896 c 257
 1494 896 l 257
 1485 824 1479 749 1479 671 c 257
 1422 562 1349 448 1276 361 c 256
 1234 311 1169 223 1103 223 c 258
 1095 223 l 258
1707 1050 m 257
 1728 1148 1789 1568 1906 1568 c 256
 1949 1568 1959 1532 1959 1490 c 256
 1959 1468 1953 1439 1941 1404 c 256
 1899 1282 1831 1157 1768 1053 c 257
 1707 1050 l 257
415 1129 m 256
 531 1129 609 1195 609 1308 c 256
 609 1406 537 1448 439 1448 c 256
 329 1448 243 1385 243 1281 c 256
 243 1180 308 1129 415 1129 c 256
EndSplineSet
Ligature2: "'dlig' Discretionary Ligatures in Latin lookup 6 subtable" i t t
EndChar

StartChar: i_x
Encoding: 65577 -1 301
Width: 1436
VWidth: 0
Flags: W
LayerCount: 2
Fore
SplineSet
274 0 m 256
 361 0 443 34 509 74 c 257
 536 29 579 0 644 0 c 256
 754 0 849 164 908 235 c 257
 964 138 1045 0 1146 0 c 256
 1324 0 1474 107 1566 194 c 257
 1577 201 1588 245 1588 287 c 256
 1588 328 1578 366 1548 366 c 256
 1536 366 1519 361 1501 344 c 256
 1438 289 1343 223 1255 223 c 256
 1173 223 1103 356 1070 406 c 257
 1159 504 1258 598 1370 672 c 256
 1402 693 1423 732 1423 780 c 256
 1423 842 1391 895 1329 895 c 256
 1294 895 1266 883 1242 864 c 256
 1143 786 1058 692 981.999 593 c 257
 942 687 896 916 786 916 c 256
 732 916 649 875 649 831 c 256
 649 828 650 825 651 821 c 256
 699 680 750 552 811 430 c 257
 778 373 680 236 635 236 c 256
 603 236 578 286 531 286 c 256
 465 286 327 79 327 290 c 256
 327 514 463 695 463 903 c 256
 463 945 439 960 391 960 c 256
 328 960 261 927 244 863 c 256
 190 660 88 438 88 201 c 256
 88 71 143 0 274 0 c 256
448 1089 m 256
 558 1089 632 1155 632 1268 c 256
 632 1366 564 1408 472 1408 c 256
 362 1408 276 1345 276 1241 c 256
 276 1140 341 1089 448 1089 c 256
EndSplineSet
Ligature2: "'dlig' Discretionary Ligatures in Latin lookup 6 subtable" i x
EndChar

StartChar: j
Encoding: 74 106 313
Width: 666
VWidth: 0
Flags: W
LayerCount: 2
Fore
SplineSet
235 -607 m 256
 459 -640 578 -338 581 -54 c 256
 583 119 553 309 483 394 c 257
 704 411 920 438 920 599 c 256
 920 624 915 631 896 621 c 257
 785 570 640 506 337 506 c 257
 443 743 l 258
 466 795 500 866 504 924 c 256
 506 945 496 956 474 956 c 256
 407 956 372 927 333 835 c 256
 236 608 86 272 62.8815 -3 c 256
 40 -270 64 -582 235 -607 c 256
277 -485 m 256
 209 -485 184 -367 194 -139 c 256
 204 95 287 363 319 455 c 257
 439 332 452 175 452 -22 c 256
 452 -270 380 -485 277 -485 c 256
562 1182 m 256
 656.567 1182 716 1235.44 716 1331 c 256
 716 1408.27 665.484 1441 586 1441 c 256
 489.811 1441 420 1388.79 420 1304 c 256
 420 1221.59 469.363 1182 562 1182 c 256
EndSplineSet
EndChar

StartChar: k
Encoding: 75 107 315
Width: 1227
VWidth: 0
Flags: W
LayerCount: 2
Fore
SplineSet
873 -9 m 256
 1037 -9 1259 104 1425 350 c 256
 1457 397 1434 472 1387 472 c 256
 1385 472 1156 123 904 123 c 256
 854 123 817 154 818 208 c 257
 839 386 1216 485 1193 765 c 256
 1182 888 1107 963 987 963 c 256
 834 963 713 906 281 216 c 257
 280 313 294 474 312 611 c 257
 563 804 1016 1266 1016 1669 c 256
 1016 1777 948 1886 843 1886 c 256
 508 1886 192 1229 147 329 c 257
 147 23 186 -10 224 -10 c 256
 366 -10 707 800 940 819 c 256
 1025 826 1042 754 1042 710 c 256
 1042 582 654 403 654 177 c 256
 654 17 776 -9 873 -9 c 256
322 758 m 257
 400 1182 600 1723 790 1730 c 257
 846 1730 870 1696 870 1641 c 256
 872 1422 478 856 322 758 c 257
EndSplineSet
Substitution2: "'init' Initial Forms in Latin lookup 4 subtable" k.init
EndChar

StartChar: k.init
Encoding: 65578 -1 316
Width: 1169
VWidth: 0
Flags: W
LayerCount: 2
Fore
SplineSet
224 -11 m 256
 401 -11 684 751 898 718 c 256
 930 713 932 688 930 672 c 256
 919 560 600 515 570 247 c 256
 550 66 703 0.999999 845 0.999999 c 256
 1029 0.999999 1240 158 1331 293 c 256
 1366 345 1295 494 1233 419 c 257
 1233 419 1018 162 873 162 c 256
 818 162 756 187 780 265 c 256
 811 366 1141 512 1162 723 c 256
 1175 854 1108 939 977.999 941 c 256
 742 944 543 702 334 349 c 257
 369 584 l 257
 125 526 l 257
 120 426 123 330 123 230 c 256
 123 134 140 -11 224 -11 c 256
66 440 m 256
 140 467 236 518 226 524 c 257
 203 700 l 257
 203 700 97.9999 650 19 623 c 256
 -61 595 -7 412 66 440 c 256
125 526 m 257
 369 584 l 257
 676 825 1008 1275 1039 1696 c 256
 1049 1818 970.999 1920 842 1920 c 256
 422 1920 165 1032 125 526 c 257
383 803 m 257
 427 1100 589 1680 774 1680 c 256
 810 1680 824 1662 824 1620 c 256
 824 1383 578 1027 383 803 c 257
EndSplineSet
EndChar

StartChar: l
Encoding: 76 108 319
Width: 661
VWidth: 0
Flags: W
LayerCount: 2
Fore
SplineSet
410 -2 m 256
 566 -2 716 75 873 250 c 256
 942 327 850 390 814 350 c 256
 712 234 574 124 459 124 c 256
 272 124 269 349 314 653 c 257
 618 888 1025 1356 1021 1721 c 256
 1020 1824 955 1921 845 1921 c 256
 451 1921 180 1023 141 524 c 256
 117 190 185 -2 410 -2 c 256
323 790 m 257
 361 1048 583 1756 796 1756 c 256
 850 1756 876 1722 876 1666 c 256
 876 1390 520 992 323 790 c 257
EndSplineSet
Substitution2: "'fina' Terminal Forms in Latin lookup 5 subtable" l.fina
Substitution2: "'init' Initial Forms in Latin lookup 4 subtable" l.init
EndChar

StartChar: l.fina
Encoding: 65579 -1 320
Width: 695
VWidth: 0
Flags: W
LayerCount: 2
Fore
SplineSet
447 -9 m 256
 612 -9 761 62 923 243 c 256
 1022 352 879 450 820 383 c 256
 719 269 601 177 496 177 c 256
 348 177 369 392 392 560 c 257
 699 801 1031 1275 1062 1696 c 256
 1072 1818 993.999 1920 865 1920 c 256
 445 1920 188 1032 148 526 c 256
 123 205 197 -9 447 -9 c 256
406 772 m 257
 450 1069 612 1680 797 1680 c 256
 833 1680 847 1662 847 1620 c 256
 847 1383 601 995.999 406 772 c 257
EndSplineSet
EndChar

StartChar: l.init
Encoding: 65580 -1 321
Width: 674
VWidth: 0
Flags: W
LayerCount: 2
Fore
SplineSet
447 -9 m 256
 612 -9 761 62 923 243 c 256
 1022 352 879 450 820 383 c 256
 719 269 601 177 496 177 c 256
 348 177 369 392 392 560 c 257
 699 801 1031 1275 1062 1696 c 256
 1072 1818 993.999 1920 865 1920 c 256
 445 1920 188 1032 148 526 c 256
 123 205 197 -9 447 -9 c 256
66 410 m 256
 140 437 236 488 226 494 c 257
 203 670 l 257
 203 670 97.9999 620 19 593 c 256
 -61 565 -7 382 66 410 c 256
406 772 m 257
 450 1069 612 1680 797 1680 c 256
 833 1680 847 1662 847 1620 c 256
 847 1383 601 995.999 406 772 c 257
EndSplineSet
EndChar

StartChar: l_i
Encoding: 65581 -1 322
Width: 1337
VWidth: 0
Flags: W
LayerCount: 2
Fore
SplineSet
387 -1 m 256
 574 -1 782 144 889 333 c 257
 887 304 883 231 883 201 c 256
 883 71 938 0 1069 0 c 256
 1273 0 1442 149 1553 263 c 257
 1553 263 1556 286 1556 313 c 256
 1556 354 1549 406 1520 406 c 256
 1510 406 1499 400 1483 387 c 256
 1410 330 1293 192 1170 192 c 256
 1124 192 1119 240 1119 290 c 256
 1119 514 1183 695 1253 903 c 256
 1255 909 1256 913 1256 918 c 256
 1256 947 1222 960 1181 960 c 256
 1102 960 1048 924 1020 863 c 256
 986.999 792 947 677 921 578 c 257
 750 382 583 220 478 220 c 256
 410 220 368 288 368 461 c 256
 368 498 370 547 386 565 c 256
 630 836 917 1194 917 1694 c 256
 917 1810 888 1920 773 1920 c 256
 633 1920 543 1835 470 1748 c 256
 238 1474 110 997.999 110 519 c 256
 110 311 177 -1 387 -1 c 256
388 740 m 257
 388 974.999 472 1641 698 1641 c 256
 719 1641 729 1620 729 1593 c 256
 729 1552 717 1508 704 1460 c 256
 633 1198 510 955 388 740 c 257
1250 1089 m 256
 1366 1089 1444 1155 1444 1268 c 256
 1444 1366 1372 1408 1274 1408 c 256
 1164 1408 1078 1345 1078 1241 c 256
 1078 1140 1143 1089 1250 1089 c 256
EndSplineSet
Ligature2: "'dlig' Discretionary Ligatures in Latin lookup 6 subtable" l i
EndChar

StartChar: l_k
Encoding: 65582 -1 323
Width: 2001
VWidth: 0
Flags: W
LayerCount: 2
Fore
SplineSet
1653 -20 m 256
 1837 -20 2079 156 2164 293 c 256
 2210 367 2121 499 2066 419 c 256
 1930 222 1620 41 1642 235 c 256
 1654 342 1974 512 1995 723 c 256
 2008 854 1941 939 1811 941 c 256
 1575 944 1368 768 1107 284 c 257
 1143 584 l 257
 899 526 l 257
 894 426 892 330 897 230 c 256
 902 134 914 -11 997.999 -11 c 256
 1245 -11 1489 751 1703 718 c 256
 1735 713 1737 688 1735 672 c 256
 1724 560 1412 392 1416 184 c 256
 1419 22 1511 -20 1653 -20 c 256
447 -9 m 256
 612 -9 797 120 1018 463 c 256
 1097 585 959 661 911 582 c 256
 777 362 601 177 496 177 c 256
 348 177 369 392 392 560 c 257
 699 801 1031 1275 1062 1696 c 256
 1072 1818 993.999 1920 865 1920 c 256
 445 1920 188 1032 148 526 c 256
 123 205 197 -9 447 -9 c 256
899 526 m 257
 1143 584 l 257
 1540 978.999 1828 1445 1813 1696 c 256
 1806 1818 1745 1920 1616 1920 c 256
 1196 1920 939 1032 899 526 c 257
406 772 m 257
 450 1069 612 1680 797 1680 c 256
 833 1680 847 1662 847 1620 c 256
 847 1383 601 995.999 406 772 c 257
1157 803 m 257
 1201 1100 1363 1680 1548 1680 c 256
 1584 1680 1598 1662 1598 1620 c 256
 1598 1383 1352 1027 1157 803 c 257
EndSplineSet
Ligature2: "'dlig' Discretionary Ligatures in Latin lookup 6 subtable" l k
EndChar

StartChar: l_k.space
Encoding: 65583 -1 324
Width: 2270
VWidth: 0
Flags: W
LayerCount: 2
Fore
SplineSet
913 -8 m 256
 1089 -8 1259 472 1347 587 c 256
 1377 626 1404 694 1444 694 c 256
 1466 694 1479 689 1479 671 c 256
 1479 662 1474 651 1468 638 c 256
 1411 520 1292 367 1292 241 c 256
 1292 83 1407 -6 1539 -6 c 256
 1733 -6 1888 136 2023 431 c 256
 2039 468 2049 499 2049 525 c 256
 2049 586 2008 620 1967 620 c 256
 1942 620 1917 607 1901 581 c 256
 1819 447 1700 193 1555 193 c 256
 1524 193 1511 209 1511 236 c 256
 1511 355 1763 689 1763 776 c 256
 1763 889 1701 962 1591 962 c 256
 1548 962 1509 951 1475 930 c 256
 1339 845 1260 686 1154 559 c 257
 1136 572 l 257
 1249 752 l 257
 1386 995.999 1572 1320 1572 1685 c 256
 1572 1817 1533 1907 1400 1907 c 256
 1247 1907 1156 1799 1096 1698 c 256
 919 1402 846 949 828 486 c 257
 720 384 545 244 396 244 c 256
 340 244 330 397 330 461 c 256
 330 498 333 546 348 565 c 256
 411 644 473 729 533 821 c 256
 681 1047 849 1341 849 1694 c 256
 849 1810 820 1920 705 1920 c 256
 565 1920 472 1837 402 1748 c 256
 187 1476 72 997.999 72 519 c 256
 72 320 139 0 329 0 c 256
 524 0 678 88 823 208 c 257
 825 108 842 -8 913 -8 c 256
1052 685 m 257
 1071 936 1097 1186 1164 1397 c 256
 1192 1487 1238 1682 1350 1682 c 256
 1364 1682 1371 1671 1371 1650 c 256
 1371 1607 1355 1562 1342 1523 c 256
 1252 1251 1146 966 1052 685 c 257
320 740 m 257
 320 974.999 404 1641 630 1641 c 256
 651 1641 661 1620 661 1593 c 256
 661 1552 648 1508 635 1460 c 256
 564 1198 442 955 320 740 c 257
EndSplineSet
EndChar

StartChar: l_l
Encoding: 489 -1 325
Width: 1322
VWidth: 0
Flags: W
LayerCount: 2
Fore
SplineSet
1071 -2 m 256
 1227 -2 1418 97 1575 272 c 256
 1644 349 1552 412 1516 372 c 256
 1414 256 1235 124 1120 124 c 256
 933 124 929 319 974 623 c 257
 1483 968 1957 1851 1505 1851 c 256
 1111 1851 841 1023 802 524 c 256
 778 190 846 -2 1071 -2 c 256
983 760 m 257
 1021 1018 1224 1671 1437 1671 c 256
 1719 1671 1311 1035 983 760 c 257
EndSplineSet
Refer: 319 108 N 1 0 0 1 0 0 2
Ligature2: "'dlig' Discretionary Ligatures in Latin lookup 6 subtable" l l
EndChar

StartChar: l_t
Encoding: 65584 -1 326
Width: 1380
VWidth: 0
Flags: W
LayerCount: 2
Fore
SplineSet
1230 -9 m 256
 1413 -9 1556 150 1672 331 c 257
 1689 355 1695 379 1695 399 c 256
 1695 450 1655 484 1622 484 c 256
 1610 484 1600 479 1592 470 c 256
 1515 381 1395 204 1249 204 c 256
 1139 204 1074 311 1074 531 c 256
 1074 663 1133 753 1214 922 c 257
 1478 922 l 258
 1515 922 1542 961 1542 1001 c 256
 1542 1075 1489 1080 1398 1080 c 258
 1370 1080 l 258
 1351 1080 1336 1079 1325 1080 c 257
 1400 1192 1502 1329 1502 1499 c 256
 1502 1637 1445 1792 1311 1792 c 256
 1266 1792 1224 1772 1183 1732 c 256
 1039 1589 957 1324 909 1080 c 257
 860 1080 l 258
 787 1080 733 1072 733 1019 c 256
 733 967 789 922 881 922 c 257
 875 878 853 744 843 682 c 257
 737 503 591 224 434 224 c 256
 378 224 368 391 368 461 c 256
 368 498 371 546 386 565 c 256
 449 644 512 729 572 821 c 256
 720 1047 887 1341 887 1694 c 256
 887 1810 858 1920 743 1920 c 256
 603 1920 510 1837 440 1748 c 256
 225 1476 110 997.999 110 519 c 256
 110 320 177 0 367 0 c 256
 555 0 725 196 858 396 c 257
 891 176 983.999 -9 1230 -9 c 256
1100 1080 m 257
 1121 1081 1140 1080 1161 1080 c 257
 1220 1178 1285 1294 1325 1408 c 256
 1336 1441 1342 1469 1342 1490 c 256
 1342 1532 1332 1568 1289 1568 c 256
 1182 1568 1122 1178 1100 1080 c 257
358 740 m 257
 358 974.999 442 1641 668 1641 c 256
 689 1641 699 1620 699 1593 c 256
 699 1552 687 1508 674 1460 c 256
 603 1198 480 955 358 740 c 257
EndSplineSet
Ligature2: "'dlig' Discretionary Ligatures in Latin lookup 6 subtable" l t
EndChar

StartChar: less
Encoding: 28 60 339
Width: 1184
VWidth: 0
Flags: W
LayerCount: 2
Fore
SplineSet
936 156 m 256
 980.002 156 1009 174.351 1009 205 c 256
 1009 277.142 987.291 325.774 902.82 343.644 c 256
 674.465 391.718 168.09 589.203 228.39 622.884 c 257
 198.35 681.665 976.208 877.025 1046.51 900.46 c 256
 1099.52 918.129 1104 924.028 1104 962 c 256
 1104 1047.19 1055.69 1108.34 989.979 1089.66 c 257
 421.171 854.227 95.8798 720.906 87.8972 623.518 c 256
 69.3262 399.782 771.929 156 936 156 c 256
EndSplineSet
EndChar

StartChar: logicalnot
Encoding: 107 172 342
Width: 1216
VWidth: 0
Flags: W
LayerCount: 2
Fore
SplineSet
911 245 m 256
 961.263 245 986.463 294.501 990.044 354.477 c 258
 1010 691.677 l 257
 1009.64 724.174 983.893 743 940 743 c 258
 309 743 l 258
 246.977 743 195 714.657 195 666 c 256
 195 621.774 235.784 601 293 601 c 258
 862.501 601 l 257
 847 335.295 l 257
 847.204 283.045 869.995 245 911 245 c 256
EndSplineSet
EndChar

StartChar: lslash
Encoding: 257 322 344
Width: 575
VWidth: 0
Flags: W
LayerCount: 2
Fore
SplineSet
351 0 m 256
 374 0 398 4 424 9.99999 c 256
 590 50 715 137 840 227 c 257
 758 437 l 257
 712 400 668 368 626 340 c 256
 573 305 499 244 418 244 c 256
 362 244 352 397 352 461 c 256
 352 498 355 546 370 565 c 256
 433 644 496 729 556 821 c 256
 627 930 703 1054 762 1193 c 257
 858 1214 l 258
 949 1234 1060 1237 1060 1338 c 256
 1060 1397 1035 1434 978.999 1434 c 256
 967 1434 956 1433 947 1430 c 257
 910 1422 872 1413 834 1405 c 257
 857 1496 871 1593 871 1694 c 256
 871 1810 842 1920 727 1920 c 256
 587 1920 494 1837 424 1748 c 256
 326 1624 249 1459 194 1269 c 257
 88 1252 -99 1237 -99 1144 c 256
 -99 1087 -65 1031 -5 1031 c 256
 3 1031 12 1032 22 1034 c 256
 62 1042 103 1051 144 1060 c 257
 111 888 93.9999 703 93.9999 519 c 256
 93.9999 320 161 0 351 0 c 256
422 1316 m 257
 472 1495 546 1641 652 1641 c 256
 673 1641 683 1620 683 1593 c 256
 683 1520 650 1425 628 1360 c 257
 559 1345 490 1331 422 1316 c 257
342 740 m 257
 342 825 353 965 377 1110 c 257
 434 1122 490 1134 547 1146 c 257
 485 1002 414 866 342 740 c 257
EndSplineSet
EndChar

StartChar: m
Encoding: 77 109 345
Width: 1425
VWidth: 0
Flags: W
PickledData: "(dp1
S'com.typemytype.robofont.layerData'
p2
(dp3
s."
LayerCount: 2
Fore
SplineSet
1243 -7 m 256
 1368 -22 1538 61 1691 263 c 257
 1692 263 l 257
 1726 298 1642 368 1619 330 c 257
 1617 330 l 257
 1547 256 1411 120 1300 118 c 256
 1080 114 1447 707 1377 882 c 256
 1316 1034 993 922 762 238 c 257
 832 551 909 795 869 885 c 256
 816 1005 539 901 254 191 c 257
 329 582 375 798 401 886 c 256
 418 944 387 963 363 964 c 256
 328 965 283 944 251 830 c 256
 222 728 172 536 121 161 c 256
 109 71 125 -8 196 -8 c 256
 274 -8 288 7 362 186 c 256
 469 446 698 804 736 765 c 256
 756 744 639 295 627 94 c 256
 622 8 664 -8 693 -8 c 256
 720 -8 764 -5 812 116 c 256
 921 384 1177 833 1220 757 c 256
 1254 697 1072 371 1084 153 c 256
 1090 47 1171 2 1243 -7 c 256
EndSplineSet
Substitution2: "'fina' Terminal Forms in Latin lookup 5 subtable" m.fina
Substitution2: "'init' Initial Forms in Latin lookup 4 subtable" m.init
EndChar

StartChar: m.fina
Encoding: 65593 -1 346
Width: 1447
VWidth: 0
Flags: W
LayerCount: 2
Fore
SplineSet
229 -8 m 256
 313 -8 310 13 386 186 c 256
 476 393 678.967 747.16 717.046 721.004 c 257
 730 702 641 312 632 114 c 256
 627 8 678 -8 701 -8 c 256
 730 -8 783 -7 827 113 c 256
 887 277 1112.17 731.095 1154.24 689.92 c 257
 1158 550 1073 292 1072 140 c 256
 1071 47 1102 -8 1216 -7 c 256
 1344 -6 1515 64 1658 263 c 257
 1692 299 1602 378 1573 330 c 257
 1506 256 1384 129 1286 127 c 256
 1116 123 1294 447 1330 895 c 256
 1332 929 1307 963 1251 961 c 256
 1189 959 1164 928 1147 910 c 256
 1130 892 977 708 787 328 c 257
 832 581 871 804 870 885 c 256
 869 945 840 959 815 959 c 256
 685 959 464 641 317 349 c 257
 358 729 416 818 419 903 c 257
 420 961 383 964 359 964 c 256
 266 966 199 867 138 180 c 257
 132 88 149 -8 229 -8 c 256
EndSplineSet
EndChar

StartChar: m.init
Encoding: 65594 -1 347
Width: 1447
VWidth: 0
Flags: W
LayerCount: 2
Fore
SplineSet
1241 -7 m 256
 1365 -5 1572 105 1696 281 c 256
 1721 319 1608 429 1557 375 c 256
 1455 272 1362 205 1317 192 c 257
 1265 181 1244 210 1252 275 c 256
 1265 388 1349 730 1347 874 c 256
 1346 919 1307 967 1230 963 c 257
 1196 963 1161 951 1132 921 c 256
 1027 813 921 665 851 501 c 258
 814 409 l 258
 814 411 887 817 887 872 c 256
 887 926 826 960 772 960 c 256
 744 960 721 951 700 934 c 256
 580 834 445 655 376 501 c 257
 333 412 l 257
 350 493 408 735 435 856 c 256
 436 861 436 868 436 874 c 256
 436 929 397 964 346 964 c 256
 285 964 241 918 224 866 c 256
 165 683 120 430 120 201 c 256
 120 91 138 -2 241 -2 c 256
 295 -2 343 20 361 65 c 256
 450 286 572 484 700 677 c 257
 668 515 635 368 615 179 c 256
 606 92 628 -2 706 -2 c 256
 768 -2 825 15 841 65 c 256
 908 277 1048 488 1149 677 c 257
 1128 573 1064 327 1056 211 c 256
 1046 64 1096 -9 1241 -7 c 256
79 410 m 256
 153 437 249 488 239 494 c 257
 216 670 l 257
 216 670 111 620 32 593 c 256
 -48 565 6 382 79 410 c 256
EndSplineSet
EndChar

StartChar: macron
Encoding: 110 175 348
Width: 600
VWidth: 0
Flags: W
LayerCount: 2
Fore
SplineSet
55 2412 m 258
 555 2443 l 258
 591 2445 608 2475 608 2501 c 256
 608 2524 598 2546 552 2545 c 258
 61 2529 l 258
 14 2527 2 2499 2 2471 c 256
 2 2431 22 2411 55 2412 c 258
EndSplineSet
EndChar

StartChar: minus
Encoding: 471 8722 351
Width: 1216
VWidth: 0
Flags: W
LayerCount: 2
Fore
SplineSet
315 596 m 258
 917 596 l 258
 976.738 596 1004 627.458 1004 691 c 256
 1004 728.425 976.674 748 929 748 c 258
 331 748 l 258
 265.842 748 212 719.652 212 666 c 256
 212 618.631 256.639 596 315 596 c 258
EndSplineSet
EndChar

StartChar: multiply
Encoding: 150 215 353
Width: 1280
VWidth: 0
Flags: W
LayerCount: 2
Fore
SplineSet
940 188 m 256
 977.619 188 1004 214.38 1004 252 c 256
 1004 288.496 984.747 314.967 959.857 339.858 c 257
 799.626 512.06 l 257
 965.417 688.688 l 258
 985.994 709.278 997 728.356 997 761 c 256
 997 804.596 971.513 840 932 840 c 256
 906.766 840 890.318 827.972 872.517 810.232 c 257
 691.339 608.442 l 257
 503.572 808.149 l 258
 482.317 830.29 464.795 838 444 838 c 256
 404.358 838 379 803.486 379 759 c 256
 379 726.356 390.006 707.278 410.142 687.142 c 258
 585.239 512.045 l 257
 416.142 341.858 l 258
 391.252 316.967 372 290.496 372 254 c 256
 372 216.38 398.38 190 436 190 c 256
 478 190 494.824 207.108 519.388 231.656 c 257
 691.425 415.747 l 257
 855.919 229.32 l 258
 879.116 203.339 902.892 188 940 188 c 256
EndSplineSet
EndChar

StartChar: n
Encoding: 78 110 354
Width: 1083
VWidth: 0
Flags: W
PickledData: "(dp1
S'com.typemytype.robofont.layerData'
p2
(dp3
s."
LayerCount: 2
Fore
SplineSet
859 -12 m 256
 965 -23 1166 36 1318 297 c 256
 1343 340 1253 422 1212 353 c 256
 1106 177 1008 124 937 117 c 256
 850 109 825 144 833 209 c 256
 853 382 947 648 1012 844 c 256
 1028 893 986 959 888 959 c 256
 780 959 483 773 265 225 c 257
 274 400 374 791 411 891 c 256
 422 920 385 955 339 955 c 256
 291 955 277 923 254 872 c 256
 176 688 127 385 125 186 c 256
 124 80 123 0 200 0 c 256
 275 0 299 13 338 102 c 257
 505 568 791 804 824 785 c 256
 860 764 683 419 679 177 c 256
 677 62 752 -1 859 -12 c 256
EndSplineSet
Substitution2: "'fina' Terminal Forms in Latin lookup 5 subtable" n.fina
Substitution2: "'init' Initial Forms in Latin lookup 4 subtable" n.init
EndChar

StartChar: n.fina
Encoding: 65596 -1 355
Width: 947
VWidth: 0
Flags: W
LayerCount: 2
Fore
SplineSet
792 -12 m 256
 888 -12 1141 57 1241 245 c 256
 1257 276 1187 416 1128 349 c 256
 1080 294 939 179 877 179 c 256
 825 179 793 235 793 300 c 256
 793 412 849 620 849 802 c 256
 849 886 817 960 740 960 c 256
 533 960 409 612 332 464 c 257
 347 548 396 748 396 875 c 256
 396 926 367 960 326 960 c 256
 126 960 114 417 114 209 c 256
 114 99.9999 132 0 241 0 c 256
 297 0 322 27 344 71 c 258
 622 591 l 257
 606 485 592 378 592 264 c 256
 592 104 647 -12 792 -12 c 256
EndSplineSet
EndChar

StartChar: n.init
Encoding: 65597 -1 356
Width: 994
VWidth: 0
Flags: W
LayerCount: 2
Fore
SplineSet
789 -12 m 256
 885 -12 1120 97.9999 1244 276 c 256
 1269 312 1156 422 1105 370 c 256
 1003 265 910 198 865 187 c 256
 813 174 792 203 800 270 c 256
 813 381 897 723 895 869 c 256
 894 912 855 960 778 960 c 256
 657 960 505 739 336 438 c 257
 362 562 410 762 442 860 c 256
 459 911 411 964 352 964 c 256
 281 964 247 918 226 861 c 256
 158 674 122 417 120 216 c 256
 119 107 130 0 239 0 c 256
 317 0 347 20 386 121 c 256
 457 305 602 549 697 672 c 257
 676 566 612 320 604 206 c 256
 594 57 644 -12 789 -12 c 256
79 410 m 256
 153 437 249 488 239 494 c 257
 216 670 l 257
 216 670 111 620 32 593 c 256
 -48 565 6 382 79 410 c 256
EndSplineSet
EndChar

StartChar: nine
Encoding: 25 57 361
Width: 1209
VWidth: 0
Flags: W
LayerCount: 2
Fore
SplineSet
273 -126 m 256
 301 -126 320 -117 349 -104 c 256
 695 64 1097 429 1097 932 c 256
 1097 1233 929 1421 658 1421 c 256
 364 1421 126 1204 126 909 c 256
 126 684 293 504 464 504 c 256
 564 504 734 511 865 637 c 257
 745 371 513 165 252 12 c 257
 217 -10 196 -35 196 -71 c 256
 196 -103 225 -126 273 -126 c 256
559 625 m 257
 411 625 361 748 361 890 c 256
 361 1065 464 1294 653 1294 c 256
 818 1294 907 1167 907 970 c 256
 907 781 806 614 559 625 c 257
EndSplineSet
EndChar

StartChar: numbersign
Encoding: 3 35 366
Width: 1248
VWidth: 0
Flags: W
LayerCount: 2
Fore
SplineSet
235 -33 m 256
 295 -33 322 -5 345 41 c 256
 416 181 481 319 546 460 c 257
 675 460 808 462 931 463 c 257
 794 70 797 81 797 39 c 256
 797 -11 823 -29 880 -29 c 256
 937 -29 963 -3 982 43 c 256
 1039 184 1093 322 1145 463 c 257
 1167 463 l 258
 1298 463 1393 493 1393 603 c 256
 1393 629 1373 640 1334 643 c 257
 1209 643 l 257
 1251 759 1290 873 1327 989 c 257
 1514 987 1609 1011 1609 1131 c 256
 1609 1160 1594 1169 1552 1169 c 258
 1391 1169 l 257
 1416 1328 1520 1486 1520 1570 c 256
 1520 1611 1511 1631 1478 1631 c 256
 1271 1631 1250 1342 1183 1169 c 257
 1074 1169 958 1167 851 1168 c 257
 882 1249 1017 1536 1017 1566 c 256
 1017 1610 1012 1627 956 1627 c 256
 892 1627 825 1565 798 1497 c 257
 649 1168 l 257
 465 1168 355 1169 355 1074 c 256
 355 1001 402 986 570 989 c 257
 415 642 l 257
 256 643 167 635 167 549 c 256
 167 487 282 459 355 467 c 257
 324 401 213 214 173 66 c 256
 149 -21 180 -33 235 -33 c 256
626 639 m 257
 678 759 726 872 775 989 c 257
 1119 989 l 257
 1029 736 1016 698 996 641 c 257
 931 639 891 639 626 639 c 257
EndSplineSet
EndChar

StartChar: o
Encoding: 79 111 367
Width: 896
VWidth: 0
Flags: W
PickledData: "(dp1
S'com.typemytype.robofont.layerData'
p2
(dp3
s."
AnchorPoint: "ogonek" -7 0 basechar 0
LayerCount: 2
Fore
SplineSet
355 -8 m 256
 643 -8 772 285 801 463 c 257
 927 462 1132 564 1227 737 c 256
 1256 790 1177 852 1146 810 c 256
 1032 657 957 612 817 577 c 257
 850 828 755 965 575 965 c 256
 309 965 74 635 74 331 c 256
 74 139 175 -8 355 -8 c 256
414 120 m 256
 268 110 232 226 232 343 c 256
 232 580 396 837 576 837 c 256
 696 837 664 651 664 651 c 257
 563 625 544 478 661 462 c 257
 654 322 553 130 414 120 c 256
EndSplineSet
Substitution2: "'fina' Terminal Forms in Latin lookup 5 subtable" o.fina
Substitution2: "Single Substitution lookup 3 subtable" ordmasculine
EndChar

StartChar: o.fina
Encoding: 65599 -1 368
Width: 894
VWidth: 0
Flags: W
LayerCount: 2
Fore
SplineSet
383 0 m 256
 692 0 794 237 829 357 c 257
 940 357 1129 399 1225 464 c 257
 1242 479 1250 502 1250 525 c 256
 1250 570 1223 617 1189 617 c 256
 1180 617 1171 614 1161 607 c 257
 1044 547 921 529 869 529 c 256
 847 529 894 966 589 966 c 256
 305 966 65 673 65 355 c 256
 65 158 179 0 383 0 c 256
403 186 m 256
 321 186 286 256 286 347 c 256
 286 519 410 768 561 768 c 256
 592 768 608 765 605 761 c 256
 564 705 545 657 545 610 c 256
 545 544 582 481 649 403 c 257
 636 321 538 186 403 186 c 256
EndSplineSet
EndChar

StartChar: o_o
Encoding: 65600 -1 369
Width: 1689
VWidth: 0
Flags: W
LayerCount: 2
Fore
SplineSet
407 0 m 256
 663 0 745 236 785 410 c 257
 790 407 797 405 808 405 c 256
 857 405 902 426 943 462 c 257
 944 217 1041 0 1263 0 c 256
 1517 0 1669 246 1669 503 c 256
 1669 595 1644 683 1611 749 c 257
 1666 699 1770 576 1834 355 c 256
 1846 315 1880 298 1914 298 c 256
 1954 298 1978 313 1978 354 c 256
 1978 415 1935 511 1923 546 c 257
 1828 783 1662 960 1411 960 c 256
 1201 960 1051 853 979.999 686 c 257
 945 636 906 602 851 602 c 256
 841 602 836 607 836 618 c 256
 836 808 738 960 555 960 c 256
 253 960 77 739 77 437 c 256
 77 206 176 0 407 0 c 256
446 192 m 256
 314 192 271 313 271 446 c 256
 271 588 364 768 504 768 c 256
 514 768 519 766 519 762 c 256
 519 758 516 753 510 746 c 256
 488 722 459 686 459 641 c 256
 459 538 553 481 618 440 c 257
 618 340 553 192 446 192 c 256
1302 192 m 256
 1193 192 1157 287 1157 396 c 256
 1157 538 1225 768 1360 768 c 256
 1456 768 1477 650 1477 551 c 256
 1477 425 1420 192 1302 192 c 256
EndSplineSet
Ligature2: "'dlig' Discretionary Ligatures in Latin lookup 6 subtable" o o
EndChar

StartChar: o_o_s
Encoding: 65601 -1 370
Width: 2374
VWidth: 0
Flags: W
LayerCount: 2
Fore
SplineSet
1915 -9 m 256
 2156 -9 2263 114 2263 279 c 256
 2263 322 2253 364 2236 405 c 257
 2285 411 2331 412 2372 412 c 256
 2443 412 2494 372 2576 372 c 256
 2591 372 2617 415 2617 446 c 256
 2617 458 2613 468 2603 474 c 257
 2526 545 2471 621 2394 621 c 256
 2316 621 2229 598 2144 560 c 257
 2089 624 2037 672 2024 692 c 257
 2025 699 2033 711 2045 726 c 257
 2138 765 2257 829 2257 878 c 256
 2257 918 2225 964 2131 964 c 256
 1970 964 1932 752 1702 731 c 257
 1671 855 1586 960 1430 960 c 256
 1142 960 972.999 651 972.999 383 c 256
 972.999 179 1076 0 1304 0 c 256
 1531 0 1674 216 1697 562 c 257
 1782 568 1811 588 1867 622 c 257
 1904 578 1945 524 1983 465 c 257
 1850 378 1751 263 1751 150 c 256
 1751 37 1843 -9 1915 -9 c 256
397 0 m 256
 651 0 803 246 803 503 c 256
 803 550 790 645 763 690 c 257
 891 607 937 439 1058 439 c 256
 1135 439 1268 490 1268 610 c 256
 1268 651 1249 678 1235 678 c 256
 1199 678 1104 612 1079 612 c 256
 1074 612 1071 614 1070 616 c 256
 967.999 816 766 960 565 960 c 256
 250 960 67 740 67 437 c 256
 67 206 166 0 397 0 c 256
436 192 m 256
 327 192 291 287 291 396 c 256
 291 538 359 768 494 768 c 256
 590 768 611 650 611 551 c 256
 611 425 554 192 436 192 c 256
1343 192 m 256
 1211 192 1168 313 1168 446 c 256
 1168 588 1251 768 1376 768 c 256
 1507 768 1506 609 1506 537 c 256
 1506 369 1433 192 1343 192 c 256
1924 151 m 256
 1916 151 1893 154 1893 163 c 256
 1893 252 2001 328 2054 355 c 257
 2065 330 2071 305 2071 282 c 256
 2071 225 1983 151 1924 151 c 256
EndSplineSet
Ligature2: "'dlig' Discretionary Ligatures in Latin lookup 6 subtable" o o s
EndChar

StartChar: o_s
Encoding: 65602 -1 371
Width: 1561
VWidth: 0
Flags: W
LayerCount: 2
Fore
SplineSet
1131 -9 m 256
 1392 -9 1632 101 1779 224 c 257
 1767 343 1778 416 1743 416 c 256
 1728 416 1705 403 1668 374 c 256
 1586 309 1497 251 1403 226 c 257
 1413 258 1417 288 1417 316 c 256
 1417 447 1329 541 1320 672 c 257
 1321 679 1329 691 1341 706 c 256
 1377 750 1423 822 1423 878 c 256
 1423 925 1391 960 1294 960 c 256
 1217 960 1176 910 1143 864 c 256
 1070 762 985.999 602 841 602 c 256
 831 602 826 607 826 618 c 256
 826 808 728 960 545 960 c 256
 243 960 67 739 67 437 c 256
 67 206 166 0 397 0 c 256
 646 0 726 237 765 412 c 257
 770 409 777 407 788 407 c 256
 960 407 1082 523 1129 605 c 257
 1162 530 1207 400 1207 292 c 256
 1207 220 1177 160 1080 160 c 256
 1011 160 980.999 256 930 256 c 256
 899 256 870 243 842 190 c 257
 867 54 970.999 -9 1131 -9 c 256
436 192 m 256
 304 192 261 313 261 446 c 256
 261 588 354 768 494 768 c 256
 504 768 509 766 509 762 c 256
 509 758 506 753 500 746 c 256
 478 722 449 686 449 641 c 256
 449 549 545 498 611 461 c 257
 611 352 545 192 436 192 c 256
EndSplineSet
Ligature2: "'dlig' Discretionary Ligatures in Latin lookup 6 subtable" o s
EndChar

StartChar: o_x
Encoding: 65603 -1 372
Width: 1765
VWidth: 0
Flags: W
LayerCount: 2
Fore
SplineSet
1476 -30 m 256
 1508 -30 1540 -25 1572 -14 c 256
 1734 40 1859 165 1956 284 c 257
 1956 314 1955 339 1955 368 c 256
 1955 398 1954 422 1954 454 c 257
 1889 369 1729 193 1585 193 c 256
 1518 193 1451 338 1420 386 c 257
 1503 492 1593 593 1700 672 c 256
 1730 694 1753 732 1753 780 c 256
 1753 842 1721 895 1659 895 c 256
 1624 895 1596 883 1572 864 c 256
 1476 789 1394 696 1322 603 c 257
 1291 664 1264 718 1242 765 c 256
 1212 828 1203 896 1136 896 c 256
 1124 896 1113 892 1104 884 c 256
 1038 827 961 602 841 602 c 256
 831 602 826 607 826 618 c 256
 826 808 728 960 545 960 c 256
 243 960 67 739 67 437 c 256
 67 206 166 0 397 0 c 256
 646 0 726 237 765 412 c 257
 770 409 777 407 788 407 c 256
 896 407 1016 512 1061 584 c 257
 1086 530 1113 479 1141 430 c 257
 1116 376 1062 317 1020 274 c 256
 974.999 228 876 168 876 94.9999 c 256
 876 31 945 -26 1009 -26 c 256
 1035 -26 1050 -16 1059 3 c 257
 1071 9 1086 20 1103 36 c 256
 1161 89 1223 158 1278 215 c 257
 1318 146 1384 -30 1476 -30 c 256
436 192 m 256
 304 192 261 313 261 446 c 256
 261 588 354 768 494 768 c 256
 504 768 509 766 509 762 c 256
 509 758 506 753 500 746 c 256
 478 722 449 686 449 641 c 256
 449 549 545 498 611 461 c 257
 611 352 545 192 436 192 c 256
EndSplineSet
Ligature2: "'dlig' Discretionary Ligatures in Latin lookup 6 subtable" o x
EndChar

StartChar: oe
Encoding: 274 339 377
Width: 1301
VWidth: 0
Flags: W
LayerCount: 2
Fore
SplineSet
394 0 m 256
 545 0 652 119 704 224 c 257
 735 102 829 0 979.999 0 c 256
 1259 0 1452 173 1595 321 c 257
 1466 455 l 257
 1363 355 1189 212 995.999 212 c 256
 925 212 897 255 870 303 c 257
 1050 353 1275 486 1275 709 c 256
 1275 863 1166 959 1012 959 c 256
 891 959 799 895 736 768 c 257
 683 870 609 958 481 958 c 256
 447 958 413 951 379 937 c 256
 210 867 64 674 64 437 c 256
 64 206 163 0 394 0 c 256
433 192 m 256
 324 192 288 287 288 396 c 256
 288 538 356 768 491 768 c 256
 587 768 608 650 608 551 c 256
 608 425 551 192 433 192 c 256
847 470 m 257
 847 618 884 768 1034 768 c 256
 1074 768 1091 711 1091 665 c 256
 1091 569 946 470 847 470 c 257
EndSplineSet
EndChar

StartChar: ogonek
Encoding: 404 731 378
Width: 537
VWidth: 0
Flags: W
PickledData: "(dp1
S'com.typemytype.robofont.layerData'
p2
(dp3
s."
AnchorPoint: "ogonek" 338 0 mark 0
LayerCount: 2
Fore
SplineSet
327 -428 m 256
 414 -429 483 -392 533.979 -335 c 256
 545 -324 553 -309 553 -286 c 256
 553 -262 536 -220 516 -238 c 256
 468 -280 417 -320 346 -317 c 256
 305 -315 275 -286 274 -246 c 256
 272 -158 327 -61 394 10 c 257
 291 10 l 257
 246 -52 136 -188 148 -292 c 256
 156 -360 197 -427 327 -428 c 256
EndSplineSet
EndChar

StartChar: one
Encoding: 17 49 382
Width: 682
VWidth: 0
Flags: W
LayerCount: 2
Fore
SplineSet
264 0 m 256
 316 0 336 17 339 32 c 256
 429 499 592 1281 592 1372 c 256
 592 1428 549 1438 488 1438 c 256
 377 1438 287 1322 217 1261 c 257
 200 1242 176 1227 176 1208 c 256
 176 1190 188 1171 201 1171 c 256
 241 1171 382 1264 398 1281 c 257
 310 810 294 707 152 66 c 256
 140 8 215 0 264 0 c 256
EndSplineSet
EndChar

StartChar: onehalf
Encoding: 124 189 383
Width: 1729
VWidth: 0
Flags: W
LayerCount: 2
Fore
SplineSet
1072 26 m 256
 1175.29 26 1253.97 73.1103 1323 124.206 c 257
 1388.81 82.9274 1469.83 26 1561 26 c 256
 1672.39 26 1718 136 1718 217 c 256
 1718 221 1724 248 1691 248 c 256
 1671 248 1669 163 1592 163 c 256
 1519.48 163 1461.03 178.82 1412.13 204.291 c 257
 1492.21 293.817 1605 437.791 1605 598 c 256
 1605 795.135 1456.99 902 1260 902 c 256
 1093.44 902 899 810.941 899 663 c 256
 899 593.704 954 546 1017 538 c 256
 1062 533 1145 538 1145 576 c 256
 1145 609 1094 618 1094 660 c 256
 1094 740.5 1167.25 781 1241 781 c 256
 1353.63 781 1391 689.025 1391 583 c 256
 1391 459.871 1318.16 346.831 1264.32 281.04 c 257
 1191.24 315.499 1121.3 343 1016 343 c 256
 920.039 343 858 275.318 858 181 c 256
 858 85.8392 964.374 26 1072 26 c 256
361 795 m 256
 488.076 795 507.836 1140.79 527.419 1245.56 c 256
 550.757 1371.38 583 1465.18 583 1563 c 256
 583 1611.56 540.492 1641 486 1641 c 256
 397.282 1641 296.054 1596.23 235.985 1581.73 c 256
 160.877 1563.21 80 1557.66 80 1506 c 256
 80 1472.28 106.539 1438 136 1438 c 256
 150.523 1438 239.018 1480.57 397.222 1502.16 c 257
 355.529 1313.13 267 898.269 267 866 c 256
 267 815.907 302.315 795 361 795 c 256
437 256 m 256
 472.686 256 499.898 278.266 517.749 307.168 c 256
 719.293 632.431 901.158 977.177 1091.45 1300.68 c 256
 1110.95 1333.82 1126 1364.76 1126 1402 c 256
 1126 1432.63 1106.44 1447 1072 1447 c 256
 1024.27 1447 979.652 1423.31 962.309 1394.93 c 256
 781.678 1100.53 606.932 776 437.872 471.892 c 256
 404.99 412.493 374 383.224 374 323 c 256
 374 283.152 400.542 256 437 256 c 256
1059 141 m 256
 1025.8 141 978 163.649 978 205 c 256
 978 247.295 1022.55 265 1064 265 c 256
 1109.55 265 1175.54 228.231 1184.32 200.491 c 257
 1141.12 163.227 1094.26 141 1059 141 c 256
EndSplineSet
Ligature2: "'frac' Diagonal Fractions in Latin lookup 0 subtable" one slash two
EndChar

StartChar: onequarter
Encoding: 123 188 384
Width: 1759
VWidth: 0
Flags: W
LayerCount: 2
Fore
SplineSet
1394 -20 m 256
 1456 -20 1484 -26 1496 -5 c 257
 1517 43 1458 17 1458 110 c 257
 1462 140 1466 191 1484 222 c 257
 1544 220 1600 216 1657 216 c 256
 1675 216 1687 250 1687 331 c 256
 1687 352 1679 360 1660 360 c 256
 1604 360 1573.73 339.793 1509.02 330.988 c 257
 1526.88 412.528 1590 504.862 1590 593 c 256
 1590 612.816 1581.85 617 1541 617 c 256
 1405.66 617 1398 446 1354 328 c 257
 1289 315 1247.12 318.667 1183.73 319.827 c 257
 1263.52 504.206 1452 899 1392 899 c 257
 1392 899.247 1332.58 903 1303 903 c 256
 1245.75 903 1224 894 1218 869 c 256
 1171 667 1072.99 485.408 996.845 314.847 c 256
 979.164 275.063 946 239.21 946 205 c 256
 946 189.792 947.269 190 952 190 c 256
 1079.99 190 1166 233 1337 222 c 257
 1321 159 1298 125.473 1298 58 c 256
 1298 -4 1324.28 -20 1394 -20 c 256
361 729 m 256
 488.076 729 507.836 1074.79 527.419 1179.56 c 256
 550.757 1305.38 583 1399.18 583 1497 c 256
 583 1545.56 540.492 1575 486 1575 c 256
 397.282 1575 296.054 1530.23 235.985 1515.73 c 256
 160.877 1497.21 80 1491.66 80 1440 c 256
 80 1407.34 104.893 1374.16 133.224 1372.1 c 257
 398.148 1440.36 l 257
 356.855 1253.34 267 832.51 267 800 c 256
 267 749.907 302.315 729 361 729 c 256
546 242 m 256
 581 242 609 264 626 293 c 256
 828 618 1010 963 1200 1287 c 256
 1220 1320 1235 1351 1235 1388 c 256
 1235 1419 1215 1433 1181 1433 c 256
 1133 1433 1088 1409 1071 1381 c 256
 890 1087 717 762 548 458 c 256
 515 398 483 369 483 309 c 256
 483 269 509 242 546 242 c 256
EndSplineSet
Ligature2: "'frac' Diagonal Fractions in Latin lookup 0 subtable" one slash four
EndChar

StartChar: ordfeminine
Encoding: 105 170 386
Width: 928
VWidth: 0
Flags: W
LayerCount: 2
Fore
SplineSet
712 824 m 256
 855 824 1008 1014 993 1058 c 257
 977 1118 l 257
 960 1187 874 972 739 971.999 c 256
 677.562 971.999 676 1040.72 676 1084 c 256
 676 1233.54 731 1351.54 731 1487 c 256
 731 1541.72 705 1542 681 1542 c 256
 568 1542 627 1607 569 1607 c 256
 532 1607 476 1607 400 1572 c 257
 246.852 1505.56 89 1297.56 89 1047 c 256
 89 922.496 163.316 827 281 827 c 256
 407.845 827 525 924 558.572 992.958 c 257
 591.155 905.474 623.655 824 712 824 c 256
353 943.999 m 256
 276.643 943.999 260 1024.44 260 1084 c 256
 260 1259.05 389.711 1519.24 584.272 1489.69 c 257
 525.492 1207.98 l 258
 508.447 1124.76 468.027 943.999 353 943.999 c 256
EndSplineSet
EndChar

StartChar: ordmasculine
Encoding: 121 186 387
Width: 799
VWidth: 0
Flags: W
LayerCount: 2
Fore
SplineSet
383 937 m 256
 264.325 937 228 1038.42 228 1143 c 256
 228 1273.36 290.543 1495 433 1495 c 256
 541.169 1495 564 1365.63 564 1277 c 256
 564 1160.36 512.597 937 383 937 c 256
355 831 m 256
 575.263 831 693 1067.93 693 1301 c 256
 693 1463.7 630.416 1601 483 1601 c 256
 257.192 1601 100 1410.27 100 1179 c 256
 100 990.76 177.964 831 355 831 c 256
EndSplineSet
EndChar

StartChar: os.fina
Encoding: 65604 -1 388
Width: 1491
VWidth: 0
Flags: W
LayerCount: 2
Fore
SplineSet
1033 -9 m 256
 1274 -9 1381 114 1381 279 c 256
 1381 322 1371 364 1354 405 c 257
 1403 411 1449 412 1490 412 c 256
 1561 412 1612 372 1694 372 c 256
 1709 372 1735 415 1735 446 c 256
 1735 458 1731 468 1721 474 c 257
 1644 545 1589 621 1512 621 c 256
 1434 621 1347 598 1262 560 c 257
 1207 624 1155 672 1142 692 c 257
 1143 699 1151 711 1163 726 c 257
 1212 765 1275 829 1275 878 c 256
 1275 925 1255 960 1196 960 c 256
 1106 960 1012 767 820 751 c 257
 809 864 704 960 548 960 c 258
 545 960 l 258
 243 960 67 739 67 437 c 256
 67 206 166 0 397 0 c 256
 638 0 791 216 815 562 c 257
 900 568 929 588 984.999 622 c 257
 1022 578 1063 524 1101 465 c 257
 973.999 370 879 243 879 120 c 256
 879 28 965 -9 1033 -9 c 256
436 192 m 256
 304 192 261 313 261 446 c 256
 261 588 354 768 494 768 c 256
 531 768 549 766 549 762 c 258
 549 737 l 258
 549 698 554 624 611 591 c 257
 613 573 614 555 614 537 c 256
 614 369 534 192 436 192 c 256
1042 151 m 256
 1034 151 1011 154 1011 163 c 256
 1011 252 1119 328 1172 355 c 257
 1183 330 1189 305 1189 282 c 256
 1189 225 1101 151 1042 151 c 256
EndSplineSet
EndChar

StartChar: oslash
Encoding: 183 248 389
Width: 897
VWidth: 0
Flags: W
LayerCount: 2
Fore
SplineSet
69 -92 m 256
 356 309 671 712 1175 1056 c 256
 1235 1097 1194 1187 1103 1123 c 256
 616 781 318 347 36 -40 c 256
 -22 -120 36 -137 69 -92 c 256
EndSplineSet
Refer: 367 111 N 1 0 0 1 0 0 2
EndChar

StartChar: p
Encoding: 80 112 392
Width: 935
VWidth: 0
Flags: W
PickledData: "(dp1
S'com.typemytype.robofont.layerData'
p2
(dp3
s."
LayerCount: 2
Fore
SplineSet
828 360 m 256
 931 360 1121 438 1209 557 c 257
 1220 576 1229 596 1234 620 c 257
 1239 651 1228 692 1204 678 c 256
 1195 672 1170 652 1152 637 c 256
 1036 541 897 516 849 516 c 256
 814 516 782 681 716 681 c 256
 711 681 690 687 658 645 c 256
 620 592 622 534 634 488 c 256
 655 409 701 360 828 360 c 256
8 -653 m 256
 55 -653 149 -624 148 -584 c 256
 141 -299 163 -34 201 94 c 257
 258 37 363 0 418 0 c 256
 690 0 861 341 861 616 c 256
 861 793 796 953 572 960 c 256
 225 973 118 509 66 251 c 256
 52 180 -2 -182 -20 -445 c 256
 -20 -452 -24 -653 8 -653 c 256
434 152 m 256
 377 152 309 162 229 227 c 257
 244 325 294 830 570 830 c 256
 673 830 718 685 718 558 c 256
 718 370 615 152 434 152 c 256
EndSplineSet
Substitution2: "'fina' Terminal Forms in Latin lookup 5 subtable" p.fina
Substitution2: "'init' Initial Forms in Latin lookup 4 subtable" p.init
EndChar

StartChar: p.fina
Encoding: 65605 -1 393
Width: 846
VWidth: 0
Flags: W
LayerCount: 2
Fore
SplineSet
-18 -778 m 256
 29 -778 75 -759 119 -721 c 256
 282 -581 348 -286 348 25 c 257
 342 114 l 257
 346 114 l 258
 731 114 870 320 870 621 c 256
 870 837 750 960 517 960 c 256
 217 960 104 686 104 297 c 256
 104 219 105 139 108 56 c 257
 -59 -72 -219 -235 -219 -498 c 256
 -219 -644 -162 -778 -18 -778 c 256
44 -549 m 256
 0 -549 -24 -484 -24 -441 c 256
 -24 -322 27 -211 114 -90 c 257
 114 -173 l 258
 114 -313 111 -549 44 -549 c 256
324 278 m 257
 324 457 333 774 529 774 c 256
 630 774 673 710 673 636 c 256
 673 460 567 290 324 278 c 257
EndSplineSet
EndChar

StartChar: p.init
Encoding: 65606 -1 394
Width: 898
VWidth: 0
Flags: W
LayerCount: 2
Fore
SplineSet
-88 -608 m 256
 -41 -608 4 -588 49 -551 c 256
 215 -417 284 -141 284 153 c 257
 357 24 499 -10 642 -10 c 256
 801 -10 967 75 1093 289 c 256
 1104 307 1114 324 1114 349 c 256
 1114 402 1068 493 1030 493 c 256
 1021 493 1013 488 1006 477 c 256
 934 355 801 151 594 151 c 256
 537 151 496 160 475 212 c 257
 725 299 903 457 903 693 c 256
 903 864 804 960 608 960 c 256
 138 960 109 542 68 236 c 257
 -114 106 -289 -60 -289 -328 c 256
 -289 -474 -232 -608 -88 -608 c 256
-54 -424 m 256
 -85 -424 -109 -385 -109 -316 c 256
 -109 -213 31 -1 69 40 c 257
 69 -43 l 258
 69 -311 -2 -424 -54 -424 c 256
308 329 m 257
 323 490 360 774 584 774 c 256
 671 774 708 730 708 677 c 256
 708 506 487 385 308 329 c 257
EndSplineSet
EndChar

StartChar: p_t
Encoding: 65607 -1 395
Width: 1716
VWidth: 0
Flags: W
LayerCount: 2
Fore
SplineSet
35 -537 m 256
 85 -537 138 -503 150 -428 c 257
 173 -339 220 -28 237 63 c 257
 294 11 355 -16 416 -16 c 256
 710 -16 889 330 889 616 c 256
 889 805 799 966 598 966 c 256
 186 966 77 535 43 254 c 256
 36 192 -41 -159 -65 -425 c 256
 -65 -429 -66 -433 -66 -437 c 256
 -66 -501 -17 -537 35 -537 c 256
826 350 m 256
 936 350 1125 486 1220 697 c 257
 1237 714 1245 738 1245 763 c 256
 1245 806 1219 851 1185 851 c 256
 1176 851 1166 847 1156 840 c 257
 1057 615 927 546 883 546 c 256
 875 546 766 704 695 704 c 256
 680 704 666 697 656 680 c 256
 619 610 602 553 602 508 c 256
 602 396 687 350 826 350 c 256
1393 -9 m 256
 1558 -9 1707 62 1869 243 c 256
 1968 352 1825 450 1766 383 c 256
 1665 269 1547 177 1442 177 c 256
 1289 177 1316 476 1343 672 c 257
 1625 882 1896 1258 1924 1626 c 256
 1933 1732 1889 1822 1772 1824 c 256
 1396 1828 1164 1073 1117 635 c 256
 1083 311 1143 -9 1393 -9 c 256
411 182 m 256
 364 182 314 199 261 239 c 257
 295 386 316 774 551 774 c 256
 632 774 686 673 686 558 c 256
 686 382 571 182 411 182 c 256
1232 636 m 257
 1315 672 1638 773 1821 792 c 256
 1911 801 1869 978.999 1768 965 c 256
 1618 947 1414 888 1183 796 c 257
 1232 636 l 257
1363 827 m 257
 1403 1086 1527 1583 1735 1582 c 256
 1754 1581 1762 1563 1758 1540 c 257
 1728 1276 1542 1022 1363 827 c 257
EndSplineSet
Ligature2: "'dlig' Discretionary Ligatures in Latin lookup 6 subtable" p t
EndChar

StartChar: paragraph
Encoding: 117 182 396
Width: 1308
VWidth: 0
Flags: W
LayerCount: 2
Fore
SplineSet
589 22 m 256
 637.633 22 676.782 37.5759 682.629 61.1574 c 257
 844.354 940.405 l 257
 912.263 952.187 1021.39 955.929 1074.86 966.695 c 257
 940.026 92.8699 l 257
 941.011 53.3672 969.443 30 1011 30 c 256
 1075.1 30 1116.81 77.1302 1132.05 133.879 c 256
 1223.44 469.626 1267.28 865.182 1328.42 1223.02 c 256
 1346.83 1331.43 1381 1431 1381 1519 c 256
 1381 1710.98 1097.98 1713 862 1713 c 258
 860 1713 l 258
 545.234 1713 126 1589.42 126 1295 c 256
 126 1052.13 358.771 946.562 630.159 956.659 c 257
 579.489 630.328 495 154.999 495 81 c 256
 495 41.8161 536.122 22 589 22 c 256
EndSplineSet
EndChar

StartChar: parenleft
Encoding: 8 40 397
Width: 1377
VWidth: 0
Flags: W
LayerCount: 2
Fore
SplineSet
1040 -353 m 256
 1109.36 -353 1237 -345 1237 -282 c 256
 1237 -217 1149.15 -236 1029.79 -216 c 256
 723.731 -163 605 97.5807 605 430 c 256
 605 871.085 825.698 1391.16 1243.27 1694.2 c 256
 1335.33 1761.33 1381 1815.42 1381 1854 c 256
 1381 1877.38 1365.94 1892 1335 1892 c 256
 1315.96 1892 1295.95 1887.2 1268.35 1875.24 c 256
 717.197 1624.72 399 993.059 399 410 c 256
 399 -40 626.765 -353 1040 -353 c 256
EndSplineSet
EndChar

StartChar: parenright
Encoding: 9 41 398
Width: 1377
VWidth: 0
Flags: W
LayerCount: 2
Fore
SplineSet
345 -353 m 256
 866.518 -353 1193 141.482 1193 769 c 256
 1193 1236.66 996.01 1676.58 600.754 1875.67 c 256
 576.565 1887.31 557.042 1892 538 1892 c 256
 502.271 1892 478 1870.55 478 1837 c 256
 478 1801.06 512.175 1751.62 580.313 1692.94 c 256
 855.354 1456.61 985 1089.28 985 733 c 256
 985 254.275 789.829 -151 396.036 -216 c 256
 275.997 -236 167 -215 167 -297 c 256
 167 -346 279.613 -353 345 -353 c 256
EndSplineSet
EndChar

StartChar: percent
Encoding: 5 37 401
Width: 2208
VWidth: 0
Flags: W
LayerCount: 2
Fore
SplineSet
455 732 m 256
 503 732 545 740 586 757 c 256
 783 838 925 1067 925 1347 c 256
 925 1578 819 1738 594 1738 c 256
 286 1738 119 1470 119 1155 c 256
 119 923 231 732 455 732 c 256
761 45 m 257
 1285 878 1638 1612 1638 1689 c 256
 1638 1750 1575 1798 1503 1678 c 258
 659 274 l 258
 613 197 566 122 588 55 c 257
 614 -29 716 -34 761 45 c 257
473 874 m 256
 348 874 325 1065 325 1176 c 256
 325 1348 385 1596 568 1596 c 256
 696 1596 731 1463 731 1349 c 256
 731 1181 652 874 473 874 c 256
1687 129 m 256
 1569 129 1543 289 1543 392 c 256
 1543 571 1592 851 1782 851 c 256
 1909 851 1925 664 1925 554 c 256
 1925 400 1853 129 1687 129 c 256
1669 -13 m 256
 1891 -13 2121 220 2121 572 c 256
 2121 807 2031 993 1808 993 c 256
 1494 993 1337 703 1337 380 c 256
 1337 156 1450 -13 1669 -13 c 256
EndSplineSet
EndChar

StartChar: period
Encoding: 14 46 402
Width: 882
VWidth: 0
Flags: W
LayerCount: 2
Fore
SplineSet
502 0 m 256
 593 0 643 55 643 144 c 256
 643 223 601 260 519 260 c 256
 430 260 382 206 382 118 c 256
 382 37 422 0 502 0 c 256
EndSplineSet
EndChar

StartChar: periodcentered
Encoding: 118 183 403
Width: 704
VWidth: 0
Flags: W
LayerCount: 2
Fore
SplineSet
484 25 m 256
 587.932 25 647 89.6543 647 191 c 256
 647 282.015 597.266 328 503 328 c 256
 401.399 328 345 263.661 345 162 c 256
 345 69.7445 391.967 25 484 25 c 256
EndSplineSet
EndChar

StartChar: perthousand
Encoding: 456 8240 404
Width: 3169
VWidth: 0
Flags: W
LayerCount: 2
Fore
SplineSet
455 732 m 256
 503 732 545 740 586 757 c 256
 783 838 925 1067 925 1347 c 256
 925 1578 819 1738 594 1738 c 256
 286 1738 119 1470 119 1155 c 256
 119 923 231 732 455 732 c 256
761 45 m 257
 1285 878 1638 1612 1638 1689 c 256
 1638 1750 1575 1798 1503 1678 c 258
 659 274 l 258
 613 197 566 122 588 55 c 257
 614 -29 716 -34 761 45 c 257
473 874 m 256
 348 874 325 1065 325 1176 c 256
 325 1348 385 1596 568 1596 c 256
 696 1596 731 1463 731 1349 c 256
 731 1181 652 874 473 874 c 256
1687 129 m 256
 1569 129 1543 289 1543 392 c 256
 1543 571 1592 851 1782 851 c 256
 1909 851 1925 664 1925 554 c 256
 1925 400 1853 129 1687 129 c 256
1669 -13 m 256
 1891 -13 2121 220 2121 572 c 256
 2121 807 2031 993 1808 993 c 256
 1494 993 1337 703 1337 380 c 256
 1337 156 1450 -13 1669 -13 c 256
2626 129 m 256
 2508 129 2482 289 2482 392 c 256
 2482 571 2531 851 2721 851 c 256
 2848 851 2864 664 2864 554 c 256
 2864 400 2792 129 2626 129 c 256
2608 -13 m 256
 2830 -13 3060 220 3060 572 c 256
 3060 807 2970 993 2747 993 c 256
 2433 993 2276 703 2276 380 c 256
 2276 156 2389 -13 2608 -13 c 256
EndSplineSet
EndChar

StartChar: plus
Encoding: 11 43 406
Width: 1503
VWidth: 0
Flags: W
LayerCount: 2
Fore
SplineSet
768 80 m 256
 819.393 80 845 130.649 845 193 c 258
 845 436 l 257
 1096 436 l 258
 1152.71 436 1195 471.46 1195 525 c 256
 1195 564.958 1165.22 588 1115 588 c 258
 845 588 l 257
 845 855 l 258
 845 905.217 821.958 935 782 935 c 256
 728.46 935 693 892.714 693 836 c 258
 693 588 l 257
 453 588 l 258
 390.649 588 340 562.393 340 511 c 256
 340 460.525 387.713 436 449 436 c 258
 693 436 l 257
 693 189 l 258
 693 127.713 717.525 80 768 80 c 256
EndSplineSet
EndChar

StartChar: plusminus
Encoding: 112 177 407
Width: 1503
VWidth: 0
Flags: W
LayerCount: 2
Fore
SplineSet
768 276 m 256
 819.393 276 845 326.649 845 389 c 258
 845 632 l 257
 1096 632 l 258
 1152.71 632 1195 667.46 1195 721 c 256
 1195 760.958 1165.22 784 1115 784 c 258
 845 784 l 257
 845 1051 l 258
 845 1101.22 821.958 1131 782 1131 c 256
 728.46 1131 693 1088.71 693 1032 c 258
 693 784 l 257
 453 784 l 258
 390.649 784 340 758.393 340 707 c 256
 340 656.525 387.713 632 449 632 c 258
 693 632 l 257
 693 385 l 258
 693 323.713 717.525 276 768 276 c 256
396.252 -30 m 257
 1137.51 28.9445 l 258
 1193.98 33.1583 1225 70.3201 1225 105 c 256
 1225 132.488 1200 160.837 1141.5 160.999 c 257
 407.895 123.02 l 258
 353.336 120.577 330 85.0686 330 46 c 256
 330 6.2199 353.699 -30 396.252 -30 c 257
EndSplineSet
EndChar

StartChar: q
Encoding: 81 113 409
Width: 975
VWidth: 0
Flags: W
LayerCount: 2
Fore
SplineSet
580 132 m 257
 55 1 170 836 585 836 c 256
 656 836 752 808 745 772 c 256
 728 687 657 340 580 132 c 257
765 215 m 258
 806 360 874 639 903 791 c 256
 916 857 751 965 571 965 c 257
 -75 941 -61 -168 563 14 c 257
 509 -187 420 -474 343 -707 c 256
 323 -767 469 -837 495 -744 c 258
 765 215 l 258
765 253 m 257
 891 252 1137 494 1223 667 c 256
 1249 720 1167 782 1138 740 c 256
 1032 587 942 432 804 397 c 257
 537 536 507 87 765 253 c 257
EndSplineSet
EndChar

StartChar: question
Encoding: 31 63 410
Width: 1292
VWidth: 0
Flags: W
LayerCount: 2
Fore
SplineSet
602 472 m 256
 638 472 659 507 677 551 c 256
 776 799 1131 842 1131 1264 c 256
 1131 1456.89 977 1602 783 1602 c 256
 652 1602 449 1526 439 1370 c 257
 439 1318.2 469.111 1270 511 1270 c 256
 599.236 1270 627 1457 782 1457 c 256
 894 1457 972 1374 972 1257 c 256
 972 983 544 899 544 506 c 256
 544 484 566 472 602 472 c 256
558 0 m 256
 660 0 716 62 716 161 c 256
 716 250 669 293 577 293 c 256
 478 293 424 232 424 132 c 256
 424 42 468 0 558 0 c 256
EndSplineSet
EndChar

StartChar: questiondown
Encoding: 126 191 411
Width: 1292
VWidth: 0
Flags: W
LayerCount: 2
Fore
SplineSet
772 30 m 256
 903.466 30 1116 113.654 1116 232 c 256
 1116 278.449 1087.5 317 1048 317 c 256
 1029.43 317 1015.7 308.273 1004.68 293.582 c 256
 960.943 237.348 875.32 162 771 162 c 256
 651.179 162 608 244.296 608 357 c 256
 608 636.679 1005 710.679 1005 1052 c 256
 1005 1074.24 982.851 1086 947 1086 c 256
 910.682 1086 889.391 1051.16 871.947 1007.09 c 256
 854.037 961.198 821.752 924.301 790.953 894.53 c 256
 617.899 725.645 424 651.88 424 338 c 256
 424 145.106 577.905 30 772 30 c 256
977.999 1279 m 256
 1077.32 1279 1131 1340.21 1131 1440 c 256
 1131 1530.11 1087.04 1572 996.999 1572 c 256
 895.281 1572 839 1510.41 839 1411 c 256
 839 1322.18 885.681 1279 977.999 1279 c 256
EndSplineSet
EndChar

StartChar: quotedbl
Encoding: 2 34 412
Width: 1184
VWidth: 0
Flags: W
LayerCount: 2
Fore
SplineSet
664 1160 m 256
 696.664 1160 723.052 1192.73 731.434 1234.64 c 256
 758.324 1377.05 777.227 1546.42 797.263 1750.91 c 256
 798 1753.87 798 1756.36 798 1762 c 256
 798 1807.55 764.506 1831 724 1831 c 256
 662.052 1831 601 1792.01 601 1728 c 256
 601 1559.65 609 1405.65 609 1233 c 256
 609 1188.79 630.108 1160 664 1160 c 256
310 1160 m 256
 335.35 1160 361.668 1193.66 367.196 1233.12 c 256
 385.138 1375.66 403 1578.1 403 1747 c 256
 403 1803.82 369.386 1831 320 1831 c 256
 268.946 1831 217 1793.07 217 1728 c 256
 217 1560.56 238.835 1385.88 254.807 1236.1 c 256
 260.988 1186.65 276.232 1160 310 1160 c 256
EndSplineSet
EndChar

StartChar: quotedblbase
Encoding: 451 8222 413
Width: 1025
VWidth: 0
Flags: W
LayerCount: 2
Fore
SplineSet
368 -191 m 256
 470 -191 514 -75 558 -8 c 256
 580 26 582 26 604 60 c 256
 631 102 671 143 671 205 c 256
 671 282 592 321 514 321 c 256
 445 321 392 291 377 237 c 256
 347 128 287 9.99999 287 -109 c 256
 287 -158 321 -191 368 -191 c 256
759 -191 m 256
 861 -191 906 -75 950 -8 c 258
 993.999 60 l 258
 1021 102 1062 143 1062 205 c 256
 1062 282 982.999 321 905 321 c 256
 836 321 783 291 768 237 c 256
 738 128 678 9.99999 678 -109 c 256
 678 -158 712 -191 759 -191 c 256
EndSplineSet
EndChar

StartChar: quotedblleft
Encoding: 449 8220 414
Width: 1184
VWidth: 0
Flags: W
LayerCount: 2
Fore
SplineSet
302 1214 m 256
 372 1214 460 1255 438 1321 c 257
 398 1468 469 1624 469 1782 c 256
 469 1828 449 1858 416 1858 c 256
 375 1858 346 1821 332 1776 c 256
 287 1639 204 1455 204 1301 c 256
 204 1243 243 1214 302 1214 c 256
669 1214 m 256
 739 1214 824 1255 805 1321 c 257
 769 1481 836 1624 836 1782 c 256
 836 1828 816 1858 783 1858 c 256
 742 1858 713 1821 699 1776 c 257
 653 1639 570 1455 570 1301 c 256
 570 1243 610 1214 669 1214 c 256
EndSplineSet
EndChar

StartChar: quotedblright
Encoding: 450 8221 415
Width: 1184
VWidth: 0
Flags: W
LayerCount: 2
Fore
SplineSet
242 1203 m 256
 283 1202 313 1239 327 1284 c 257
 376 1420 462 1602 465 1756 c 256
 466 1814 427 1844 368 1845 c 256
 298 1846 212 1807 230 1740 c 257
 263 1580 193 1438 190 1280 c 256
 190 1234 209 1204 242 1203 c 256
609 1196 m 257
 650 1196 680 1232 694 1277 c 257
 742 1413 828 1596 831 1750 c 256
 832 1808 794 1837 735 1838 c 256
 665 1840 576 1800 597 1734 c 257
 634 1586 560 1431 557 1273 c 256
 556 1227 576 1197 609 1196 c 257
EndSplineSet
EndChar

StartChar: quoteleft
Encoding: 446 8216 416
Width: 704
VWidth: 0
Flags: W
LayerCount: 2
Fore
SplineSet
288 1224 m 256
 333.114 1224 368.68 1254.4 376.27 1316.64 c 258
 428.976 1767.68 l 258
 429 1768.81 429 1770.16 429 1772 c 256
 429 1800.51 417.025 1815 408 1815 c 256
 379.795 1815 355.876 1786.28 344.248 1748.29 c 257
 325.124 1754.15 l 257
 324.825 1753.25 l 257
 343.65 1746.49 l 257
 295.904 1613.41 210 1437.74 210 1293 c 256
 210 1244.06 237.664 1224 288 1224 c 256
EndSplineSet
EndChar

StartChar: quoteright
Encoding: 447 8217 417
Width: 640
VWidth: 0
Flags: W
LayerCount: 2
Fore
SplineSet
270 1225 m 256
 288.851 1225 305.934 1244.03 313.502 1270.86 c 257
 332.751 1265.43 l 257
 332.949 1266.09 l 257
 313.897 1272.17 l 257
 459.769 1728.76 l 258
 462.909 1738.97 464 1746.06 464 1754 c 256
 464 1792.28 426.66 1816 390 1816 c 256
 339.081 1816 296.233 1784.4 291.897 1725.13 c 258
 260 1281.56 l 257
 260 1270 l 258
 260 1234.31 265.317 1225 270 1225 c 256
EndSplineSet
EndChar

StartChar: quotesinglbase
Encoding: 448 8218 418
Width: 609
VWidth: 0
Flags: W
LayerCount: 2
Fore
SplineSet
368 -191 m 256
 470 -191 514 -75 558 -8 c 256
 580 26 582 26 604 60 c 256
 631 102 671 143 671 205 c 256
 671 282 592 321 514 321 c 256
 445 321 392 291 377 237 c 256
 347 128 287 9.99999 287 -109 c 256
 287 -158 321 -191 368 -191 c 256
EndSplineSet
EndChar

StartChar: quotesingle
Encoding: 7 39 419
Width: 524
VWidth: 0
Flags: W
LayerCount: 2
Fore
SplineSet
163 1138 m 256
 187 1138 287 1225 326 1287 c 257
 366 1348 556 1621 556 1749 c 256
 556 1800 528 1831 467 1831 c 256
 367 1831 301 1446 155.657 1216.27 c 257
 136 1182 127 1138 163 1138 c 256
EndSplineSet
EndChar

StartChar: r
Encoding: 82 114 420
Width: 873
VWidth: 0
Flags: W
PickledData: "(dp1
S'com.typemytype.robofont.layerData'
p2
(dp3
s."
LayerCount: 2
Fore
SplineSet
219 -2 m 256
 282 -2 283 15 301 56 c 257
 490 572 761 953 698.418 724.386 c 257
 633.714 533.13 656.129 303.386 855.06 329.74 c 256
 945.104 341.564 1031 420 1077 479 c 256
 1126 542 1078 611 1025 558 c 256
 843 377 754 435 803 641 c 256
 854 850 871 963 744 963 c 256
 576 963 354 508 295 325 c 257
 315 605 381 800 405 897 c 256
 414 932 391 964 352 964 c 256
 297 964 279 939 253 854 c 256
 198 681 143 383 141 184 c 256
 140 79 139 -2 219 -2 c 256
EndSplineSet
EndChar

StartChar: r_s
Encoding: 65608 -1 421
Width: 1641
VWidth: 0
Flags: W
LayerCount: 2
Fore
SplineSet
1152 -9 m 256
 1393 -9 1500 114 1500 279 c 256
 1500 322 1490 364 1473 405 c 257
 1522 411 1568 412 1609 412 c 256
 1680 412 1731 372 1813 372 c 256
 1828 372 1854 415 1854 446 c 256
 1854 458 1850 468 1840 474 c 257
 1763 545 1708 621 1631 621 c 256
 1553 621 1466 598 1381 560 c 257
 1340 615 1301 655 1291 672 c 257
 1292 679 1300 691 1312 706 c 256
 1348 750 1394 822 1394 878 c 256
 1394 925 1362 960 1265 960 c 256
 1188 960 1141 913 1114 864 c 256
 1049 747 949 494 797 494 c 256
 753 494 739 525 739 572 c 256
 739 636 779 755 779 844 c 256
 779 910 757 960 682 960 c 256
 526 960 460 783 407 676 c 257
 396 676 l 257
 395 710 394 745 394 780 c 256
 394 874 419 960 322 960 c 256
 136 960 108 404 108 209 c 256
 108 99.9999 126 0 235 0 c 256
 308 0 327 77 348 135 c 258
 527 634 l 257
 543 634 l 257
 545 531 552 285 779 285 c 256
 936 285 1069 429 1144 542 c 257
 1168 521 1195 494 1220 465 c 257
 1093 370 997.999 243 997.999 120 c 256
 997.999 28 1084 -9 1152 -9 c 256
1161 151 m 256
 1153 151 1130 154 1130 163 c 256
 1130 252 1238 328 1291 355 c 257
 1302 330 1308 305 1308 282 c 256
 1308 225 1220 151 1161 151 c 256
EndSplineSet
Ligature2: "'dlig' Discretionary Ligatures in Latin lookup 6 subtable" r s
EndChar

StartChar: registered
Encoding: 109 174 426
Width: 1760
VWidth: 0
Flags: W
LayerCount: 2
Fore
SplineSet
517 391 m 256
 696.017 391 746 640 792 801 c 257
 1010 801 845 407 1004 407 c 256
 1141 407 1269 513 1259 548 c 257
 1249 568 l 257
 1231 616 1155.02 512 1093 512 c 256
 999 512 1104 756 964 816 c 257
 1112 824 1262 911.957 1262 1054 c 256
 1262 1189.29 1118 1287 910 1272 c 257
 865 1272 905 1247 833 1247 c 256
 742.492 1247 742 1139 677 901 c 257
 628 890 598 931 598 883 c 256
 598 859 609 815 655 815 c 257
 625 677 551 430 461 470 c 256
 440 479 426 439 426 426 c 256
 426 398 482.13 391 517 391 c 256
850 177 m 256
 492.284 177 225 357.768 225 712 c 256
 225 1034 485 1419 1026 1419 c 256
 1336.59 1419 1514 1236.15 1514 930 c 256
 1514 521.982 1268.88 177 850 177 c 256
855 63 m 256
 1231 63 1657 349 1657 921 c 256
 1657 1314.47 1402.78 1532 1001 1532 c 256
 492.23 1532 96 1238.38 96 736 c 256
 96 307.266 410.542 63 855 63 c 256
812 887 m 257
 798 899 860 1163 880.861 1163 c 257
 1053 1182 1123 1135 1123 1044 c 256
 1123 917 972 874 812 887 c 257
EndSplineSet
EndChar

StartChar: ring
Encoding: 403 730 427
Width: 737
VWidth: 0
Flags: W
PickledData: "(dp1
S'com.typemytype.robofont.layerData'
p2
(dp3
s."
LayerCount: 2
Fore
SplineSet
325 1185 m 256
 249 1185 202 1238 202 1314 c 256
 202 1434 300 1511 425 1511 c 256
 497 1511 535 1464 535 1396 c 256
 535 1280 445 1185 325 1185 c 256
327 1088 m 256
 508 1088 638 1216 638 1402 c 256
 638 1527 553 1609 431 1609 c 256
 258 1609 94.9999 1499 94.9999 1325 c 256
 94.9999 1179 186 1088 327 1088 c 256
EndSplineSet
EndChar

StartChar: s
Encoding: 83 115 428
Width: 860
VWidth: 0
Flags: W
PickledData: "(dp1
S'com.typemytype.robofont.layerData'
p2
(dp3
s."
LayerCount: 2
Fore
SplineSet
502 -8 m 256
 813 -8 991 133 1116 279 c 257
 1132 303 1073 404 1050 376 c 256
 1009 324 896 163 714 125 c 257
 895 436 479 700 558 841 c 256
 615 944 474 1034 406 904 c 256
 150 393 86 282 51 205 c 257
 77 120 228 -5 502 -8 c 256
436 108 m 256
 324 111 235 176 198 227 c 257
 249 322 411 628 411 628 c 257
 442 690 l 257
 695 318 663 99 436 108 c 256
EndSplineSet
Substitution2: "'fina' Terminal Forms in Latin lookup 5 subtable" s.fina
Substitution2: "'init' Initial Forms in Latin lookup 4 subtable" s.init
EndChar

StartChar: s.fin2
Encoding: 65609 -1 429
Width: 886
VWidth: 0
Flags: W
LayerCount: 2
Fore
SplineSet
473 -9 m 256
 714 -9 821 114 821 279 c 256
 821 322 807 376 790 417 c 257
 950 446 1066 403 1129 368 c 256
 1187 336 1252 436 1192 519 c 256
 1150 577 1075 616 998.999 621 c 256
 899 627 787 598 702 560 c 257
 661 615 494 674 484 678 c 257
 500 709 552 814 577 884 c 256
 593 928 565 964 468 964 c 256
 391 964 347 917 334 868 c 256
 270 635 149 411 88 348 c 256
 65 325 14 275 14 240 c 256
 14 206 32 179 83 179 c 256
 181 179 229 243 229 243 c 257
 266 283 358 382 417 532 c 257
 445 519 504 491 541 465 c 257
 414 370 319 243 319 120 c 256
 319 28 405 -9 473 -9 c 256
482 151 m 256
 473 151 448 154 451 165 c 256
 480 260 540 319 612 355 c 257
 623 330 629 305 629 282 c 256
 629 225 541 151 482 151 c 256
EndSplineSet
EndChar

StartChar: s.fina
Encoding: 65610 -1 430
Width: 886
VWidth: 0
Flags: W
LayerCount: 2
Fore
SplineSet
446 -9 m 256
 687 -9 794 114 794 279 c 256
 794 322 784 364 767 405 c 257
 816 411 862 412 903 412 c 256
 973.999 412 1025 372 1107 372 c 256
 1122 372 1148 415 1148 446 c 256
 1148 458 1144 468 1134 474 c 257
 1057 545 1002 621 925 621 c 256
 847 621 760 598 675 560 c 257
 634 615 596 655 586 672 c 257
 587 679 595 691 607 706 c 256
 643 750 688 822 688 878 c 256
 688 925 657 960 560 960 c 256
 483 960 436 913 409 864 c 256
 313 690 194 483 108 358 c 256
 89 331 48 295 48 260 c 256
 48 226 66 199 117 199 c 256
 215 199 256 270 256 270 c 257
 439 542 l 257
 463 521 489 494 514 465 c 257
 387 370 292 243 292 120 c 256
 292 28 378 -9 446 -9 c 256
455 151 m 256
 446 151 421 154 424 165 c 256
 453 260 513 319 585 355 c 257
 596 330 602 305 602 282 c 256
 602 225 514 151 455 151 c 256
EndSplineSet
EndChar

StartChar: s.init
Encoding: 65611 -1 431
Width: 1043
VWidth: 0
Flags: W
LayerCount: 2
Fore
SplineSet
673 -17 m 256
 897 -17 1186 152 1285 264 c 256
 1306 287 1316 309 1316 366 c 256
 1316 415 1304 457 1277 457 c 256
 1270 457 1261 455 1253 448 c 256
 1173 374 1092 297 960 227 c 257
 981.999 274 990.999 324 990.999 372 c 256
 990.999 474 882 571 842 623 c 257
 937 687 l 258
 983.999 718 995.999 780 995.999 845 c 256
 995.999 894 977.999 957 910 957 c 256
 840 957 772 908 712 834 c 257
 596 658 407 499 164 459 c 257
 153 433 133 396 133 361 c 256
 133 327 154 300 213 300 c 256
 221 300 230 299 239 299 c 256
 360 299 546 394 647 488 c 257
 700 445 771 370 771 308 c 256
 771 213 717 167 642 167 c 256
 628 167 613 179 596 179 c 256
 558 179 498 118 498 69 c 256
 498 0.999999 615 -17 673 -17 c 256
EndSplineSet
EndChar

StartChar: section
Encoding: 102 167 439
Width: 1440
VWidth: 0
Flags: W
LayerCount: 2
Fore
SplineSet
681 -108 m 256
 895 -108 1114 -18 1114 179 c 256
 1114 260 1089 312 1051 362 c 257
 1130 416 1198 507.849 1198 625 c 257
 1212 822 1062 904 937 972 c 257
 868 1011 631 1086 631 1212 c 256
 631 1321 742 1369 845 1369 c 256
 970 1369 1112 1312 1112 1175 c 256
 1112 1147 1102 1123 1102 1107 c 256
 1102 1077 1126 1056 1158 1056 c 256
 1212 1056 1240 1108 1240 1178 c 256
 1240 1363 1064 1488 874 1488 c 256
 661 1488 440 1409 440 1224 c 256
 440 1135 489 1086 544 1032 c 257
 455 984 376 918 376 809 c 256
 376 695 442.777 602.72 524.435 553.725 c 256
 635.791 486.911 939 408 939 207 c 256
 939 84 799 11 687 11 c 256
 557 11 405 58 405 203 c 256
 405 262 423 301 423 336 c 256
 423 348 403 357 370 357 c 256
 302 357 254 283 254 202 c 256
 254 -10 455 -108 681 -108 c 256
957.32 476.654 m 257
 921.286 500.036 888.176 522.794 852.028 541.452 c 256
 778.729 580.031 539 681 539 814 c 256
 539 889 590 942 630 971 c 257
 680 943 730 915 781 890 c 256
 861 851 1050 781 1036 625 c 257
 1036 554.363 990.38 501.202 957.32 476.654 c 257
EndSplineSet
EndChar

StartChar: semicolon
Encoding: 27 59 440
Width: 768
VWidth: 0
Flags: W
LayerCount: 2
Fore
SplineSet
368 -161 m 256
 456.787 -161 641 152.913 641 205 c 256
 641 259.358 581 291 514 291 c 256
 457.914 291 421.737 267.297 404.692 225.462 c 256
 374.839 153.814 317 4.39614 317 -109 c 256
 317 -141 337.152 -161 368 -161 c 256
544 702 m 256
 645.719 702 702 763.585 702 863 c 256
 702 951.817 655.319 995 563 995 c 256
 463.679 995 410 933.793 410 834 c 256
 410 743.894 453.961 702 544 702 c 256
EndSplineSet
EndChar

StartChar: seven
Encoding: 23 55 441
Width: 926
VWidth: 0
Flags: W
LayerCount: 2
Fore
SplineSet
220 -52 m 256
 293 -52 350 -29 371 34 c 256
 509 455 694 845 903 1177 c 257
 928 1221 995 1228 995 1282 c 256
 995 1324 985 1343 959 1343 c 256
 938 1343 846 1333 802 1333 c 256
 582 1333 473 1379 287 1379 c 256
 230 1379 191 1293 191 1185 c 256
 191 1126 212 1084 229 1084 c 256
 273 1084 236 1219 350 1219 c 258
 738 1219 l 257
 561 950 126 247 126 23 c 256
 126 -23 170 -52 220 -52 c 256
EndSplineSet
EndChar

StartChar: six
Encoding: 22 54 442
Width: 1166
VWidth: 0
Flags: W
LayerCount: 2
Fore
SplineSet
551 -30 m 256
 845 -30 1083 183 1083 478 c 256
 1083 703 944 879 757 879 c 256
 623 879 481 842 390 767 c 257
 476 976 706 1224 968 1377 c 257
 1003 1399 1023 1424 1023 1460 c 256
 1023 1492 995 1515 946 1515 c 256
 918 1515 900 1507 870 1493 c 256
 524 1325 112 958 112 455 c 256
 112 153 280 -30 551 -30 c 256
556 97 m 256
 391 97 306 262 306 406 c 256
 306 595 379 747 623 747 c 256
 770.727 747 848 638 848 497 c 256
 848 322 745 97 556 97 c 256
EndSplineSet
EndChar

StartChar: slash
Encoding: 15 47 443
Width: 1248
VWidth: 0
Flags: W
LayerCount: 2
Fore
SplineSet
341 2 m 256
 418.932 2 455.809 27.5661 482.756 79.7743 c 256
 734.397 578.977 932.366 1130.89 1163.88 1635.89 c 256
 1181.1 1675.72 1231 1747.57 1231 1783 c 256
 1231 1812.72 1212.01 1821 1184 1821 c 256
 1073.46 1821 995.469 1758.07 959.856 1681.5 c 256
 751.947 1224.7 539.021 740.869 335.952 280.715 c 256
 296.313 192.047 257 140.226 257 55 c 256
 257 9.44385 276.644 2 341 2 c 256
EndSplineSet
EndChar

StartChar: sterling
Encoding: 98 163 446
Width: 1505
VWidth: 0
Flags: W
LayerCount: 2
Fore
SplineSet
842 -14 m 256
 955 -14 1083 0 1187 13 c 256
 1344 32 1559 20 1559 155 c 256
 1559 200 1494 227 1433 227 c 256
 1256 227 1134 167 924 170 c 257
 853 158 968 614 984.825 798 c 257
 1263 798 l 258
 1343.11 798 1392 812.258 1392 868 c 256
 1392 935.223 1341.1 961.999 1264 961.999 c 258
 994.296 961.999 l 257
 988.904 1238.85 1055 1575 1344 1575 c 256
 1446 1575 1532 1534 1532 1411 c 256
 1532 1376 1565 1351 1606 1351 c 256
 1657 1351 1682 1390 1682 1453 c 256
 1682 1655 1550 1739 1343 1739 c 256
 956 1739 811 1428 820 962 c 257
 656 961.999 l 258
 586.545 961.999 555 938.49 555 879 c 256
 555 830.856 583.046 798 632 798 c 258
 802 798 l 257
 789 641 751 365 715 267 c 257
 701 224 685 170 685 120 c 256
 685 22 728 -14 842 -14 c 256
EndSplineSet
EndChar

StartChar: t
Encoding: 84 116 448
Width: 724
VWidth: 0
Flags: W
PickledData: "(dp1
S'com.typemytype.robofont.layerData'
p2
(dp3
s."
LayerCount: 2
Fore
SplineSet
426 -35 m 256
 616 -65 775 34 927 220 c 256
 994 301 900 363 866 320 c 256
 758 184 621 62 477 91 c 256
 280 131 319 487 349 684 c 257
 544 889 878 1276 908 1619 c 256
 917 1712 873 1790 776 1792 c 256
 410 1796 229 1034 169 603 c 257
 135 261 197 1 426 -35 c 256
56 516 m 256
 144 552 541 674 735 693 c 256
 788 698 785 803 719 794 c 256
 565 777 298 708 13 589 c 256
 -28 573 -3 490 56 516 c 256
343 806 m 257
 374 1004 530 1654 743 1652 c 256
 785 1652 777 1570 769 1534 c 256
 705 1228 466 988 343 806 c 257
EndSplineSet
Substitution2: "'fina' Terminal Forms in Latin lookup 5 subtable" t.fina
Substitution2: "'init' Initial Forms in Latin lookup 4 subtable" t.init
EndChar

StartChar: t.fina
Encoding: 65613 -1 449
Width: 767
VWidth: 0
Flags: W
LayerCount: 2
Fore
SplineSet
593 -11 m 256
 778 -11 931 114 1050 241 c 256
 1070 262 1073 289 1073 309 c 256
 1073 360 1033 394 999.999 394 c 256
 987.999 394 977.999 389 969.999 380 c 257
 888 326 745 201 607 201 c 256
 461 201 381 290 381 494 c 256
 381 660 411 738 462 922 c 257
 906 922 l 258
 943 922 969.999 961 969.999 1001 c 256
 969.999 1075 917 1080 826 1080 c 258
 618 1080 l 258
 599 1080 584 1079 573 1080 c 257
 673 1192 810 1329 810 1499 c 256
 810 1637 753 1792 619 1792 c 256
 574 1792 532 1772 491 1732 c 256
 347 1589 265 1324 217 1080 c 257
 108 1080 l 258
 35 1080 -19 1072 -19 1019 c 256
 -19 967 60 922 189 922 c 257
 166 837 150 738 150 645 c 256
 150 313 210 -11 593 -11 c 256
408 1080 m 257
 408 1081 409 1080 409 1080 c 257
 490 1178 578 1294 633 1408 c 257
 644 1441 650 1469 650 1490 c 256
 650 1532 640 1568 597 1568 c 256
 490 1568 430 1178 408 1080 c 257
EndSplineSet
EndChar

StartChar: t.init
Encoding: 65614 -1 450
Width: 888
VWidth: 0
Flags: W
LayerCount: 2
Fore
SplineSet
698 -9 m 256
 881 -9 1024 136 1140 301 c 256
 1157 325 1163 349 1163 369 c 256
 1163 420 1123 454 1090 454 c 256
 1078 454 1068 449 1060 440 c 256
 982.999 361 863 204 717 204 c 256
 614 204 541 316 541 494 c 256
 541 624 545 716 551 816 c 257
 583 846 627 878 682 922 c 257
 1066 922 l 258
 1103 922 1130 961 1130 1001 c 256
 1130 1075 1077 1080 985.999 1080 c 258
 838 1080 l 258
 819 1080 804 1079 793 1080 c 257
 868 1192 969.999 1329 969.999 1499 c 256
 969.999 1637 913 1792 779 1792 c 256
 734 1792 692 1772 651 1732 c 256
 507 1589 425 1324 377 1080 c 257
 268 1080 l 258
 195 1080 141 1072 141 1019 c 256
 141 967 220 922 349 922 c 257
 340 887 331 849 325 811 c 257
 190 677 77 600 -141 451 c 256
 -198 412 -75 275 -24 317 c 257
 102 392 210 471 312 557 c 257
 323 275 394 -9 698 -9 c 256
568 1080 m 257
 589 1081 608 1080 629 1080 c 257
 688 1178 753 1294 793 1408 c 256
 804 1441 810 1469 810 1490 c 256
 810 1532 800 1568 757 1568 c 256
 650 1568 590 1178 568 1080 c 257
EndSplineSet
EndChar

StartChar: t_t
Encoding: 65615 -1 451
Width: 1443
VWidth: 0
Flags: W
LayerCount: 2
Fore
SplineSet
425 0 m 256
 630 0 773 224 848 350 c 257
 871 193 927 0 1125 0 c 256
 1321 0 1491 130 1616 224 c 257
 1616 480 l 257
 1531 386 1357 224 1189 224 c 256
 1077 224 1042 304 1042 420 c 258
 1046 638 l 257
 1072 672 1105 714 1140 762 c 257
 1239 759 1360 753 1438 751 c 257
 1467 721 1571 924 1463 946 c 257
 1463 954 1369 958 1274 961 c 257
 1371 1123 1456 1315 1456 1499 c 256
 1456 1637 1399 1792 1265 1792 c 256
 1238 1792 1210 1783 1183 1764 c 256
 992.999 1627 881 1295 837 958 c 257
 755 954 673 950 592 945 c 257
 679 1110 756 1297 756 1499 c 256
 756 1637 699 1792 565 1792 c 256
 316 1792 209 1316 163 1088 c 257
 137 941 l 257
 105 944 73 946 40 946 c 256
 -27 946 -65 916 -65 884 c 256
 -65 834 25 802 119 784 c 257
 117 744 116 704 116 665 c 256
 116 380 157 0 425 0 c 256
472 223 m 256
 361 223 343 335 343 430 c 256
 343 515 411 629 491 766 c 257
 590 765 704 764 820 764 c 257
 818 719 816 675 816 631 c 257
 759 505 644 223 472 223 c 256
358 934 m 257
 382 1173 438 1568 543 1568 c 256
 586 1568 596 1532 596 1490 c 256
 596 1312 508 1107 428 937 c 257
 404 936 381 935 358 934 c 257
1054 965 m 257
 1077 1197 1133 1568 1243 1568 c 256
 1286 1568 1296 1532 1296 1490 c 256
 1296 1316 1201 1121 1118 965 c 257
 1054 965 l 257
EndSplineSet
Ligature2: "'dlig' Discretionary Ligatures in Latin lookup 6 subtable" t t
EndChar

StartChar: thorn
Encoding: 189 254 456
Width: 1023
VWidth: 0
Flags: W
LayerCount: 2
Fore
SplineSet
53 -668 m 256
 95.4091 -668 110.196 -650 119.52 -610 c 257
 248.828 83.5656 l 257
 434.607 14.4949 604 -12 731 119 c 257
 1015 203 1166 338 1143 374 c 257
 1122 409 l 257
 1103 445 987 308 795 268 c 257
 872 373 890 476.295 890 649 c 256
 890 802.225 824 953 647 953 c 256
 585 953 461 919 363 830 c 257
 461.392 1324.41 l 257
 471.185 1379.08 552.083 1416.13 553.708 1419.32 c 256
 572.869 1457.06 428.004 1536 367 1536 c 256
 338.286 1536 324.97 1510.39 312.034 1465.12 c 256
 245.407 1232.42 199.713 967.194 177.77 805.62 c 256
 107.472 290.43 -41 -170 -41 -563 c 256
 -41 -647 -10 -668 53 -668 c 256
266 207 m 257
 318 429 352 757 561 757 c 256
 661.871 757 716 706.93 716 607 c 256
 716 307 611 93 266 207 c 257
EndSplineSet
EndChar

StartChar: three
Encoding: 19 51 457
Width: 1129
VWidth: 0
Flags: W
LayerCount: 2
Fore
SplineSet
480 -4 m 256
 818 -4 1038 150 1038 436 c 256
 1038 632 960 773 731.42 854.351 c 257
 912.463 888.542 1047 1008 1047 1197 c 256
 1047 1389 849 1466 682 1466 c 256
 465 1466 253 1378 253 1279 c 256
 253 1250 279 1210 306 1210 c 256
 340 1210 444 1321 585 1321 c 256
 738 1321 804 1249 804 1173 c 256
 804 1037 614.251 884 444 884 c 256
 379.967 884 355 848.854 355 812 c 256
 355 797.879 372.18 785 402 785 c 256
 441.534 785 480.534 781 510 781 c 256
 708.677 781 815 602 815 440 c 256
 815 264 645 121 459 121 c 256
 357 121 222 171 222 253 c 256
 222 304 256 347 256 376 c 256
 256 434 214 485 127 485 c 256
 58 485 9 409 9 305 c 256
 9 141 203 -4 480 -4 c 256
EndSplineSet
EndChar

StartChar: threequarters
Encoding: 125 190 458
Width: 1793
VWidth: 0
Flags: W
LayerCount: 2
Fore
SplineSet
327 875 m 256
 504 875 623 956.164 623 1124 c 256
 623 1221 553 1309 405 1325 c 257
 504 1348 579 1425.62 579 1511 c 256
 579 1615.96 468.483 1668 351 1668 c 256
 237.412 1668 120 1630 120 1531 c 256
 120 1490 145 1462 174 1462 c 256
 191 1462 210 1463 213 1479 c 256
 216 1492 188 1479.23 188 1522 c 256
 188 1570.25 241.695 1593 281 1593 c 256
 341.37 1593 413 1569 413 1500 c 256
 413 1397 295.963 1352 215 1352 c 256
 196.344 1352 187 1350 187 1318 c 256
 187 1300 191.483 1293.5 211.917 1291.93 c 256
 332.04 1279.4 446 1271 446 1107 c 256
 446 1010 371 958 294 958 c 256
 232 958 176 999.607 176 1046 c 256
 176 1113 229 1113 229 1134 c 256
 229 1147 193.781 1156 157 1156 c 256
 100.414 1156 71 1129.69 71 1044 c 256
 71 930.923 171.309 875 327 875 c 256
1394 -20 m 256
 1456 -20 1484 -26 1496 -5 c 257
 1517 43 1458 17 1458 110 c 257
 1462 140 1466 191 1484 222 c 257
 1544 220 1600 216 1657 216 c 256
 1675 216 1687 250 1687 331 c 256
 1687 352 1679 360 1660 360 c 256
 1604 360 1573.73 339.793 1509.02 330.988 c 257
 1526.88 412.528 1590 504.862 1590 593 c 256
 1590 612.816 1581.85 617 1541 617 c 256
 1405.66 617 1398 446 1354 328 c 257
 1289 315 1247.12 318.667 1183.73 319.827 c 257
 1263.52 504.206 1452 899 1392 899 c 257
 1392 899.247 1332.58 903 1303 903 c 256
 1245.75 903 1224 894 1218 869 c 256
 1171 667 1072.99 485.408 996.845 314.847 c 256
 979.164 275.063 946 239.21 946 205 c 256
 946 189.792 947.269 190 952 190 c 256
 1079.99 190 1166 233 1337 222 c 257
 1321 159 1298 125.473 1298 58 c 256
 1298 -4 1324.28 -20 1394 -20 c 256
518 263 m 256
 553 263 581 285 598 314 c 256
 800 639 982 984 1172 1308 c 256
 1192 1341 1207 1372 1207 1409 c 256
 1207 1440 1187 1454 1153 1454 c 256
 1105 1454 1060 1430 1043 1402 c 256
 862 1108 689 783 520 479 c 256
 487 419 455 390 455 330 c 256
 455 290 481 263 518 263 c 256
EndSplineSet
Ligature2: "'frac' Diagonal Fractions in Latin lookup 0 subtable" three slash four
EndChar

StartChar: tilde
Encoding: 405 732 460
Width: 960
VWidth: 0
Flags: W
LayerCount: 2
Fore
SplineSet
646 2142 m 256
 742 2142 852 2268 852 2364 c 256
 852 2385 838 2397 809 2397 c 256
 725 2397 709 2280 630 2222 c 257
 567 2270 518 2311 481 2340 c 256
 420 2389 382 2430 310 2430 c 256
 214 2430 104 2304 104 2208 c 256
 104 2186 118 2175 147 2175 c 256
 227 2175 261 2300 324 2351 c 257
 388 2302 437 2262 475 2232 c 256
 536 2183 574 2142 646 2142 c 256
EndSplineSet
EndChar

StartChar: trademark
Encoding: 463 8482 461
Width: 2302
VWidth: 0
Flags: W
LayerCount: 2
Fore
SplineSet
873 380 m 256
 928 380 967.999 410 985.999 453 c 256
 1021 536 1054 635 1089 720 c 256
 1122 798 1211 1078 1306 1078 c 256
 1350 1078 1352 1016 1352 962 c 256
 1352 790 1270 626 1270 476 c 258
 1270 468 l 258
 1270 421 1295 380 1344 380 c 256
 1405 380 1450 408 1464 455 c 256
 1507 604 1587 1078 1777 1078 c 256
 1822 1078 1834 1040 1834 992.999 c 256
 1834 836 1748 715 1748 575 c 256
 1748 478 1799 400 1893 400 c 256
 2029 400 2114 485 2184 585 c 257
 2176 613 2150 729 2139 729 c 257
 2109 676 2015 540 1933 540 c 256
 1918 540 1910 551 1910 574 c 256
 1910 585 1914 606 1923 638 c 256
 1955 756 1992 905 1992 1056 c 256
 1992 1182 1942 1266 1814 1266 c 256
 1621 1266 1540 1024 1492 864 c 257
 1500 1014 l 258
 1501 1020 1501 1026 1501 1032 c 258
 1501 1050 l 258
 1501 1166 1460 1266 1356 1266 c 256
 1309 1266 1276 1245 1244 1218 c 256
 1092 1090 1019 866 947 647 c 257
 929 655 l 257
 975.999 803 1025 962 1072 1119 c 256
 1073 1125 1075 1131 1075 1138 c 256
 1075 1182 1039 1219 994.999 1219 c 256
 991.999 1219 986.999 1218 981.999 1217 c 256
 979.999 1217 978.999 1217 977.999 1218 c 256
 895 1249 804 1266 700 1266 c 256
 424 1266 116 1245 116 973.999 c 256
 116 920 146 880 204 880 c 256
 271 880 321 914 321 973.999 c 256
 321 1093 470 1102 578 1114 c 257
 556 1059 533 1002 508 941 c 256
 453 808 367 639 367 474 c 256
 367 421 394 390 443 390 c 256
 499 390 537 457 550 505 c 256
 602 693 651 906 714 1114 c 257
 774 1108 841 1087 897 1076 c 257
 884 868 762 712 762 493 c 256
 762 426 809 380 873 380 c 256
EndSplineSet
EndChar

StartChar: two
Encoding: 18 50 462
Width: 1101
VWidth: 0
Flags: W
LayerCount: 2
Fore
SplineSet
282 0 m 256
 404 0 493 68 576 139 c 257
 651 81 733 0 843 0 c 256
 951 0 987 96 987 190 c 256
 987 218 983 223 982 223 c 256
 968 223 951 168 882 168 c 256
 792 168 726 199 668 237 c 257
 780 380 964 673 964 925 c 256
 964 1185 783 1333 547 1333 c 256
 340 1333 123 1197 123 990 c 256
 123 874 199 807 273 807 c 256
 426 807 292 841 292 1001 c 256
 292 1120 403 1187 522 1187 c 256
 692 1187 751 1066 751 921 c 256
 751 733 632 433 540 353 c 257
 451 411 360 472 223 472 c 256
 94 472 13 373 13 245 c 256
 13 101 137 0 282 0 c 256
255 134 m 256
 172 134 142 182 142 238 c 256
 142 286 174 334 240 334 c 256
 350 334 393 308 459 268 c 257
 409 195 313 134 255 134 c 256
EndSplineSet
EndChar

StartChar: u
Encoding: 85 117 464
Width: 1015
VWidth: 0
Flags: W
PickledData: "(dp1
S'com.typemytype.robofont.layerData'
p2
(dp3
s."
AnchorPoint: "ogonek" 0 0 basechar 0
LayerCount: 2
Fore
SplineSet
95 355 m 256
 95 150 164 4 339 -15 c 256
 495 -32 589 60 662 193 c 257
 659 125 686 -7 817 -12 c 256
 966 -18 1156 142 1228 263 c 256
 1253 305 1239 343 1187 343 c 256
 1171 343 1146 337 1120 301 c 256
 1081 247 950 109 852 102 c 256
 805 99 769 151 781 283 c 256
 804 531 911 814 935 892 c 256
 942 914 923 947 887 953 c 256
 835 960 797 949 766 830 c 258
 670 466 l 258
 597 190 505 111 392 110 c 256
 298 109 250 182 248 302 c 256
 244 553 323 746 391 916 c 257
 393 941 369 959 324 959 c 256
 283 959 262 953 245 925 c 256
 157 779 95 550 95 355 c 256
EndSplineSet
EndChar

StartChar: underscore
Encoding: 63 95 473
Width: 1248
VWidth: 0
Flags: W
LayerCount: 2
Fore
SplineSet
98 30 m 258
 1044 30 l 258
 1174 30 1260 57 1260 163 c 256
 1260 187 1247 195 1208 195 c 258
 853 195 l 258
 737.234 195 609 194 496 194 c 258
 206 194 l 258
 97 194 -6 187 -6 108 c 256
 -6 56 37 30 98 30 c 258
EndSplineSet
EndChar

StartChar: uni00B2
Encoding: 113 178 480
Width: 991
VWidth: 0
Flags: W
LayerCount: 2
Fore
SplineSet
276 609 m 256
 379 609 461 654 528 702 c 257
 591 662 673 609 765 609 c 256
 895 609 947 732 947 854 c 256
 947 881 926 881 895 881 c 256
 860 881 839 796 796 796 c 256
 741 796 697 805 657 821 c 257
 735 912 834 1052 834 1206 c 256
 834 1420 673 1535 464 1535 c 256
 288 1535 78 1439 78 1271 c 256
 78 1208 110 1168 150 1137 c 257
 162 1137 169 1136 175 1127 c 257
 229 1127 412 1149 412 1195 c 256
 412 1225 323 1227 323 1268 c 256
 323 1330 382 1364 445 1364 c 256
 539 1364 570 1290 570 1191 c 256
 570 1084 512 985.999 461 920 c 257
 393 951 321 975.999 220 975.999 c 256
 109 975.999 37 897 37 789 c 256
 37 675 158 609 276 609 c 256
263 774 m 256
 240 774 207 791 207 813 c 256
 207 835 247 838 279 838 c 256
 307 838 332 824 354 813 c 257
 319 787 288 774 263 774 c 256
EndSplineSet
EndChar

StartChar: uni00B3
Encoding: 114 179 481
Width: 768
VWidth: 0
Flags: W
LayerCount: 2
Fore
SplineSet
347 724 m 256
 501 724 668 811 668 959 c 256
 668 1104 577 1186 454 1212 c 257
 541 1236 624 1283 624 1385 c 256
 624 1508 496 1567 371 1567 c 256
 251 1567 132 1524 132 1405 c 256
 132 1359 143 1313 186 1313 c 256
 205 1313 271 1329 271 1346 c 256
 271 1364 233 1373 233 1396 c 256
 233 1426 269 1442 301 1442 c 256
 343 1442 363 1408 363 1366 c 256
 363 1300 303 1251 235 1251 c 256
 197 1251 182 1212 182 1174 c 256
 182 1151 204 1143 230 1141 c 256
 345 1129 414 1095 414 967.999 c 256
 414 904 357 857 293 857 c 256
 247 857 221 887 221 937 c 256
 221 984.999 309 981.999 309 1006 c 256
 309 1038 214 1055 177 1055 c 256
 107 1055 66 1019 66 948 c 256
 66 786 181 724 347 724 c 256
EndSplineSet
EndChar

StartChar: mu
Encoding: 116 181 482
Width: 962
VWidth: 0
Flags: W
LayerCount: 2
Fore
SplineSet
128 -256 m 256
 286 -256 277 -76 293 72 c 257
 311 64 330 60 350 60 c 256
 452 60 528 143 577 215 c 257
 598 118 630 9.99999 745 9.99999 c 256
 935 9.99999 1115 133 1216 234 c 257
 1216 273 1215 305 1215 342 c 256
 1215 380 1214 414 1214 454 c 257
 1149 370 987.999 223 845 223 c 256
 795 223 792 275 792 327 c 258
 792 352 l 258
 792 531 876 708 876 895 c 256
 876 941 818 959 765 959 c 256
 716 959 652 939 644 902 c 258
 545 394 l 258
 530 319 483 225 396 225 c 256
 353 225 338 274 338 318 c 256
 338 319 339 329 342 349 c 256
 370 533 404 733 435 917 c 257
 435 920 l 258
 435 951 377 959 336 959 c 256
 224 959 203 932 181 842 c 256
 111 553 32 205 32 -128 c 256
 32 -208 52 -256 128 -256 c 256
EndSplineSet
EndChar

StartChar: uni00B9
Encoding: 120 185 483
Width: 704
VWidth: 0
Flags: W
LayerCount: 2
Fore
SplineSet
361 704 m 256
 516 704 532 1068 552 1175 c 256
 575 1299 608 1395 608 1497 c 256
 608 1563 552 1600 486 1600 c 256
 392 1600 288 1554 230 1540 c 256
 157 1522 55 1515 55 1440 c 256
 55 1394 90 1347 136 1347 c 256
 141 1347 146 1349 152 1350 c 257
 153 1350 l 257
 365 1406 l 257
 325 1223 285 1026 246 837 c 257
 247 837 l 257
 245 824 242 813 242 800 c 256
 242 731 292 704 361 704 c 256
EndSplineSet
EndChar

StartChar: uni0311
Encoding: 409 785 541
Width: 600
VWidth: 0
Flags: HW
LayerCount: 2
Fore
SplineSet
123 1277 m 260
 139 1508 478 1525 461 1309 c 260
 456 1237 564 1243 568 1298 c 260
 578 1444 483 1556 342 1556 c 260
 161 1556 32 1457 19 1271 c 260
 16 1219 120 1234 123 1277 c 260
EndSplineSet
EndChar

StartChar: uni2074
Encoding: 460 8308 561
Width: 927
VWidth: 0
Flags: W
LayerCount: 2
Fore
SplineSet
597 -45 m 256
 652 -45 714 -38 770 -38 c 256
 781 -38 785 -37 785 -28 c 256
 785 28 693 65 693 130 c 258
 693 149 l 257
 696 190 706 231 715 269 c 257
 771 267 826 264 881 264 c 256
 928 264 941 341 941 397 c 256
 941 418 936 437 917 437 c 256
 865 437 812 423 759 414 c 257
 785 493 836 583 836 674 c 256
 836 718 807 730 756 730 c 256
 686 730 628 691 612 633 c 256
 590 555 560 472 535 391 c 257
 522 391 l 258
 483 391 454 392 411 394 c 257
 497 587 622 779 622 1019 c 256
 622 1050 535 1052 499 1052 c 256
 430 1052 325 1044 313 991.999 c 256
 262 764 218 565 144 372 c 257
 119 335 86 287 86 237 c 256
 86 212 95.9999 192 120 192 c 256
 259 192 347 273 501 273 c 257
 485 210 466 140 466 71 c 256
 466 -18 508 -45 597 -45 c 256
EndSplineSet
EndChar

StartChar: uniFB00
Encoding: 482 64256 567
Width: 1393
VWidth: 0
Flags: W
LayerCount: 2
Fore
SplineSet
270 -604 m 256
 530 -604 633 -320 633 -119 c 256
 633 99.9999 570 281 514 427 c 257
 600 429 702 435 780 460 c 257
 776 324 770 189 770 52 c 256
 770 -189 811 -455 1016 -455 c 256
 1256 -455 1300 -228 1300 -79 c 256
 1300 124 1231 292 1171 427 c 257
 1397 436 1704 461 1704 722 c 256
 1704 761 1691 791 1668 791 c 256
 1662 791 1656 790 1650 785 c 256
 1490 667 1408 587 1216 587 c 256
 1177 587 1131 593 1102 603 c 257
 1307 799 1659 1149 1659 1474 c 256
 1659 1612 1584 1706 1459 1706 c 256
 1079 1706 878 1127 795 626 c 257
 721 602 664 587 559 587 c 256
 520 587 474 593 445 603 c 257
 642 833 981.999 1243 981.999 1624 c 256
 981.999 1762 907 1856 782 1856 c 256
 226 1856 34 521 34 -38 c 256
 34 -276 62 -604 270 -604 c 256
302 -379 m 256
 263 -379 259 -187 259 -47 c 256
 259 144 277 330 286 522 c 257
 358 384 422 187 422 -57 c 258
 422 -62 l 258
 422 -173 421 -379 302 -379 c 256
1019 -229 m 256
 960 -229 952 51 952 271 c 256
 952 370 954 438 953 502 c 257
 969.999 474 1107 148 1107 -64 c 256
 1107 -159 1085 -229 1019 -229 c 256
330 686 m 257
 356 775 516 1631 745 1631 c 256
 786 1631 795 1583 795 1529 c 256
 795 1266 486 879 330 686 c 257
986.999 686 m 257
 1013 760 1179 1482 1412 1482 c 256
 1455 1482 1474 1454 1474 1414 c 256
 1474 1227 1135 794 986.999 686 c 257
EndSplineSet
Ligature2: "'dlig' Discretionary Ligatures in Latin lookup 6 subtable" f f
Substitution2: "'fina' Terminal Forms in Latin lookup 5 subtable" uniFB00.fina
EndChar

StartChar: uniFB00.fina
Encoding: 65621 -1 568
Width: 1393
VWidth: 0
Flags: W
LayerCount: 2
Fore
SplineSet
270 -604 m 256
 530 -604 633 -320 633 -119 c 256
 633 99.9999 570 281 514 427 c 257
 616 429 737 434 830 457 c 257
 815 326 808 206 808 112 c 256
 808 -142 831 -455 1053 -455 c 256
 1293 -455 1337 -228 1337 -79 c 256
 1337 129 1279 301 1228 440 c 257
 1430 443 1704 452 1704 542 c 256
 1704 589 1695 600 1650 605 c 257
 1512 602 1440 600 1273 600 c 256
 1234 600 1188 601 1159 603 c 257
 1349 799 1676 1149 1676 1474 c 256
 1676 1612 1601 1706 1476 1706 c 256
 1119 1706 930 1127 852 626 c 257
 760 602 689 587 559 587 c 256
 520 587 474 593 445 603 c 257
 642 833 981.999 1243 981.999 1624 c 256
 981.999 1762 907 1856 782 1856 c 256
 226 1856 34 521 34 -38 c 256
 34 -276 62 -604 270 -604 c 256
302 -379 m 256
 263 -379 259 -187 259 -47 c 256
 259 144 277 330 286 522 c 257
 358 384 422 187 422 -57 c 258
 422 -62 l 258
 422 -173 421 -379 302 -379 c 256
1056 -229 m 256
 1017 -229 1013 -37 1013 103 c 256
 1013 237 1011 368 1010 502 c 257
 1025 474 1144 148 1144 -64 c 256
 1144 -159 1122 -229 1056 -229 c 256
330 686 m 257
 356 775 516 1631 745 1631 c 256
 786 1631 795 1583 795 1529 c 256
 795 1266 486 879 330 686 c 257
1044 686 m 257
 1068 760 1218 1482 1429 1482 c 256
 1472 1482 1491 1454 1491 1414 c 256
 1491 1227 1180 794 1044 686 c 257
EndSplineSet
EndChar

StartChar: uniFB01
Encoding: 483 64257 569
Width: 1260
VWidth: 0
Flags: W
LayerCount: 2
Fore
SplineSet
333 -604 m 256
 571 -604 666 -267 666 -29 c 256
 666 142 597 283 535 397 c 257
 652 399 759 421 854 455 c 257
 837 376 819 286 819 201 c 256
 819 71 874 0 1005 0 c 256
 1189 0 1359 121 1459 213 c 257
 1459 416 l 257
 1381 352 1257 192 1126 192 c 256
 1080 192 1075 240 1075 290 c 256
 1075 514 1209 695 1209 903 c 256
 1209 945 1185 960 1137 960 c 256
 1058 960 971.999 927 955 863 c 258
 912 694 l 257
 825 633 709 587 560 587 c 256
 532 587 524 603 494 603 c 256
 471 603 464 598 443 587 c 257
 445 603 l 257
 571 763 687 952 780 1144 c 256
 846 1281 929 1442 929 1624 c 256
 929 1762 850 1856 717 1856 c 256
 497 1856 390 1625 323 1454 c 256
 165 1053 68 494 68 -38 c 256
 68 -276 98.9999 -604 333 -604 c 256
354 -379 m 256
 300 -379 293 -187 293 -47 c 256
 293 -5 294 33 294 59 c 256
 294 110 308 442 335 442 c 256
 343 442 352 433 361 415 c 256
 421 300 457 107 457 -57 c 256
 457 -167 458 -379 354 -379 c 256
399 816 m 257
 435 1100 482 1295 578 1533 c 256
 600 1589 621 1631 691 1631 c 256
 736 1631 747 1583 747 1529 c 256
 747 1504 737 1467 716 1418 c 256
 629 1216 504 1013 399 816 c 257
1184 1089 m 256
 1300 1089 1378 1155 1378 1268 c 256
 1378 1366 1306 1408 1208 1408 c 256
 1098 1408 1012 1345 1012 1241 c 256
 1012 1140 1077 1089 1184 1089 c 256
EndSplineSet
Ligature2: "'dlig' Discretionary Ligatures in Latin lookup 6 subtable" f i
EndChar

StartChar: uniFB02
Encoding: 484 64258 570
Width: 1257
VWidth: 0
Flags: W
LayerCount: 2
Fore
SplineSet
333 -604 m 256
 571 -604 666 -267 666 -29 c 256
 666 142 597 283 535 397 c 257
 641 402 737 417 826 446 c 257
 843 283 902 0 1074 0 c 256
 1097 0 1121 4 1147 9.99999 c 256
 1313 50 1438 137 1563 227 c 257
 1481 437 l 257
 1435 400 1391 368 1349 340 c 256
 1296 305 1222 244 1141 244 c 256
 1087 244 1068 449 1068 545 c 257
 1248 738 1514 1097 1514 1464 c 256
 1514 1580 1485 1690 1370 1690 c 256
 1022 1690 840 969.999 820 642 c 257
 733 602 567 587 468 587 c 258
 443 587 l 257
 445 603 l 257
 571 763 687 952 780 1144 c 256
 846 1281 929 1442 929 1624 c 256
 929 1762 850 1856 717 1856 c 256
 497 1856 390 1625 323 1454 c 256
 165 1053 68 494 68 -38 c 256
 68 -276 98.9999 -604 333 -604 c 256
354 -379 m 256
 300 -379 293 -187 293 -47 c 256
 293 -5 294 33 294 59 c 256
 294 110 308 442 335 442 c 256
 343 442 352 433 361 415 c 256
 421 300 457 107 457 -57 c 258
 457 -63 l 258
 457 -175 456 -379 354 -379 c 256
399 816 m 257
 435 1100 482 1295 578 1533 c 256
 600 1589 621 1631 691 1631 c 256
 736 1631 747 1583 747 1529 c 256
 747 1504 737 1467 716 1418 c 256
 629 1216 504 1013 399 816 c 257
1051 755 m 257
 1070 918 1169 1436 1284 1436 c 256
 1311 1436 1320 1415 1320 1385 c 256
 1320 1229 1059 768 1051 755 c 257
EndSplineSet
Ligature2: "'dlig' Discretionary Ligatures in Latin lookup 6 subtable" f l
EndChar

StartChar: v
Encoding: 86 118 576
Width: 879
VWidth: 0
Flags: W
LayerCount: 2
Fore
SplineSet
366 -5 m 256
 587 135 796 439 899 854 c 256
 937 1008 624 987 650 529 c 257
 539 280 376 138 362 138 c 256
 310 138 220 385 322 862 c 256
 338 939 213 980 182 878 c 256
 4 292 223 -96 366 -5 c 256
1227 737 m 256
 1256 790 1177 852 1146 810 c 256
 1032 657 927 572 727 587 c 257
 711 473 l 257
 897 422 1132 564 1227 737 c 256
EndSplineSet
EndChar

StartChar: w
Encoding: 87 119 577
Width: 1655
VWidth: 0
Flags: W
PickledData: "(dp1
S'com.typemytype.robofont.layerData'
p2
(dp3
s."
LayerCount: 2
Fore
SplineSet
1444.33 530.611 m 257
 1351 374 1194 111 1033 93 c 256
 957 84 893 154 893 355 c 256
 893 398 897.78 479.602 904.783 493.609 c 256
 915.149 513.294 1177.07 928.249 975.87 927 c 256
 880.198 925.725 774 655 774 329 c 256
 774 82 841 -53 1009 -53 c 257
 1226 -43 1394 200 1555.35 464.78 c 257
 1818.47 934.507 1711 1148 1520 1155 c 257
 1069 1155 1229 307 2002 748 c 256
 2063 783 2011 879 1950 843 c 256
 1342 490 1301 1036 1510 1036 c 256
 1564 1036 1662.31 954.091 1444.33 530.611 c 257
851.79 732.77 m 257
 778.706 529.406 l 257
 685 373 529 111 368 93 c 256
 292 85 241 141 241 316 c 256
 241 658 430.881 882.505 449.042 907.73 c 256
 477.385 946.973 382.005 1044.6 293.772 918.008 c 256
 257.664 865.853 96 651 96 329 c 256
 96 81 177 -53 343 -53 c 257
 563 -43 731 203 893.89 471.151 c 257
 851.79 732.77 l 257
EndSplineSet
Substitution2: "'fina' Terminal Forms in Latin lookup 5 subtable" w.fina
EndChar

StartChar: w.fina
Encoding: 65622 -1 578
Width: 1753
VWidth: 0
Flags: W
LayerCount: 2
Fore
SplineSet
223 0 m 256
 254 0 285 12 317 36 c 256
 441 130 515 315 563 494 c 257
 592 489 l 257
 592 467 591 432 591 390 c 256
 591 239 598 0 657 0 c 256
 684 0 709 9.99999 737 27 c 256
 837 87 901 197 953 303 c 257
 985.999 225 1060 145 1216 145 c 256
 1320 145 1494 234 1494 367 c 256
 1494 401 1469 439 1447 439 c 256
 1443 439 1440 438 1436 435 c 256
 1368 385 1295 318 1209 318 c 256
 1119 318 1093 365 1093 420 c 256
 1093 484 1128 558 1139 582 c 256
 1175 661 1246 763 1246 876 c 256
 1246 934 1186 960 1127 960 c 256
 1062 960 997.999 931 979.999 889 c 258
 741 355 l 257
 727 354 l 257
 809 895 l 258
 809 898 810 900 810 903 c 256
 810 942 765 959 718 959 c 256
 599 959 548 892 506 810 c 256
 433 668 384 513 316 355 c 257
 303 354 l 257
 373 895 l 257
 373 902 l 258
 373 942 329 959 282 959 c 257
 258 961 l 257
 87 961 72 685 72 512 c 258
 72 455 l 258
 72 263 81 0 223 0 c 256
EndSplineSet
EndChar

StartChar: x
Encoding: 88 120 583
Width: 955
VWidth: 0
Flags: W
LayerCount: 2
Fore
SplineSet
1110 832 m 256
 1151 982 937 1037 823 893 c 258
 446 428 l 258
 338 294 224 156 151 106 c 256
 65 47 178 -104 248 2 c 256
 317 106 410 222 496 330 c 258
 850 773 l 258
 979 934 1093 769 1110 832 c 256
789 -13 m 256
 1047 -88 1150 182 1211 286 c 256
 1253 357 1200 419 1150 351 c 256
 1100 284 1005 93 864 93 c 256
 706 93 530 381 195 954 c 256
 182 976 74 927 106 871 c 256
 409 347 572 50 789 -13 c 256
EndSplineSet
EndChar

StartChar: y
Encoding: 89 121 584
Width: 1013
VWidth: 0
Flags: W
PickledData: "(dp1
S'com.typemytype.robofont.layerData'
p2
(dp3
s."
LayerCount: 2
Fore
SplineSet
178 -941 m 256
 596 -941 708 -413 774 -62 c 257
 977 107 1091 177 1230 222 c 257
 1291 235 1256 363 1189 349 c 256
 1084 326 965 234 791 96 c 257
 791 96 837 307 861 425 c 256
 921 722 967 799 967 929 c 256
 967 946 951 955 918 955 c 256
 836 955 797 903 778 836 c 258
 685 474 l 258
 660 381 549 138 396 138 c 256
 294 138 284 265 284 332 c 256
 284 466 343 626 392 778 c 256
 415 842 434 880 434 928 c 256
 434 953 405 970 395 970 c 256
 335 970 308 934 286 894 c 256
 205 741 130 516 130 289 c 256
 130 146 197 -2 346 -2 c 256
 511 -2 635 140 667 226 c 257
 595 -23 l 257
 437 -143 278 -240 154 -380 c 256
 75.9999 -468 -54 -633 -34 -772 c 256
 -21 -861 63 -941 178 -941 c 256
187 -821 m 256
 138 -814 98 -780 98 -714 c 256
 98 -589 265 -386 586 -180 c 257
 553 -296 470 -863 187 -821 c 256
EndSplineSet
Substitution2: "'fina' Terminal Forms in Latin lookup 5 subtable" y.fina
EndChar

StartChar: y.fina
Encoding: 65623 -1 585
Width: 1175
VWidth: 0
Flags: W
LayerCount: 2
Fore
SplineSet
561 -31 m 257
 825 53 l 257
 843 166 873 313 891 412 c 256
 916 553 976.999 718 976.999 853 c 256
 976.999 893 941 909 898 909 c 256
 798 909 740 846 718 768 c 258
 645 474 l 258
 620 381 568 192 438 192 c 256
 360 192 344 260 344 324 c 256
 344 454 381 584 416 692 c 256
 437 751 474 793 474 852 c 256
 474 900 426 924 375 924 c 256
 303 924 240 881 213 832 c 256
 131 677 74 513 74 281 c 256
 74 123 179 -2 346 -2 c 256
 445 -2 620 75 630 185 c 257
 561 -31 l 257
221 -928 m 256
 278 -928 331 -918 378 -898 c 256
 645 -790 740 -462 797 -148 c 257
 977.999 -107 1280 -60 1415 -44 c 257
 1460 -33 1478 2 1478 43 c 256
 1478 101 1402 168 1303 168 c 256
 1300 168 1296 168 1293 167 c 256
 1158 139 971.999 106 825 54 c 257
 854 257 660 298 565 -18 c 257
 344 -142 -3 -437 -3 -729 c 256
 -3 -870 85 -928 221 -928 c 256
233 -736 m 256
 206 -736 193 -724 193 -699 c 256
 193 -684 198 -664 208 -641 c 256
 273 -489 409 -344 541 -256 c 257
 509 -417 429 -736 233 -736 c 256
EndSplineSet
EndChar

StartChar: yen
Encoding: 100 165 589
Width: 1793
VWidth: 0
Flags: W
LayerCount: 2
Fore
SplineSet
557 3 m 256
 800 3 858 180 923 387 c 257
 1191 387 l 258
 1279 387 1346 397 1346 481 c 256
 1346 507.017 1291.27 515 1239 515 c 258
 964.131 515 l 257
 1021.01 671 l 257
 1216 671 l 258
 1351 671 1395 709 1395 765 c 256
 1395 792 1337 799 1283 799 c 258
 1107 799 l 257
 1244 994 1398 1191 1533 1378 c 256
 1586 1452 1647 1512 1647 1598 c 256
 1647 1638 1621 1655 1572 1655 c 256
 1523 1655 1481 1639 1465 1614 c 256
 1293 1356 1122 1080 940 820 c 257
 942 834 l 257
 919 837 856 1689 550 1689 c 256
 524 1689 496 1684 462 1672 c 256
 322 1622 214 1521 119 1410 c 257
 94 1364 149 1319 204 1333 c 257
 278 1411 388 1530 497 1530 c 256
 680 1530 740 1091 796 799 c 257
 611 799 l 258
 546 799 495 792 495 759 c 256
 495 713 523.108 671 594 671 c 258
 787.423 671 l 257
 748.423 515 l 257
 589 515 l 258
 524.901 515 478 507.362 478 475 c 256
 478 401 521 387 589 387 c 258
 712 387 l 257
 695 330 663 129 600 129 c 256
 543 129 522 155 484 155 c 256
 463 155 444 116 444 80 c 256
 444 31 495 3 557 3 c 256
EndSplineSet
EndChar

StartChar: z
Encoding: 90 122 591
Width: 743
VWidth: 0
Flags: W
PickledData: "(dp1
S'com.typemytype.robofont.layerData'
p2
(dp3
s."
LayerCount: 2
Fore
SplineSet
876 195 m 256
 929 234 882 321 859 308 c 256
 462 71 168 80 178 214 c 257
 256 310 611 641 695 749 c 256
 726 788 735 818 735 856 c 256
 735 907 696 919 663 919 c 256
 614 919 276 914 105 914 c 256
 24 914 74 795 104 795 c 256
 190 795 365 806 558 811 c 257
 123 361 l 258
 87 325 41 281 28 222 c 256
 -25 -30 422 -136 876 195 c 256
EndSplineSet
EndChar

StartChar: zero
Encoding: 16 48 595
Width: 1203
VWidth: 0
Flags: W
LayerCount: 2
Fore
SplineSet
515 76 m 256
 340 76 322 383.972 322 505 c 256
 322 737.003 438 1354 736 1354 c 256
 926 1354 912 1059.7 912 939 c 256
 912 712.773 813 76 515 76 c 256
492 -12 m 256
 889 -12 1110 486.562 1110 902 c 256
 1110 1187.68 1022 1452 742 1452 c 256
 347 1452 104 964.124 104 552 c 256
 104 251.032 222 -12 492 -12 c 256
EndSplineSet
EndChar

